{
.appVersion = "3039";
DisplayStrings = (
"/ha.base/hha.base/la.base/ma.base/na.base/ra.base/sa.base/tsa.base/wa.base/ya.base/za.base",
"/la.base",
"/ba.base",
"",
"/ha.base",
"/ma.base",
"/ta.base",
"r/tsa.base",
"/ga.base",
"/ra.base r",
"r/sa.base r",
"/wa.base",
"/ya.base",
"/za.base",
"/hha.base",
"/na.base",
"/nna.base",
"/oPh.base",
"r/fa.base",
"/pa.base",
"/ha.base/ha-ethiopic",
"/ha.base/hu-ethiopic",
"/ha.base/hi-ethiopic",
"/ha.base/ha-ethiopic",
"/_smart.he",
"/_smart.haa",
"/_smart.hee",
"/_smart.hi",
"/_smart.hu",
"/_smart.ho.ring",
"/ha.base/he-ethiopic",
"/ha.base/ho-ethiopic",
"/_smart.hwa",
"/la.base/lu-ethiopic",
"/la.base/li-ethiopic",
"/la.base/lee-ethiopic",
"/hha.base/hhu-ethiopic",
"/_smart.he.acute",
"/_smart.ho",
"/_smart.hha.neck",
"/hha.base/hhi-ethiopic",
"/hha.base/hhee-ethiopic",
"/_smart.hha.neck/hhe-ethiopic",
"/_smart.hha.neck/hhe-ethiopic",
"/hha.base/hhe-ethiopic",
"/_smart.he.acute/hhe-ethiopic",
"/_smart.haa/hhaa-ethiopic",
"/_smart.hee/lee-ethiopic",
"/da.base r",
"/ma.base/mu-ethiopic",
"/haa.acute",
"/_smart.haa.acute/me-ethiopic",
"/ma.base/me-ethiopic",
"/_smart.haa.acute",
"/ma.base/mu-ethiopic",
"/ma.base/mi-ethiopic",
"/ma.base/mee-ethiopic",
"/sa.base/szu-ethiopic",
"/sa.base/szee-ethiopic",
"/ba.base/sa-ethiopic",
"/_smart.hat",
"/_smart.neck",
"/_smart.hat.left",
"/sha-ethiopic/shu-ethiopic/shi-ethiopic/shaa-ethiopic/shee-ethiopic/she-ethiopic/sho-ethiopic/shwa-ethiopic",
"/ba.base/shaa-ethiopic",
"/_smart.neck/shaa-ethiopic",
"/ba.base/shaa-ethiopic",
"/ba.base/shi-ethiopic",
"/ba.base/shee-ethiopic",
"/hhe-ethiopic",
"/ba.base/se-ethiopic/she-ethiopic",
"/ba.base/she-ethiopic",
"/ba.base/se-ethiopic",
"/wa.base/qu-ethiopic",
"/wa.base/qe-ethiopic",
"/wa.base/qu-ethiopic",
"/wa.base/qi-ethiopic",
"/wa.base/qee-ethiopic",
"/wa.base/qee-ethiopic",
"/wa.base/qo-ethiopic",
"/ta.base/tu-ethiopic",
"/ta.base/tu-ethiopic",
"/ta.base/tu-ethiopic",
"/ta.base/te-ethiopic",
"/ta.base/tee-ethiopic",
"/ta.base/to-ethiopic",

glyphs = (
{
glyphname = A;
lastChange = "2020-12-20 22:29:48 +0000";
layers = (
{
layerId = "1691882E-B915-4755-A5B2-757873D945FF";
paths = (
{
closed = 1;
nodes = (
"1063.624 578.575 LINE SMOOTH",
"1052 503 OFFCURVE",
"1051.213 416.601 OFFCURVE",
"1051.942 367.366 CURVE",
"999.772 370.455 OFFCURVE",
"955.911 372 OFFCURVE",
"919 372 CURVE",
"971.5 512.5 LINE SMOOTH",
"1005 601 OFFCURVE",
"1030 663.333 OFFCURVE",
"1048 698 CURVE",
"1096 698 OFFCURVE",
"1166 729.5 OFFCURVE",
"1166 771.5 CURVE SMOOTH",
"1166 792.5 OFFCURVE",
"1153.667 803 OFFCURVE",
"1129 803 CURVE SMOOTH",
"1111.31 803 OFFCURVE",
"1090.925 797.575 OFFCURVE",
"1065.5 766.5 CURVE SMOOTH",
"1050.5 748.167 OFFCURVE",
"1039.333 732.667 OFFCURVE",
"1032 720 CURVE",
"980.097 714.631 OFFCURVE",
"906.631 713.224 OFFCURVE",
"840.5 707 CURVE SMOOTH",
"812.167 704.333 OFFCURVE",
"778.833 700.333 OFFCURVE",
"740.5 695 CURVE SMOOTH",
"663.833 684.333 OFFCURVE",
"613 663.167 OFFCURVE",
"557 630.5 CURVE SMOOTH",
"501 597.833 OFFCURVE",
"462.167 538.833 OFFCURVE",
"449.5 487.5 CURVE SMOOTH",
"436.692 435.593 OFFCURVE",
"435.193 398.915 OFFCURVE",
"456 356 CURVE SMOOTH",
"472.667 319.333 OFFCURVE",
"498.667 293.333 OFFCURVE",
"534 278 CURVE SMOOTH",
"552.667 270 OFFCURVE",
"571.333 266 OFFCURVE",
"590 266 CURVE SMOOTH",
"608.667 266 OFFCURVE",
"627.333 269.333 OFFCURVE",
"646 276 CURVE SMOOTH",
"684.667 290 OFFCURVE",
"715.333 317.667 OFFCURVE",
"738 359 CURVE SMOOTH",
"751.333 382.333 OFFCURVE",
"758 404 OFFCURVE",
"758 424 CURVE SMOOTH",
"758 444 OFFCURVE",
"754 462.667 OFFCURVE",
"746 480 CURVE SMOOTH",
"742.667 486 OFFCURVE",
"738.667 488.667 OFFCURVE",
"734 488 CURVE SMOOTH",
"719.86 485.172 OFFCURVE",
"737 471.839 OFFCURVE",
"737 448.5 CURVE SMOOTH",
"737 436.167 OFFCURVE",
"731.333 414.667 OFFCURVE",
"720 384 CURVE SMOOTH",
"696 318.667 OFFCURVE",
"655.667 286 OFFCURVE",
"599 286 CURVE SMOOTH",
"541.667 286 OFFCURVE",
"504 342 OFFCURVE",
"504 390 CURVE SMOOTH",
"504 414 OFFCURVE",
"507.333 436.667 OFFCURVE",
"514 458 CURVE SMOOTH",
"530 510 OFFCURVE",
"557 554 OFFCURVE",
"595 590 CURVE SMOOTH",
"627 619.333 OFFCURVE",
"680.333 642.833 OFFCURVE",
"719 655.5 CURVE SMOOTH",
"738.333 661.833 OFFCURVE",
"762.667 667.333 OFFCURVE",
"792 672 CURVE SMOOTH",
"850.667 681.333 OFFCURVE",
"880 683.667 OFFCURVE",
"944 689 CURVE SMOOTH",
"976 691.667 OFFCURVE",
"1000.667 694 OFFCURVE",
"1018 696 CURVE",
"963.333 586.667 OFFCURVE",
"914.667 478.667 OFFCURVE",
"872 372 CURVE",
"833 372 LINE",
"809 369.333 OFFCURVE",
"767 344.667 OFFCURVE",
"767 322 CURVE",
"770.365 301.81 OFFCURVE",
"810.43 339 OFFCURVE",
"858 339 CURVE",
"766 97 OFFCURVE",
"607 -49.333 OFFCURVE",
"381 -100 CURVE SMOOTH",
"357 -105.333 OFFCURVE",
"331.333 -108 OFFCURVE",
"304 -108 CURVE SMOOTH",
"241.333 -108 OFFCURVE",
"186.667 -96.333 OFFCURVE",
"140 -73 CURVE SMOOTH",
"62.667 -33.667 OFFCURVE",
"24 26 OFFCURVE",
"24 106 CURVE SMOOTH",
"24 157.333 OFFCURVE",
"38 202.333 OFFCURVE",
"66 241 CURVE SMOOTH",
"87.333 270.333 OFFCURVE",
"108 289.333 OFFCURVE",
"128 298 CURVE SMOOTH",
"144.388 304.414 OFFCURVE",
"139.18 317.752 OFFCURVE",
"126 312 CURVE",
"90 310.667 OFFCURVE",
"20 246.333 OFFCURVE",
"4 185 CURVE SMOOTH",
"-26.667 65 OFFCURVE",
"10.667 -38.5 OFFCURVE",
"88 -96.5 CURVE SMOOTH",
"165.333 -154.5 OFFCURVE",
"258.333 -171 OFFCURVE",
"329 -171 CURVE SMOOTH",
"413 -171 OFFCURVE",
"493 -150 OFFCURVE",
"569 -108 CURVE SMOOTH",
"625.667 -76 OFFCURVE",
"675.333 -36.333 OFFCURVE",
"718 11 CURVE SMOOTH",
"805.333 107 OFFCURVE",
"869.333 215.667 OFFCURVE",
"910 337 CURVE",
"1053.975 330.85 LINE",
"1053.841 322.307 OFFCURVE",
"1053.298 294.947 OFFCURVE",
"1056 240 CURVE SMOOTH",
"1057 212 OFFCURVE",
"1060 149 OFFCURVE",
"1069 114 CURVE SMOOTH",
"1082 67 OFFCURVE",
"1090 34 OFFCURVE",
"1114 7 CURVE SMOOTH",
"1135 -18 OFFCURVE",
"1161 -41 OFFCURVE",
"1192 -40 CURVE SMOOTH",
"1219 -40 OFFCURVE",
"1254 -16 OFFCURVE",
"1272 10 CURVE SMOOTH",
"1298 52 OFFCURVE",
"1312 76 OFFCURVE",
"1362 181 CURVE SMOOTH",
"1373 203 OFFCURVE",
"1357 208 OFFCURVE",
"1346 188 CURVE SMOOTH",
"1296 95 OFFCURVE",
"1267 38 OFFCURVE",
"1229 10 CURVE SMOOTH",
"1197 -14 OFFCURVE",
"1165 13 OFFCURVE",
"1144 69 CURVE SMOOTH",
"1129 110 OFFCURVE",
"1118 183 OFFCURVE",
"1114 286 CURVE SMOOTH",
"1112 334 LINE",
"1154 337 OFFCURVE",
"1183 347 OFFCURVE",
"1199 362 CURVE SMOOTH",
"1222 384 OFFCURVE",
"1187 377 OFFCURVE",
"1109 366 CURVE",
"1107 449 OFFCURVE",
"1108 533 OFFCURVE",
"1123 598 CURVE SMOOTH",
"1135 649 OFFCURVE",
"1165 665 OFFCURVE",
"1163 671 CURVE SMOOTH",
"1161 677 OFFCURVE",
"1140 674 OFFCURVE",
"1111 662 CURVE SMOOTH",
"1092 654 OFFCURVE",
"1077 631 OFFCURVE",
"1066 594 CURVE"
);
},
{
closed = 1;
nodes = (
"1091.333 755.667 OFFCURVE",
"1108 772 OFFCURVE",
"1116 772 CURVE SMOOTH",
"1117.333 772 OFFCURVE",
"1118.333 771.667 OFFCURVE",
"1119 771 CURVE",
"1125.667 769.667 OFFCURVE",
"1129.333 765.333 OFFCURVE",
"1130 758 CURVE SMOOTH",
"1130.667 741.333 OFFCURVE",
"1109.333 729.667 OFFCURVE",
"1066 723 CURVE"
);
}
);
width = 1153;
}
);
note = A;
unicode = 0041;
},
{
glyphname = AE;
lastChange = "2020-12-20 22:35:59 +0000";
layers = (
{
components = (
{
name = E;
transform = "{1, 0, 0, 1, 919, -11}";
}
);
layerId = "1691882E-B915-4755-A5B2-757873D945FF";
paths = (
{
closed = 1;
nodes = (
"1112 334 LINE SMOOTH",
"1126 334 OFFCURVE",
"1188 352 OFFCURVE",
"1199 362 CURVE SMOOTH",
"1223 384 OFFCURVE",
"1187 377 OFFCURVE",
"1109 366 CURVE",
"1000 370 OFFCURVE",
"955.911 372 OFFCURVE",
"919 372 CURVE",
"971.5 512.5 LINE SMOOTH",
"1005 601 OFFCURVE",
"1030 663.333 OFFCURVE",
"1048 698 CURVE",
"1096 698 OFFCURVE",
"1166 729.5 OFFCURVE",
"1166 771.5 CURVE SMOOTH",
"1166 792.5 OFFCURVE",
"1153.667 803 OFFCURVE",
"1129 803 CURVE SMOOTH",
"1111.31 803 OFFCURVE",
"1090.925 797.575 OFFCURVE",
"1065.5 766.5 CURVE SMOOTH",
"1050.5 748.167 OFFCURVE",
"1039.333 732.667 OFFCURVE",
"1032 720 CURVE",
"980.097 714.631 OFFCURVE",
"906.631 713.224 OFFCURVE",
"840.5 707 CURVE SMOOTH",
"812.167 704.333 OFFCURVE",
"778.833 700.333 OFFCURVE",
"740.5 695 CURVE SMOOTH",
"663.833 684.333 OFFCURVE",
"613 663.167 OFFCURVE",
"557 630.5 CURVE SMOOTH",
"501 597.833 OFFCURVE",
"462.167 538.833 OFFCURVE",
"449.5 487.5 CURVE SMOOTH",
"436.692 435.593 OFFCURVE",
"435.193 398.915 OFFCURVE",
"456 356 CURVE SMOOTH",
"472.667 319.333 OFFCURVE",
"498.667 293.333 OFFCURVE",
"534 278 CURVE SMOOTH",
"552.667 270 OFFCURVE",
"571.333 266 OFFCURVE",
"590 266 CURVE SMOOTH",
"608.667 266 OFFCURVE",
"627.333 269.333 OFFCURVE",
"646 276 CURVE SMOOTH",
"684.667 290 OFFCURVE",
"715.333 317.667 OFFCURVE",
"738 359 CURVE SMOOTH",
"751.333 382.333 OFFCURVE",
"758 404 OFFCURVE",
"758 424 CURVE SMOOTH",
"758 444 OFFCURVE",
"754 462.667 OFFCURVE",
"746 480 CURVE SMOOTH",
"742.667 486 OFFCURVE",
"738.667 488.667 OFFCURVE",
"734 488 CURVE SMOOTH",
"719.86 485.172 OFFCURVE",
"737 471.839 OFFCURVE",
"737 448.5 CURVE SMOOTH",
"737 436.167 OFFCURVE",
"731.333 414.667 OFFCURVE",
"720 384 CURVE SMOOTH",
"696 318.667 OFFCURVE",
"655.667 286 OFFCURVE",
"599 286 CURVE SMOOTH",
"541.667 286 OFFCURVE",
"504 342 OFFCURVE",
"504 390 CURVE SMOOTH",
"504 414 OFFCURVE",
"507.333 436.667 OFFCURVE",
"514 458 CURVE SMOOTH",
"530 510 OFFCURVE",
"557 554 OFFCURVE",
"595 590 CURVE SMOOTH",
"627 619.333 OFFCURVE",
"680.333 642.833 OFFCURVE",
"719 655.5 CURVE SMOOTH",
"738.333 661.833 OFFCURVE",
"762.667 667.333 OFFCURVE",
"792 672 CURVE SMOOTH",
"850.667 681.333 OFFCURVE",
"880 683.667 OFFCURVE",
"944 689 CURVE SMOOTH",
"976 691.667 OFFCURVE",
"1000.667 694 OFFCURVE",
"1018 696 CURVE",
"963.333 586.667 OFFCURVE",
"914.667 478.667 OFFCURVE",
"872 372 CURVE",
"833 372 LINE SMOOTH",
"809 372 OFFCURVE",
"767 344.667 OFFCURVE",
"767 322 CURVE",
"770.365 301.81 OFFCURVE",
"810.43 339 OFFCURVE",
"858 339 CURVE",
"766 97 OFFCURVE",
"607 -49.333 OFFCURVE",
"381 -100 CURVE SMOOTH",
"357 -105.333 OFFCURVE",
"331.333 -108 OFFCURVE",
"304 -108 CURVE SMOOTH",
"241.333 -108 OFFCURVE",
"186.667 -96.333 OFFCURVE",
"140 -73 CURVE SMOOTH",
"62.667 -33.667 OFFCURVE",
"24 26 OFFCURVE",
"24 106 CURVE SMOOTH",
"24 157.333 OFFCURVE",
"38 202.333 OFFCURVE",
"66 241 CURVE SMOOTH",
"87.333 270.333 OFFCURVE",
"108 289.333 OFFCURVE",
"128 298 CURVE SMOOTH",
"144.388 304.414 OFFCURVE",
"139.18 317.752 OFFCURVE",
"126 312 CURVE",
"90 310.667 OFFCURVE",
"20 246.333 OFFCURVE",
"4 185 CURVE SMOOTH",
"-26.667 65 OFFCURVE",
"10.667 -38.5 OFFCURVE",
"88 -96.5 CURVE SMOOTH",
"165.333 -154.5 OFFCURVE",
"258.333 -171 OFFCURVE",
"329 -171 CURVE SMOOTH",
"413 -171 OFFCURVE",
"493 -150 OFFCURVE",
"569 -108 CURVE SMOOTH",
"625.667 -76 OFFCURVE",
"675.333 -36.333 OFFCURVE",
"718 11 CURVE SMOOTH",
"805.333 107 OFFCURVE",
"869.333 215.667 OFFCURVE",
"910 337 CURVE",
"1047 332 LINE"
);
},
{
closed = 1;
nodes = (
"1091.333 755.667 OFFCURVE",
"1108 772 OFFCURVE",
"1116 772 CURVE SMOOTH",
"1117.333 772 OFFCURVE",
"1118.333 771.667 OFFCURVE",
"1119 771 CURVE",
"1125.667 769.667 OFFCURVE",
"1129.333 765.333 OFFCURVE",
"1130 758 CURVE SMOOTH",
"1130.667 741.333 OFFCURVE",
"1109.333 729.667 OFFCURVE",
"1066 723 CURVE"
);
},
{
closed = 1;
nodes = (
"1114 349 LINE",
"1114 689 LINE",
"1071 689 LINE",
"1071 349 LINE"
);
}
);
width = 1734;
}
);
note = AE;
rightMetricsKey = E;
unicode = 00C6;
},
{
glyphname = B;
lastChange = "2020-12-20 20:29:43 +0000";
layers = (
{
layerId = "1691882E-B915-4755-A5B2-757873D945FF";
paths = (
{
closed = 1;
nodes = (
"251.333 -39 OFFCURVE",
"321 -14.667 OFFCURVE",
"387 34 CURVE",
"459.667 1.333 OFFCURVE",
"548.333 -21.667 OFFCURVE",
"653 -35 CURVE SMOOTH",
"669 -37 OFFCURVE",
"685.333 -38 OFFCURVE",
"702 -38 CURVE SMOOTH",
"747.333 -38 OFFCURVE",
"794 -30.333 OFFCURVE",
"842 -15 CURVE SMOOTH",
"906.667 5.667 OFFCURVE",
"958.333 39.333 OFFCURVE",
"997 86 CURVE SMOOTH",
"1024.333 118.667 OFFCURVE",
"1038 154 OFFCURVE",
"1038 192 CURVE SMOOTH",
"1038 248.667 OFFCURVE",
"1012 294 OFFCURVE",
"960 328 CURVE SMOOTH",
"923.333 352 OFFCURVE",
"883.667 370.667 OFFCURVE",
"841 384 CURVE",
"929 388 OFFCURVE",
"1027.333 421.333 OFFCURVE",
"1066 488 CURVE SMOOTH",
"1080.667 513.333 OFFCURVE",
"1088 538.5 OFFCURVE",
"1088 563.5 CURVE SMOOTH",
"1088 588.5 OFFCURVE",
"1077.333 613 OFFCURVE",
"1056 637 CURVE SMOOTH",
"1016 680.333 OFFCURVE",
"950.667 713.667 OFFCURVE",
"860 737 CURVE",
"872.257 767.642 OFFCURVE",
"923.034 784 OFFCURVE",
"902 784 CURVE",
"896.065 789.935 OFFCURVE",
"860.105 775.947 OFFCURVE",
"824 745 CURVE",
"755.333 759.667 OFFCURVE",
"687.833 767 OFFCURVE",
"621.5 767 CURVE SMOOTH",
"555.167 767 OFFCURVE",
"491.333 762.667 OFFCURVE",
"430 754 CURVE SMOOTH",
"303.333 736 OFFCURVE",
"207.333 690.333 OFFCURVE",
"142 617 CURVE SMOOTH",
"101.333 572.333 OFFCURVE",
"81 527 OFFCURVE",
"81 481 CURVE SMOOTH",
"81 413.667 OFFCURVE",
"116.333 367.667 OFFCURVE",
"187 343 CURVE",
"239 334 LINE",
"266.333 334 OFFCURVE",
"293.667 341.333 OFFCURVE",
"321 356 CURVE SMOOTH",
"365.667 381.333 OFFCURVE",
"391.667 418.333 OFFCURVE",
"399 467 CURVE SMOOTH",
"399 468 LINE SMOOTH",
"398.333 476.667 OFFCURVE",
"394.667 481.333 OFFCURVE",
"388 482 CURVE SMOOTH",
"374.159 482 OFFCURVE",
"380.186 465.372 OFFCURVE",
"367.5 440 CURVE SMOOTH",
"360.5 426 OFFCURVE",
"349.167 411.5 OFFCURVE",
"333.5 396.5 CURVE SMOOTH",
"292.14 356.9 OFFCURVE",
"242.111 354.369 OFFCURVE",
"197 367 CURVE SMOOTH",
"149.667 381.667 OFFCURVE",
"126 413.333 OFFCURVE",
"126 462 CURVE SMOOTH",
"126 498.667 OFFCURVE",
"143 537.333 OFFCURVE",
"177 578 CURVE SMOOTH",
"233 645.333 OFFCURVE",
"313 690 OFFCURVE",
"417 712 CURVE SMOOTH",
"493 728.667 OFFCURVE",
"562.667 737 OFFCURVE",
"626 737 CURVE SMOOTH",
"689.333 737 OFFCURVE",
"747.333 732.333 OFFCURVE",
"800 723 CURVE",
"743 658 LINE SMOOTH",
"667 574 OFFCURVE",
"587.833 439.5 OFFCURVE",
"540.5 341.5 CURVE SMOOTH",
"493.167 243.5 OFFCURVE",
"425.667 129.333 OFFCURVE",
"367 72 CURVE",
"322.855 94.073 OFFCURVE",
"264.387 130.452 OFFCURVE",
"209 150 CURVE SMOOTH",
"186.333 158 OFFCURVE",
"161 162 OFFCURVE",
"133 162 CURVE SMOOTH",
"90.333 162 OFFCURVE",
"57 148.667 OFFCURVE",
"33 122 CURVE SMOOTH",
"17.667 104.667 OFFCURVE",
"10 88.333 OFFCURVE",
"10 73 CURVE SMOOTH",
"10 57.667 OFFCURVE",
"12.333 44.333 OFFCURVE",
"17 33 CURVE SMOOTH",
"37.667 -15 OFFCURVE",
"91.333 -39 OFFCURVE",
"178 -39 CURVE SMOOTH"
);
},
{
closed = 1;
nodes = (
"122.333 -8 OFFCURVE",
"91.667 7 OFFCURVE",
"77 37 CURVE SMOOTH",
"58.07 74.859 OFFCURVE",
"79.703 131 OFFCURVE",
"135.5 131 CURVE SMOOTH",
"155.833 131 OFFCURVE",
"176.333 127.333 OFFCURVE",
"197 120 CURVE SMOOTH",
"217.667 112.667 OFFCURVE",
"267 90.333 OFFCURVE",
"345 53 CURVE",
"291 12.333 OFFCURVE",
"232.333 -8 OFFCURVE",
"169 -8 CURVE SMOOTH"
);
},
{
closed = 1;
nodes = (
"676.667 -10 OFFCURVE",
"664.667 -9.333 OFFCURVE",
"652 -8 CURVE SMOOTH",
"565.333 0.667 OFFCURVE",
"484.333 20.667 OFFCURVE",
"409 52 CURVE",
"447 88 LINE",
"496.333 141.333 OFFCURVE",
"566.667 246.5 OFFCURVE",
"658 403.5 CURVE SMOOTH",
"749.333 560.5 OFFCURVE",
"812.667 663.333 OFFCURVE",
"848 712 CURVE",
"965.333 684.667 OFFCURVE",
"1024 639.667 OFFCURVE",
"1024 577 CURVE SMOOTH",
"1024 547.667 OFFCURVE",
"1009 516.333 OFFCURVE",
"979 483 CURVE SMOOTH",
"941.667 441.667 OFFCURVE",
"881.333 413.167 OFFCURVE",
"844 412.5 CURVE SMOOTH",
"800.601 411.725 OFFCURVE",
"752.963 418 OFFCURVE",
"719 418 CURVE SMOOTH",
"699.667 417.333 OFFCURVE",
"690 410.667 OFFCURVE",
"690 398 CURVE",
"701.101 373.022 OFFCURVE",
"797.624 361.859 OFFCURVE",
"876 325 CURVE SMOOTH",
"934 297 OFFCURVE",
"963 255.667 OFFCURVE",
"963 201 CURVE SMOOTH",
"963 148.333 OFFCURVE",
"934.667 99.333 OFFCURVE",
"878 54 CURVE SMOOTH",
"826 11.333 OFFCURVE",
"762.667 -10 OFFCURVE",
"688 -10 CURVE SMOOTH"
);
}
);
width = 1041;
}
);
note = B;
unicode = 0042;
},
{
glyphname = C;
lastChange = "2020-12-20 21:10:05 +0000";
layers = (
{
layerId = "1691882E-B915-4755-A5B2-757873D945FF";
paths = (
{
closed = 1;
nodes = (
"281 589 OFFCURVE",
"341 650 OFFCURVE",
"413 692 CURVE SMOOTH",
"470.333 724.667 OFFCURVE",
"527.333 741 OFFCURVE",
"584 741 CURVE SMOOTH",
"640.667 741 OFFCURVE",
"690 732 OFFCURVE",
"727 704 CURVE SMOOTH",
"793 655 OFFCURVE",
"821 615 OFFCURVE",
"807 557 CURVE SMOOTH",
"797 516 OFFCURVE",
"755 492 OFFCURVE",
"704 455 CURVE SMOOTH",
"687 443 OFFCURVE",
"698 437 OFFCURVE",
"719 449 CURVE SMOOTH",
"794 492 OFFCURVE",
"835 542 OFFCURVE",
"842 575 CURVE SMOOTH",
"852 620 OFFCURVE",
"842 639 OFFCURVE",
"829 658 CURVE SMOOTH",
"786 721 OFFCURVE",
"723.667 764.667 OFFCURVE",
"621 776 CURVE SMOOTH",
"602.333 778 OFFCURVE",
"584.333 779 OFFCURVE",
"567 779 CURVE SMOOTH",
"506.333 779 OFFCURVE",
"448.333 767 OFFCURVE",
"393 743 CURVE SMOOTH",
"321 711.667 OFFCURVE",
"255 664 OFFCURVE",
"205 593 CURVE SMOOTH",
"181 559 LINE SMOOTH",
"129 485 OFFCURVE",
"81 387.667 OFFCURVE",
"69 309 CURVE SMOOTH",
"57.906 236.273 OFFCURVE",
"58.216 191.379 OFFCURVE",
"64 148 CURVE SMOOTH",
"76 54.667 OFFCURVE",
"134.167 -29.833 OFFCURVE",
"229.5 -70.5 CURVE SMOOTH",
"277.167 -90.833 OFFCURVE",
"327 -101 OFFCURVE",
"379 -101 CURVE SMOOTH",
"465.667 -101 OFFCURVE",
"546.333 -75 OFFCURVE",
"621 -23 CURVE SMOOTH",
"696 29 OFFCURVE",
"729 80 OFFCURVE",
"780 183 CURVE SMOOTH",
"789.333 203 OFFCURVE",
"776 210.333 OFFCURVE",
"768 193 CURVE SMOOTH",
"717 89 OFFCURVE",
"683 38 OFFCURVE",
"604 -9 CURVE SMOOTH",
"538.667 -47.667 OFFCURVE",
"459.667 -67 OFFCURVE",
"367 -67 CURVE SMOOTH",
"309.667 -67 OFFCURVE",
"218.667 -46.833 OFFCURVE",
"172 12.5 CURVE SMOOTH",
"148.667 42.167 OFFCURVE",
"134.667 75.333 OFFCURVE",
"130 112 CURVE SMOOTH",
"124.61 153.773 OFFCURVE",
"125.042 190.697 OFFCURVE",
"130 244 CURVE SMOOTH",
"135.333 301.333 OFFCURVE",
"178 435 OFFCURVE",
"209 481 CURVE SMOOTH"
);
}
);
width = 710;
}
);
note = C;
unicode = 0043;
},
{
glyphname = D;
lastChange = "2020-12-20 20:29:43 +0000";
layers = (
{
layerId = "1691882E-B915-4755-A5B2-757873D945FF";
paths = (
{
closed = 1;
nodes = (
"244.333 -39 OFFCURVE",
"313 -14 OFFCURVE",
"375 36 CURVE",
"455.667 -10.667 OFFCURVE",
"553.333 -34 OFFCURVE",
"668 -34 CURVE SMOOTH",
"724.667 -34 OFFCURVE",
"782 -23.667 OFFCURVE",
"840 -3 CURVE SMOOTH",
"888.667 14.333 OFFCURVE",
"930 44 OFFCURVE",
"964 86 CURVE SMOOTH",
"1005.333 137.333 OFFCURVE",
"1026 206.333 OFFCURVE",
"1026 293 CURVE SMOOTH",
"1026 363 OFFCURVE",
"1011 427.667 OFFCURVE",
"981 487 CURVE SMOOTH",
"943.667 561 OFFCURVE",
"889.333 621.667 OFFCURVE",
"818 669 CURVE",
"840.667 710.333 OFFCURVE",
"883.333 772 OFFCURVE",
"906 772 CURVE SMOOTH",
"918.98 772 OFFCURVE",
"914.98 789.051 OFFCURVE",
"900 786 CURVE",
"873.333 786 OFFCURVE",
"827 754 OFFCURVE",
"775 694 CURVE",
"691 738 OFFCURVE",
"602.667 760 OFFCURVE",
"510 760 CURVE SMOOTH",
"481.333 760 OFFCURVE",
"452.333 758 OFFCURVE",
"423 754 CURVE SMOOTH",
"273.667 732 OFFCURVE",
"169.667 681.667 OFFCURVE",
"111 603 CURVE SMOOTH",
"83.667 567 OFFCURVE",
"70 530.667 OFFCURVE",
"70 494 CURVE SMOOTH",
"70 476 OFFCURVE",
"73.333 458 OFFCURVE",
"80 440 CURVE SMOOTH",
"96 392.667 OFFCURVE",
"129.333 360.333 OFFCURVE",
"180 343 CURVE",
"232 334 LINE",
"259.333 334 OFFCURVE",
"286.667 341.333 OFFCURVE",
"314 356 CURVE SMOOTH",
"358.667 381.333 OFFCURVE",
"384.333 418.333 OFFCURVE",
"391 467 CURVE SMOOTH",
"393.667 484.333 OFFCURVE",
"372.333 488 OFFCURVE",
"371 476 CURVE SMOOTH",
"369 450.667 OFFCURVE",
"353.333 423.333 OFFCURVE",
"324 394 CURVE SMOOTH",
"284.373 356.096 OFFCURVE",
"235.502 354.749 OFFCURVE",
"190 367 CURVE SMOOTH",
"141.333 382.333 OFFCURVE",
"117 415.333 OFFCURVE",
"117 466 CURVE SMOOTH",
"117 503.333 OFFCURVE",
"133.667 542.667 OFFCURVE",
"167 584 CURVE SMOOTH",
"221 652 OFFCURVE",
"299.667 697 OFFCURVE",
"403 719 CURVE SMOOTH",
"439 726.333 OFFCURVE",
"474.333 730 OFFCURVE",
"509 730 CURVE SMOOTH",
"593 730 OFFCURVE",
"672.333 707.667 OFFCURVE",
"747 663 CURVE",
"677.667 585.667 OFFCURVE",
"602.167 453.833 OFFCURVE",
"553.5 354.5 CURVE SMOOTH",
"504.833 255.167 OFFCURVE",
"433.667 136 OFFCURVE",
"367 72 CURVE",
"293 111.333 OFFCURVE",
"241.5 136.167 OFFCURVE",
"212.5 146.5 CURVE SMOOTH",
"183.5 156.833 OFFCURVE",
"154.667 162 OFFCURVE",
"126 162 CURVE SMOOTH",
"83.333 162 OFFCURVE",
"50 148.333 OFFCURVE",
"26 121 CURVE SMOOTH",
"10.667 103.667 OFFCURVE",
"3 87.5 OFFCURVE",
"3 72.5 CURVE SMOOTH",
"3 57.5 OFFCURVE",
"5.333 44.333 OFFCURVE",
"10 33 CURVE SMOOTH",
"30 -15 OFFCURVE",
"83 -39 OFFCURVE",
"169 -39 CURVE SMOOTH"
);
},
{
closed = 1;
nodes = (
"118.667 -8 OFFCURVE",
"90 6.333 OFFCURVE",
"76 35 CURVE SMOOTH",
"58.043 70.914 OFFCURVE",
"78.181 130 OFFCURVE",
"132.5 130 CURVE SMOOTH",
"152.167 130 OFFCURVE",
"172.333 126.333 OFFCURVE",
"193 119 CURVE SMOOTH",
"213.667 111.667 OFFCURVE",
"263 89.333 OFFCURVE",
"341 52 CURVE",
"285.667 12 OFFCURVE",
"226 -8 OFFCURVE",
"162 -8 CURVE SMOOTH"
);
},
{
closed = 1;
nodes = (
"545.333 -6 OFFCURVE",
"466.333 14 OFFCURVE",
"399 54 CURVE",
"413 66 OFFCURVE",
"431 83.833 OFFCURVE",
"453 107.5 CURVE SMOOTH",
"475 131.167 OFFCURVE",
"505 171.333 OFFCURVE",
"543 228 CURVE SMOOTH",
"636.76 367.818 OFFCURVE",
"729.707 531.235 OFFCURVE",
"794 631 CURVE",
"852.667 585 OFFCURVE",
"897 527.667 OFFCURVE",
"927 459 CURVE SMOOTH",
"951 405 OFFCURVE",
"963 347.333 OFFCURVE",
"963 286 CURVE SMOOTH",
"963 200 OFFCURVE",
"938 132.667 OFFCURVE",
"888 84 CURVE SMOOTH",
"825.333 24 OFFCURVE",
"741.333 -6 OFFCURVE",
"636 -6 CURVE SMOOTH"
);
}
);
width = 1014;
}
);
note = D;
unicode = 0044;
},
{
glyphname = Eth;
lastChange = "2020-12-20 20:29:43 +0000";
layers = (
{
layerId = "1691882E-B915-4755-A5B2-757873D945FF";
paths = (
{
closed = 1;
nodes = (
"244.333 -39 OFFCURVE",
"313 -14 OFFCURVE",
"375 36 CURVE",
"453 1.333 OFFCURVE",
"543.333 -22.333 OFFCURVE",
"646 -35 CURVE SMOOTH",
"662 -37 OFFCURVE",
"678 -38 OFFCURVE",
"694 -38 CURVE SMOOTH",
"736.667 -38 OFFCURVE",
"778.333 -30.667 OFFCURVE",
"819 -16 CURVE SMOOTH",
"874.333 4 OFFCURVE",
"920.667 36.667 OFFCURVE",
"958 82 CURVE SMOOTH",
"1003.333 136 OFFCURVE",
"1026 206.333 OFFCURVE",
"1026 293 CURVE SMOOTH",
"1026 363 OFFCURVE",
"1011 427.667 OFFCURVE",
"981 487 CURVE SMOOTH",
"943.667 561 OFFCURVE",
"889.333 621.667 OFFCURVE",
"818 669 CURVE",
"865 737 LINE",
"892.95 762.692 OFFCURVE",
"929.026 791.198 OFFCURVE",
"905 785 CURVE",
"892.333 785 OFFCURVE",
"871.667 775 OFFCURVE",
"843 755 CURVE SMOOTH",
"823.667 741.667 OFFCURVE",
"809.333 731 OFFCURVE",
"800 723 CURVE",
"775 694 LINE",
"691 738 OFFCURVE",
"602.667 760 OFFCURVE",
"510 760 CURVE SMOOTH",
"481.333 760 OFFCURVE",
"452.333 758 OFFCURVE",
"423 754 CURVE SMOOTH",
"273.667 732 OFFCURVE",
"169.667 681.667 OFFCURVE",
"111 603 CURVE SMOOTH",
"83.667 567 OFFCURVE",
"70 530.667 OFFCURVE",
"70 494 CURVE SMOOTH",
"70 476 OFFCURVE",
"73.333 458 OFFCURVE",
"80 440 CURVE SMOOTH",
"96 392.667 OFFCURVE",
"129.333 360.333 OFFCURVE",
"180 343 CURVE",
"232 334 LINE",
"259.333 334 OFFCURVE",
"286.667 341.333 OFFCURVE",
"314 356 CURVE SMOOTH",
"358.667 381.333 OFFCURVE",
"384.333 418.333 OFFCURVE",
"391 467 CURVE SMOOTH",
"393.667 484.333 OFFCURVE",
"372.333 488 OFFCURVE",
"371 476 CURVE SMOOTH",
"369 450.667 OFFCURVE",
"353.333 423.333 OFFCURVE",
"324 394 CURVE SMOOTH",
"284.373 356.096 OFFCURVE",
"235.502 354.749 OFFCURVE",
"190 367 CURVE SMOOTH",
"141.333 382.333 OFFCURVE",
"117 415.333 OFFCURVE",
"117 466 CURVE SMOOTH",
"117 503.333 OFFCURVE",
"133.667 542.667 OFFCURVE",
"167 584 CURVE SMOOTH",
"221 652 OFFCURVE",
"299.667 697 OFFCURVE",
"403 719 CURVE SMOOTH",
"439 726.333 OFFCURVE",
"474.333 730 OFFCURVE",
"509 730 CURVE SMOOTH",
"593 730 OFFCURVE",
"672.333 707.667 OFFCURVE",
"747 663 CURVE",
"721 633 OFFCURVE",
"694.667 598 OFFCURVE",
"668 558 CURVE SMOOTH",
"648 530 OFFCURVE",
"576.667 402 OFFCURVE",
"534 318 CURVE",
"503.333 318.667 OFFCURVE",
"469 319 OFFCURVE",
"431 319 CURVE SMOOTH",
"406.711 319 OFFCURVE",
"412.507 268.358 OFFCURVE",
"431 271 CURVE SMOOTH",
"513 280 LINE",
"460.333 184.667 OFFCURVE",
"411.667 115.333 OFFCURVE",
"367 72 CURVE",
"293 111.333 OFFCURVE",
"241.5 136.167 OFFCURVE",
"212.5 146.5 CURVE SMOOTH",
"183.5 156.833 OFFCURVE",
"154.667 162 OFFCURVE",
"126 162 CURVE SMOOTH",
"83.333 162 OFFCURVE",
"50 148.333 OFFCURVE",
"26 121 CURVE SMOOTH",
"10.667 103.667 OFFCURVE",
"3 87.5 OFFCURVE",
"3 72.5 CURVE SMOOTH",
"3 57.5 OFFCURVE",
"5.333 44.333 OFFCURVE",
"10 33 CURVE SMOOTH",
"30 -15 OFFCURVE",
"83 -39 OFFCURVE",
"169 -39 CURVE SMOOTH"
);
},
{
closed = 1;
nodes = (
"118.667 -8 OFFCURVE",
"90 6.333 OFFCURVE",
"76 35 CURVE SMOOTH",
"58.043 70.914 OFFCURVE",
"78.181 130 OFFCURVE",
"132.5 130 CURVE SMOOTH",
"152.167 130 OFFCURVE",
"172.333 126.333 OFFCURVE",
"193 119 CURVE SMOOTH",
"213.667 111.667 OFFCURVE",
"263 89.333 OFFCURVE",
"341 52 CURVE",
"285.667 12 OFFCURVE",
"226 -8 OFFCURVE",
"162 -8 CURVE SMOOTH"
);
},
{
closed = 1;
nodes = (
"667.667 -10 OFFCURVE",
"656.333 -9.333 OFFCURVE",
"645 -8 CURVE SMOOTH",
"553.667 0.667 OFFCURVE",
"471.667 21.333 OFFCURVE",
"399 54 CURVE",
"449 96.667 OFFCURVE",
"509.667 174 OFFCURVE",
"581 286 CURVE",
"611.667 287.333 OFFCURVE",
"636.333 288 OFFCURVE",
"655 288 CURVE",
"665 289.333 OFFCURVE",
"670.667 294 OFFCURVE",
"672 302 CURVE",
"669.333 310 OFFCURVE",
"662.333 314.333 OFFCURVE",
"651 315 CURVE SMOOTH",
"601 316 LINE",
"616.333 340.667 OFFCURVE",
"646.333 390.167 OFFCURVE",
"691 464.5 CURVE SMOOTH",
"735.667 538.833 OFFCURVE",
"770 594.333 OFFCURVE",
"794 631 CURVE",
"852.667 585 OFFCURVE",
"897 527.667 OFFCURVE",
"927 459 CURVE SMOOTH",
"951 405 OFFCURVE",
"963 347.333 OFFCURVE",
"963 286 CURVE SMOOTH",
"963 270 OFFCURVE",
"962 253.667 OFFCURVE",
"960 237 CURVE SMOOTH",
"952 165 OFFCURVE",
"918.333 104 OFFCURVE",
"859 54 CURVE SMOOTH",
"807.667 11.333 OFFCURVE",
"747.667 -10 OFFCURVE",
"679 -10 CURVE SMOOTH"
);
}
);
width = 1027;
}
);
note = Eth;
unicode = 00D0;
},
{
glyphname = E;
lastChange = "2020-12-20 20:29:42 +0000";
layers = (
{
layerId = "1691882E-B915-4755-A5B2-757873D945FF";
paths = (
{
closed = 1;
nodes = (
"268.869 -63.709 OFFCURVE",
"413.542 -65.208 OFFCURVE",
"565 -19 CURVE SMOOTH",
"722.333 29 OFFCURVE",
"838 120.333 OFFCURVE",
"838 195 CURVE SMOOTH",
"838 220.333 OFFCURVE",
"823 241 OFFCURVE",
"793 257 CURVE SMOOTH",
"778.333 265 OFFCURVE",
"747.333 268 OFFCURVE",
"750 256 CURVE SMOOTH",
"750.667 251.333 OFFCURVE",
"759 247.167 OFFCURVE",
"775 243.5 CURVE SMOOTH",
"791 239.833 OFFCURVE",
"799 230.333 OFFCURVE",
"799 215 CURVE SMOOTH",
"799 183 OFFCURVE",
"771.667 145.667 OFFCURVE",
"717 103 CURVE SMOOTH",
"621 28.333 OFFCURVE",
"466.5 -33 OFFCURVE",
"340.5 -33 CURVE SMOOTH",
"214.5 -33 OFFCURVE",
"142.167 4.167 OFFCURVE",
"113.5 55.5 CURVE SMOOTH",
"99.167 81.167 OFFCURVE",
"92 109.333 OFFCURVE",
"92 140 CURVE SMOOTH",
"92 205.333 OFFCURVE",
"121 262.667 OFFCURVE",
"179 312 CURVE SMOOTH",
"228.333 354.667 OFFCURVE",
"297 376 OFFCURVE",
"385 376 CURVE SMOOTH",
"492 375 LINE SMOOTH",
"520.667 375 OFFCURVE",
"535 382.667 OFFCURVE",
"535 398 CURVE SMOOTH",
"535 415.333 OFFCURVE",
"509.333 429.333 OFFCURVE",
"458 440 CURVE SMOOTH",
"412.667 450.667 OFFCURVE",
"362.833 463 OFFCURVE",
"339.5 495 CURVE SMOOTH",
"327.833 511 OFFCURVE",
"322 528.667 OFFCURVE",
"322 548 CURVE SMOOTH",
"322 596.667 OFFCURVE",
"347.333 641.667 OFFCURVE",
"398 683 CURVE SMOOTH",
"523.769 785.187 OFFCURVE",
"711.268 821.75 OFFCURVE",
"786 752 CURVE SMOOTH",
"802 738 OFFCURVE",
"810 722.667 OFFCURVE",
"810 706 CURVE SMOOTH",
"810 700 LINE",
"804.667 656.667 OFFCURVE",
"783.333 621.333 OFFCURVE",
"746 594 CURVE SMOOTH",
"727.333 580.667 OFFCURVE",
"708 572.833 OFFCURVE",
"688 570.5 CURVE SMOOTH",
"668 568.167 OFFCURVE",
"656.667 563 OFFCURVE",
"654 555 CURVE SMOOTH",
"653.333 551 OFFCURVE",
"656.833 549 OFFCURVE",
"664.5 549 CURVE SMOOTH",
"672.167 549 OFFCURVE",
"682 550.333 OFFCURVE",
"694 553 CURVE SMOOTH",
"791.333 574.333 OFFCURVE",
"870 637 OFFCURVE",
"870 697 CURVE SMOOTH",
"870 739.667 OFFCURVE",
"825.667 788.667 OFFCURVE",
"715 802 CURVE SMOOTH",
"701.667 803.333 OFFCURVE",
"688 804 OFFCURVE",
"674 804 CURVE SMOOTH",
"584.667 804 OFFCURVE",
"451 776.5 OFFCURVE",
"339 690.5 CURVE SMOOTH",
"283 647.5 OFFCURVE",
"252.667 599 OFFCURVE",
"248 545 CURVE SMOOTH",
"248 539 LINE SMOOTH",
"248 489.667 OFFCURVE",
"301.333 444 OFFCURVE",
"368 420 CURVE",
"304 417.333 OFFCURVE",
"216.667 395 OFFCURVE",
"146 347 CURVE SMOOTH",
"110.667 323 OFFCURVE",
"83.667 297 OFFCURVE",
"65 269 CURVE SMOOTH",
"20.661 202.491 OFFCURVE",
"11.815 142.494 OFFCURVE",
"30 94 CURVE SMOOTH",
"52.667 31.333 OFFCURVE",
"101.667 -11.667 OFFCURVE",
"177 -35 CURVE SMOOTH"
);
}
);
width = 815;
}
);
note = E;
unicode = 0045;
},
{
glyphname = F;
lastChange = "2020-12-20 20:29:42 +0000";
layers = (
{
layerId = "1691882E-B915-4755-A5B2-757873D945FF";
paths = (
{
closed = 1;
nodes = (
"468.333 -130 OFFCURVE",
"542 -112 OFFCURVE",
"608 -76 CURVE SMOOTH",
"666.667 -45.333 OFFCURVE",
"721.333 10.667 OFFCURVE",
"756 56 CURVE SMOOTH",
"797.333 110.667 OFFCURVE",
"838.667 194.667 OFFCURVE",
"880 308 CURVE",
"899.333 305.333 OFFCURVE",
"925 304 OFFCURVE",
"957 304 CURVE SMOOTH",
"1057 304 OFFCURVE",
"1106.667 311.333 OFFCURVE",
"1106 326 CURVE SMOOTH",
"1102.174 356.61 OFFCURVE",
"986.785 325.926 OFFCURVE",
"892 339 CURVE",
"914 394 LINE SMOOTH",
"953.333 490 OFFCURVE",
"990.333 557.667 OFFCURVE",
"1025 597 CURVE",
"1053 583 LINE SMOOTH",
"1104.094 557.453 OFFCURVE",
"1183.419 523.93 OFFCURVE",
"1246 513.5 CURVE SMOOTH",
"1264 510.5 OFFCURVE",
"1280.667 509 OFFCURVE",
"1296 509 CURVE SMOOTH",
"1311.333 509 OFFCURVE",
"1327.667 513.333 OFFCURVE",
"1345 522 CURVE SMOOTH",
"1373 536 OFFCURVE",
"1387 556.667 OFFCURVE",
"1387 584 CURVE SMOOTH",
"1387 592 LINE SMOOTH",
"1386.333 596.667 OFFCURVE",
"1384.167 597.833 OFFCURVE",
"1380.5 595.5 CURVE SMOOTH",
"1376.833 593.167 OFFCURVE",
"1372.667 587 OFFCURVE",
"1368 577 CURVE SMOOTH",
"1359.333 558.333 OFFCURVE",
"1340.333 547.333 OFFCURVE",
"1311 544 CURVE SMOOTH",
"1303 543.333 OFFCURVE",
"1291.333 543 OFFCURVE",
"1276 543 CURVE SMOOTH",
"1260.667 543 OFFCURVE",
"1240 546 OFFCURVE",
"1214 552 CURVE SMOOTH",
"1147.333 569.333 OFFCURVE",
"1089.333 590.333 OFFCURVE",
"1040 615 CURVE",
"1055.333 629.667 OFFCURVE",
"1070.333 637 OFFCURVE",
"1085 637 CURVE SMOOTH",
"1089.667 637 OFFCURVE",
"1094.667 636 OFFCURVE",
"1100 634 CURVE",
"1104 629.333 OFFCURVE",
"1107.667 626.667 OFFCURVE",
"1111 626 CURVE SMOOTH",
"1116.333 625.333 OFFCURVE",
"1118.667 628.667 OFFCURVE",
"1118 636 CURVE SMOOTH",
"1117.333 652.667 OFFCURVE",
"1104.667 661 OFFCURVE",
"1080 661 CURVE SMOOTH",
"1058 661 OFFCURVE",
"1036.667 649.667 OFFCURVE",
"1016 627 CURVE",
"936 677.667 OFFCURVE",
"846.667 716.333 OFFCURVE",
"748 743 CURVE SMOOTH",
"708.667 754.333 OFFCURVE",
"669.667 760 OFFCURVE",
"631 760 CURVE SMOOTH",
"473.667 760 OFFCURVE",
"349 643.667 OFFCURVE",
"349 525 CURVE SMOOTH",
"349 475.667 OFFCURVE",
"370.333 439 OFFCURVE",
"413 415 CURVE SMOOTH",
"435.667 401 OFFCURVE",
"458.667 394 OFFCURVE",
"482 394 CURVE SMOOTH",
"505.333 394 OFFCURVE",
"528 397.667 OFFCURVE",
"550 405 CURVE SMOOTH",
"601.333 422.333 OFFCURVE",
"634 454.667 OFFCURVE",
"648 502 CURVE SMOOTH",
"650 507.333 OFFCURVE",
"651 512 OFFCURVE",
"651 516 CURVE SMOOTH",
"651 529.462 OFFCURVE",
"632 520.13 OFFCURVE",
"632 498 CURVE SMOOTH",
"632 476.667 OFFCURVE",
"583.333 433.667 OFFCURVE",
"522 419 CURVE SMOOTH",
"513.333 417 OFFCURVE",
"504.667 416 OFFCURVE",
"496 416 CURVE SMOOTH",
"472.667 416 OFFCURVE",
"448 423.333 OFFCURVE",
"422 438 CURVE SMOOTH",
"402.667 450 OFFCURVE",
"393 469.333 OFFCURVE",
"393 496 CURVE SMOOTH",
"393 547.333 OFFCURVE",
"419.333 595.333 OFFCURVE",
"472 640 CURVE SMOOTH",
"527.333 686.667 OFFCURVE",
"596 710 OFFCURVE",
"678 710 CURVE SMOOTH",
"760 710 OFFCURVE",
"868.333 676.667 OFFCURVE",
"1003 610 CURVE",
"977.667 580.667 OFFCURVE",
"899.333 449.333 OFFCURVE",
"858 348 CURVE",
"772.745 359.452 OFFCURVE",
"724.92 363.783 OFFCURVE",
"672 336 CURVE SMOOTH",
"645.333 322 OFFCURVE",
"624.667 299 OFFCURVE",
"610 267 CURVE SMOOTH",
"604.667 255 OFFCURVE",
"614 243.333 OFFCURVE",
"626 258 CURVE",
"650.667 294 OFFCURVE",
"702 312 OFFCURVE",
"780 312 CURVE SMOOTH",
"844 311 LINE",
"794 195.667 OFFCURVE",
"730.667 101.667 OFFCURVE",
"654 29 CURVE SMOOTH",
"535.793 -83.196 OFFCURVE",
"388.203 -107.166 OFFCURVE",
"256 -60 CURVE SMOOTH",
"170 -26.667 OFFCURVE",
"113.333 25.333 OFFCURVE",
"86 96 CURVE SMOOTH",
"76 122 OFFCURVE",
"71 146 OFFCURVE",
"71 168 CURVE SMOOTH",
"71 190 OFFCURVE",
"72.667 209.333 OFFCURVE",
"76 226 CURVE SMOOTH",
"84 272 OFFCURVE",
"109.667 310.667 OFFCURVE",
"153 342 CURVE SMOOTH",
"185.622 364.736 OFFCURVE",
"203.917 377.407 OFFCURVE",
"167 366.5 CURVE SMOOTH",
"137.667 357.833 OFFCURVE",
"84 314.667 OFFCURVE",
"68 264 CURVE SMOOTH",
"56.667 225.333 OFFCURVE",
"51 189 OFFCURVE",
"51 155 CURVE SMOOTH",
"51 54.333 OFFCURVE",
"94 -22.667 OFFCURVE",
"180 -76 CURVE SMOOTH",
"236.667 -112 OFFCURVE",
"305.667 -130 OFFCURVE",
"387 -130 CURVE SMOOTH"
);
}
);
width = 1048;
}
);
note = F;
unicode = 0046;
},
{
glyphname = G;
lastChange = "2020-12-20 20:29:43 +0000";
layers = (
{
layerId = "1691882E-B915-4755-A5B2-757873D945FF";
paths = (
{
closed = 1;
nodes = (
"112.667 -374 OFFCURVE",
"142.667 -369.333 OFFCURVE",
"178 -360 CURVE SMOOTH",
"306 -326.667 OFFCURVE",
"456.667 -229.333 OFFCURVE",
"538 -112 CURVE",
"564 -112 LINE SMOOTH",
"650.667 -112 OFFCURVE",
"717 -118 OFFCURVE",
"763 -130 CURVE SMOOTH",
"782.333 -134.667 OFFCURVE",
"792 -133.333 OFFCURVE",
"792 -126 CURVE SMOOTH",
"792 -120 OFFCURVE",
"785 -115.333 OFFCURVE",
"771 -112 CURVE SMOOTH",
"705 -95.333 OFFCURVE",
"632 -86.667 OFFCURVE",
"552 -86 CURVE",
"632 46 OFFCURVE",
"674.667 140 OFFCURVE",
"688 244 CURVE SMOOTH",
"689.333 252 OFFCURVE",
"688.667 259.333 OFFCURVE",
"686 266 CURVE SMOOTH",
"680.667 283.333 OFFCURVE",
"670.333 292 OFFCURVE",
"655 292 CURVE SMOOTH",
"624.333 292 OFFCURVE",
"595.667 261 OFFCURVE",
"569 199 CURVE SMOOTH",
"549 152.333 OFFCURVE",
"464 94.333 OFFCURVE",
"368 69 CURVE SMOOTH",
"344 63 OFFCURVE",
"320.167 60 OFFCURVE",
"296.5 60 CURVE SMOOTH",
"272.833 60 OFFCURVE",
"249.667 63 OFFCURVE",
"227 69 CURVE SMOOTH",
"149.667 94.333 OFFCURVE",
"111 163.333 OFFCURVE",
"111 276 CURVE SMOOTH",
"111 330.667 OFFCURVE",
"127 392.667 OFFCURVE",
"159 462 CURVE",
"227.667 416 OFFCURVE",
"316 393 OFFCURVE",
"424 393 CURVE SMOOTH",
"475.333 393 OFFCURVE",
"525.667 400 OFFCURVE",
"575 414 CURVE SMOOTH",
"668.333 440 OFFCURVE",
"733.667 485.333 OFFCURVE",
"771 550 CURVE SMOOTH",
"787.667 580 OFFCURVE",
"796 608.167 OFFCURVE",
"796 634.5 CURVE SMOOTH",
"796 660.833 OFFCURVE",
"790 685.333 OFFCURVE",
"778 708 CURVE SMOOTH",
"748 765.333 OFFCURVE",
"690 800.667 OFFCURVE",
"604 814 CURVE SMOOTH",
"586 816.667 OFFCURVE",
"568 818 OFFCURVE",
"550 818 CURVE SMOOTH",
"484.667 818 OFFCURVE",
"417 800 OFFCURVE",
"347 764 CURVE SMOOTH",
"257.667 718.667 OFFCURVE",
"187 653.333 OFFCURVE",
"135 568 CURVE SMOOTH",
"124.333 550.667 OFFCURVE",
"117 537.667 OFFCURVE",
"113 529 CURVE",
"78.333 569.667 OFFCURVE",
"61 613.333 OFFCURVE",
"61 660 CURVE SMOOTH",
"61 700.667 OFFCURVE",
"76 741 OFFCURVE",
"106 781 CURVE SMOOTH",
"119.333 799.667 OFFCURVE",
"109 806.333 OFFCURVE",
"93 789 CURVE SMOOTH",
"51.667 743 OFFCURVE",
"31 694.5 OFFCURVE",
"31 643.5 CURVE SMOOTH",
"31 592.5 OFFCURVE",
"53 544.333 OFFCURVE",
"97 499 CURVE",
"63 425 OFFCURVE",
"46 355.667 OFFCURVE",
"46 291 CURVE SMOOTH",
"46 226.333 OFFCURVE",
"60.333 170.667 OFFCURVE",
"89 124 CURVE SMOOTH",
"115.667 80 OFFCURVE",
"150.333 50.667 OFFCURVE",
"193 36 CURVE SMOOTH",
"216.333 27.333 OFFCURVE",
"243.5 23 OFFCURVE",
"274.5 23 CURVE SMOOTH",
"305.5 23 OFFCURVE",
"345 30.667 OFFCURVE",
"393 46 CURVE SMOOTH",
"453 64.667 OFFCURVE",
"543 115.667 OFFCURVE",
"607 177 CURVE",
"603 160 LINE SMOOTH",
"585 79.333 OFFCURVE",
"551.333 -2.667 OFFCURVE",
"502 -86 CURVE",
"342 -88.667 OFFCURVE",
"218 -103 OFFCURVE",
"102 -155 CURVE SMOOTH",
"25.333 -189 OFFCURVE",
"-22 -226 OFFCURVE",
"-40 -266 CURVE SMOOTH",
"-44.667 -276 OFFCURVE",
"-47 -285.333 OFFCURVE",
"-47 -294 CURVE SMOOTH",
"-47 -323.333 OFFCURVE",
"-22.667 -347 OFFCURVE",
"26 -365 CURVE SMOOTH",
"42.667 -371 OFFCURVE",
"63.333 -374 OFFCURVE",
"88 -374 CURVE SMOOTH"
);
},
{
closed = 1;
nodes = (
"74.333 -343 OFFCURVE",
"62.667 -341.667 OFFCURVE",
"52 -339 CURVE SMOOTH",
"20 -332.333 OFFCURVE",
"4 -319.667 OFFCURVE",
"4 -301 CURVE SMOOTH",
"4 -276.333 OFFCURVE",
"31 -246.667 OFFCURVE",
"85 -212 CURVE SMOOTH",
"153.667 -168 OFFCURVE",
"226 -140.333 OFFCURVE",
"302 -129 CURVE SMOOTH",
"354.667 -120.333 OFFCURVE",
"416 -115 OFFCURVE",
"486 -113 CURVE",
"432 -190.333 OFFCURVE",
"359 -250 OFFCURVE",
"267 -292 CURVE SMOOTH",
"194.333 -326 OFFCURVE",
"134.333 -343 OFFCURVE",
"87 -343 CURVE SMOOTH"
);
},
{
closed = 1;
nodes = (
"329.667 422 OFFCURVE",
"234.667 440 OFFCURVE",
"172 488 CURVE",
"224 592.667 OFFCURVE",
"297 673 OFFCURVE",
"391 729 CURVE SMOOTH",
"455 767.667 OFFCURVE",
"515.667 787 OFFCURVE",
"573 787 CURVE SMOOTH",
"598.333 787 OFFCURVE",
"623.667 783 OFFCURVE",
"649 775 CURVE SMOOTH",
"717.667 753.667 OFFCURVE",
"752 712.333 OFFCURVE",
"752 651 CURVE SMOOTH",
"752 612.333 OFFCURVE",
"734 573.667 OFFCURVE",
"698 535 CURVE SMOOTH",
"626 459.667 OFFCURVE",
"519.667 422 OFFCURVE",
"379 422 CURVE SMOOTH"
);
}
);
width = 699;
}
);
note = G;
unicode = 0047;
},
{
glyphname = H;
lastChange = "2020-12-20 20:29:42 +0000";
layers = (
{
layerId = "1691882E-B915-4755-A5B2-757873D945FF";
paths = (
{
closed = 1;
nodes = (
"413 -171 OFFCURVE",
"493 -150 OFFCURVE",
"569 -108 CURVE SMOOTH",
"625.667 -76 OFFCURVE",
"675.333 -36.333 OFFCURVE",
"718 11 CURVE SMOOTH",
"805.333 107 OFFCURVE",
"869.333 215.667 OFFCURVE",
"910 337 CURVE",
"1107.333 328.333 OFFCURVE",
"1220.333 324 OFFCURVE",
"1249 324 CURVE",
"1247.291 318.873 OFFCURVE",
"1236.035 292.006 OFFCURVE",
"1215.5 230.5 CURVE SMOOTH",
"1206.833 203.167 OFFCURVE",
"1187 139.833 OFFCURVE",
"1183 104.5 CURVE SMOOTH",
"1177.752 58.139 OFFCURVE",
"1174.231 24.539 OFFCURVE",
"1188 -3 CURVE SMOOTH",
"1200 -28.333 OFFCURVE",
"1221.333 -41 OFFCURVE",
"1252 -41 CURVE SMOOTH",
"1279.333 -41 OFFCURVE",
"1306.667 -28 OFFCURVE",
"1334 -2 CURVE SMOOTH",
"1375.333 39.333 OFFCURVE",
"1401.667 76.667 OFFCURVE",
"1451 182 CURVE SMOOTH",
"1461.667 206 OFFCURVE",
"1446.667 211.667 OFFCURVE",
"1436 189 CURVE SMOOTH",
"1390.667 96.333 OFFCURVE",
"1349 36 OFFCURVE",
"1311 8 CURVE SMOOTH",
"1271.904 -19.597 OFFCURVE",
"1241 2.28 OFFCURVE",
"1241 59 CURVE SMOOTH",
"1241 100.333 OFFCURVE",
"1257.667 172.667 OFFCURVE",
"1291 276 CURVE SMOOTH",
"1307 324 LINE",
"1349.667 326.667 OFFCURVE",
"1382 335.667 OFFCURVE",
"1404 351 CURVE SMOOTH",
"1434.551 372.15 OFFCURVE",
"1396.582 365.621 OFFCURVE",
"1316 356 CURVE",
"1364 497.333 OFFCURVE",
"1437.5 636.667 OFFCURVE",
"1479.5 698 CURVE SMOOTH",
"1506.102 736.847 OFFCURVE",
"1537 754.25 OFFCURVE",
"1537 760 CURVE SMOOTH",
"1537 765.682 OFFCURVE",
"1514.888 763.314 OFFCURVE",
"1481.5 751.5 CURVE SMOOTH",
"1459.833 743.833 OFFCURVE",
"1436.667 721.5 OFFCURVE",
"1412 684.5 CURVE SMOOTH",
"1362.667 610.5 OFFCURVE",
"1284.667 432.333 OFFCURVE",
"1258 355 CURVE",
"1240 355 OFFCURVE",
"1191.5 357.833 OFFCURVE",
"1112.5 363.5 CURVE SMOOTH",
"1033.5 369.167 OFFCURVE",
"969 372 OFFCURVE",
"919 372 CURVE",
"971.5 512.5 LINE SMOOTH",
"1004.5 601.5 OFFCURVE",
"1030 663.333 OFFCURVE",
"1048 698 CURVE",
"1096 698 OFFCURVE",
"1166 729.5 OFFCURVE",
"1166 771.5 CURVE SMOOTH",
"1166 792.5 OFFCURVE",
"1153.667 803 OFFCURVE",
"1129 803 CURVE SMOOTH",
"1111.31 803 OFFCURVE",
"1090.925 797.575 OFFCURVE",
"1065.5 766.5 CURVE SMOOTH",
"1050.5 748.167 OFFCURVE",
"1039.333 732.667 OFFCURVE",
"1032 720 CURVE",
"980.097 714.631 OFFCURVE",
"906.631 713.224 OFFCURVE",
"840.5 707 CURVE SMOOTH",
"812.167 704.333 OFFCURVE",
"778.833 700.333 OFFCURVE",
"740.5 695 CURVE SMOOTH",
"663.833 684.333 OFFCURVE",
"613 663.167 OFFCURVE",
"557 630.5 CURVE SMOOTH",
"501 597.833 OFFCURVE",
"462.167 538.833 OFFCURVE",
"449.5 487.5 CURVE SMOOTH",
"436.692 435.593 OFFCURVE",
"435.193 398.915 OFFCURVE",
"456 356 CURVE SMOOTH",
"472.667 319.333 OFFCURVE",
"498.667 293.333 OFFCURVE",
"534 278 CURVE SMOOTH",
"552.667 270 OFFCURVE",
"571.333 266 OFFCURVE",
"590 266 CURVE SMOOTH",
"608.667 266 OFFCURVE",
"627.333 269.333 OFFCURVE",
"646 276 CURVE SMOOTH",
"684.667 290 OFFCURVE",
"715.333 317.667 OFFCURVE",
"738 359 CURVE SMOOTH",
"751.333 382.333 OFFCURVE",
"758 404 OFFCURVE",
"758 424 CURVE SMOOTH",
"758 444 OFFCURVE",
"754 462.667 OFFCURVE",
"746 480 CURVE SMOOTH",
"742.667 486 OFFCURVE",
"738.667 488.667 OFFCURVE",
"734 488 CURVE SMOOTH",
"719.86 485.172 OFFCURVE",
"737 471.839 OFFCURVE",
"737 448.5 CURVE SMOOTH",
"737 436.167 OFFCURVE",
"731.333 414.667 OFFCURVE",
"720 384 CURVE SMOOTH",
"696 318.667 OFFCURVE",
"655.667 286 OFFCURVE",
"599 286 CURVE SMOOTH",
"541.667 286 OFFCURVE",
"504 342 OFFCURVE",
"504 390 CURVE SMOOTH",
"504 414 OFFCURVE",
"507.333 436.667 OFFCURVE",
"514 458 CURVE SMOOTH",
"530 510 OFFCURVE",
"557 554 OFFCURVE",
"595 590 CURVE SMOOTH",
"627 619.333 OFFCURVE",
"680.333 642.833 OFFCURVE",
"719 655.5 CURVE SMOOTH",
"738.333 661.833 OFFCURVE",
"762.667 667.333 OFFCURVE",
"792 672 CURVE SMOOTH",
"850.667 681.333 OFFCURVE",
"880 683.667 OFFCURVE",
"944 689 CURVE SMOOTH",
"976 691.667 OFFCURVE",
"1000.667 694 OFFCURVE",
"1018 696 CURVE",
"963.333 586.667 OFFCURVE",
"914.667 478.667 OFFCURVE",
"872 372 CURVE",
"833 372 LINE",
"809 369.333 OFFCURVE",
"767 344.667 OFFCURVE",
"767 322 CURVE",
"770.365 301.81 OFFCURVE",
"810.43 339 OFFCURVE",
"858 339 CURVE",
"766 97 OFFCURVE",
"607 -49.333 OFFCURVE",
"381 -100 CURVE SMOOTH",
"357 -105.333 OFFCURVE",
"331.333 -108 OFFCURVE",
"304 -108 CURVE SMOOTH",
"241.333 -108 OFFCURVE",
"186.667 -96.333 OFFCURVE",
"140 -73 CURVE SMOOTH",
"62.667 -33.667 OFFCURVE",
"24 26 OFFCURVE",
"24 106 CURVE SMOOTH",
"24 157.333 OFFCURVE",
"38 202.333 OFFCURVE",
"66 241 CURVE SMOOTH",
"87.333 270.333 OFFCURVE",
"108 289.333 OFFCURVE",
"128 298 CURVE SMOOTH",
"144.388 304.414 OFFCURVE",
"139.18 317.752 OFFCURVE",
"126 312 CURVE",
"90 310.667 OFFCURVE",
"20 246.333 OFFCURVE",
"4 185 CURVE SMOOTH",
"-26.667 65 OFFCURVE",
"10.667 -38.5 OFFCURVE",
"88 -96.5 CURVE SMOOTH",
"165.333 -154.5 OFFCURVE",
"258.333 -171 OFFCURVE",
"329 -171 CURVE SMOOTH"
);
},
{
closed = 1;
nodes = (
"1091.333 755.667 OFFCURVE",
"1108 772 OFFCURVE",
"1116 772 CURVE SMOOTH",
"1117.333 772 OFFCURVE",
"1118.333 771.667 OFFCURVE",
"1119 771 CURVE",
"1125.667 769.667 OFFCURVE",
"1129.333 765.333 OFFCURVE",
"1130 758 CURVE SMOOTH",
"1130.667 741.333 OFFCURVE",
"1109.333 729.667 OFFCURVE",
"1066 723 CURVE"
);
}
);
width = 1381;
}
);
note = H;
unicode = 0048;
},
{
glyphname = I;
lastChange = "2020-12-20 21:28:20 +0000";
layers = (
{
layerId = "1691882E-B915-4755-A5B2-757873D945FF";
paths = (
{
closed = 1;
nodes = (
"692 -7 LINE",
"701 1 LINE",
"697 7 LINE",
"623 51 OFFCURVE",
"532 93 OFFCURVE",
"432 118 CURVE",
"453 152 LINE SMOOTH",
"469 178 OFFCURVE",
"499 221 OFFCURVE",
"529 279 CURVE",
"546 321 OFFCURVE",
"586 417 OFFCURVE",
"600 453 CURVE SMOOTH",
"631 533 OFFCURVE",
"667 642 OFFCURVE",
"712 726 CURVE",
"754 735 LINE",
"775 742 OFFCURVE",
"792 750 OFFCURVE",
"807 759 CURVE SMOOTH",
"823 770 OFFCURVE",
"831 785 OFFCURVE",
"831 805 CURVE SMOOTH",
"830 824 OFFCURVE",
"819 833 OFFCURVE",
"797 833 CURVE SMOOTH",
"763 833 OFFCURVE",
"729 805 OFFCURVE",
"697 747 CURVE",
"355 689 OFFCURVE",
"165 574 OFFCURVE",
"127 403 CURVE SMOOTH",
"124 389 OFFCURVE",
"123 376 OFFCURVE",
"123 364 CURVE SMOOTH",
"123 285 OFFCURVE",
"195 239 OFFCURVE",
"244 239 CURVE SMOOTH",
"268 239 OFFCURVE",
"291 243 OFFCURVE",
"312 251 CURVE SMOOTH",
"355 267 OFFCURVE",
"387 296 OFFCURVE",
"410 339 CURVE SMOOTH",
"423 362 OFFCURVE",
"429 384 OFFCURVE",
"429 404 CURVE SMOOTH",
"429 423 OFFCURVE",
"425 441 OFFCURVE",
"416 458 CURVE SMOOTH",
"410 468 OFFCURVE",
"404 468 OFFCURVE",
"397 458 CURVE SMOOTH",
"394 454 OFFCURVE",
"394 451 OFFCURVE",
"395 449 CURVE",
"400 444 OFFCURVE",
"403 433 OFFCURVE",
"403 414 CURVE SMOOTH",
"403 377 OFFCURVE",
"392 344 OFFCURVE",
"371 317 CURVE SMOOTH",
"340 280 OFFCURVE",
"296 265 OFFCURVE",
"261 265 CURVE SMOOTH",
"225 265 OFFCURVE",
"188 303 OFFCURVE",
"188 359 CURVE SMOOTH",
"188 372 OFFCURVE",
"190 387 OFFCURVE",
"194 403 CURVE SMOOTH",
"207 459 OFFCURVE",
"235 509 OFFCURVE",
"279 554 CURVE SMOOTH",
"314 589 OFFCURVE",
"364 620 OFFCURVE",
"428 648 CURVE SMOOTH",
"491 675 OFFCURVE",
"575 699 OFFCURVE",
"681 721 CURVE",
"628 629 OFFCURVE",
"578 521 OFFCURVE",
"531 398 CURVE SMOOTH",
"517 359 OFFCURVE",
"490 301 OFFCURVE",
"469 261 CURVE SMOOTH",
"442 207 OFFCURVE",
"417 162 OFFCURVE",
"394 127 CURVE",
"366 132 OFFCURVE",
"335 135 OFFCURVE",
"300 135 CURVE SMOOTH",
"203 135 OFFCURVE",
"127 118 OFFCURVE",
"70 85 CURVE SMOOTH",
"20 56 OFFCURVE",
"-5 23 OFFCURVE",
"-5 -15 CURVE SMOOTH",
"-5 -53 OFFCURVE",
"14 -81 OFFCURVE",
"52 -100 CURVE SMOOTH",
"74 -111 OFFCURVE",
"99 -117 OFFCURVE",
"128 -117 CURVE SMOOTH",
"156 -117 OFFCURVE",
"188 -108 OFFCURVE",
"225 -90 CURVE SMOOTH",
"286 -61 OFFCURVE",
"347 4 OFFCURVE",
"404 83 CURVE",
"500 69 OFFCURVE",
"551 56 OFFCURVE",
"638 15 CURVE SMOOTH",
"647 11 OFFCURVE",
"672 -2 OFFCURVE",
"680 -5 CURVE"
);
},
{
closed = 1;
nodes = (
"16 -23 OFFCURVE",
"17 -17 OFFCURVE",
"20 -10 CURVE SMOOTH",
"33 27 OFFCURVE",
"78 55 OFFCURVE",
"155 75 CURVE SMOOTH",
"192 85 OFFCURVE",
"227 90 OFFCURVE",
"262 90 CURVE SMOOTH",
"297 90 OFFCURVE",
"330 86 OFFCURVE",
"363 79 CURVE",
"316 12 OFFCURVE",
"264 -35 OFFCURVE",
"209 -62 CURVE SMOOTH",
"172 -79 OFFCURVE",
"138 -88 OFFCURVE",
"107 -88 CURVE SMOOTH",
"62 -88 OFFCURVE",
"16 -64 OFFCURVE",
"16 -29 CURVE SMOOTH"
);
},
{
closed = 1;
nodes = (
"756 784 OFFCURVE",
"773 801 OFFCURVE",
"781 801 CURVE SMOOTH",
"788 801 OFFCURVE",
"793 797 OFFCURVE",
"794 789 CURVE SMOOTH",
"796 773 OFFCURVE",
"774 760 OFFCURVE",
"729 751 CURVE"
);
}
);
width = 706;
}
);
leftMetricsKey = L;
note = I;
unicode = 0049;
},
{
glyphname = J;
lastChange = "2020-12-20 20:29:42 +0000";
layers = (
{
layerId = "1691882E-B915-4755-A5B2-757873D945FF";
paths = (
{
closed = 1;
nodes = (
"280.333 -371 OFFCURVE",
"319 -368.667 OFFCURVE",
"353 -364 CURVE SMOOTH",
"501 -344 OFFCURVE",
"706 -228 OFFCURVE",
"814 -60 CURVE SMOOTH",
"894 65.333 OFFCURVE",
"963 226.667 OFFCURVE",
"999 340 CURVE SMOOTH",
"1046.333 490 OFFCURVE",
"1095.667 609.333 OFFCURVE",
"1147 698 CURVE",
"1190 706 LINE",
"1240.667 722 OFFCURVE",
"1269.667 738 OFFCURVE",
"1271 774 CURVE SMOOTH",
"1271 794 OFFCURVE",
"1259.333 804 OFFCURVE",
"1236 804 CURVE SMOOTH",
"1217.639 804 OFFCURVE",
"1197.196 797.596 OFFCURVE",
"1170 767 CURVE SMOOTH",
"1154 749 OFFCURVE",
"1142 733.333 OFFCURVE",
"1134 720 CURVE",
"1039.333 707.333 OFFCURVE",
"951.667 685.333 OFFCURVE",
"871 654 CURVE SMOOTH",
"771 615.333 OFFCURVE",
"691.667 570 OFFCURVE",
"633 494 CURVE SMOOTH",
"594.333 444.667 OFFCURVE",
"575 393 OFFCURVE",
"575 339 CURVE SMOOTH",
"575 296.333 OFFCURVE",
"590.333 262.333 OFFCURVE",
"621 237 CURVE SMOOTH",
"645 217.667 OFFCURVE",
"672 208 OFFCURVE",
"702 208 CURVE SMOOTH",
"720 208 OFFCURVE",
"739 211.333 OFFCURVE",
"759 218 CURVE SMOOTH",
"802.333 233.333 OFFCURVE",
"836.333 262 OFFCURVE",
"861 304 CURVE SMOOTH",
"875.667 329.333 OFFCURVE",
"883 351.833 OFFCURVE",
"883 371.5 CURVE SMOOTH",
"883 391.167 OFFCURVE",
"879.667 408.333 OFFCURVE",
"873 423 CURVE",
"865 431.667 OFFCURVE",
"857.333 434 OFFCURVE",
"850 430 CURVE SMOOTH",
"843.333 425.333 OFFCURVE",
"844 420.333 OFFCURVE",
"852 415 CURVE",
"856.667 409.667 OFFCURVE",
"859 399 OFFCURVE",
"859 383 CURVE SMOOTH",
"859 345 OFFCURVE",
"846.333 311.333 OFFCURVE",
"821 282 CURVE SMOOTH",
"789 246 OFFCURVE",
"745.333 233 OFFCURVE",
"712 233 CURVE SMOOTH",
"678.667 233 OFFCURVE",
"642 269.333 OFFCURVE",
"642 332 CURVE SMOOTH",
"642 390 OFFCURVE",
"664.333 444.333 OFFCURVE",
"709 495 CURVE SMOOTH",
"743.667 535 OFFCURVE",
"785.333 568 OFFCURVE",
"834 594 CURVE SMOOTH",
"930 645.333 OFFCURVE",
"1024.333 678.667 OFFCURVE",
"1117 694 CURVE",
"1063 608.667 OFFCURVE",
"1009.667 507.333 OFFCURVE",
"957 390 CURVE SMOOTH",
"915 291.333 OFFCURVE",
"874 204 OFFCURVE",
"834 128 CURVE SMOOTH",
"784.667 34.667 OFFCURVE",
"747.167 -21.667 OFFCURVE",
"682.5 -103 CURVE SMOOTH",
"650.167 -143.667 OFFCURVE",
"617.667 -177.833 OFFCURVE",
"585 -205.5 CURVE SMOOTH",
"519.667 -260.833 OFFCURVE",
"431.667 -312 OFFCURVE",
"341 -332 CURVE SMOOTH",
"320.333 -337.333 OFFCURVE",
"296.667 -340 OFFCURVE",
"270 -340 CURVE SMOOTH",
"243.333 -340 OFFCURVE",
"207.333 -335.667 OFFCURVE",
"162 -327 CURVE SMOOTH",
"100.667 -315 OFFCURVE",
"45 -280 OFFCURVE",
"9 -240 CURVE SMOOTH",
"-17 -210 OFFCURVE",
"-30 -170.667 OFFCURVE",
"-30 -122 CURVE SMOOTH",
"-30 -90 OFFCURVE",
"-18 -23.667 OFFCURVE",
"34 35 CURVE SMOOTH",
"60 64.333 OFFCURVE",
"83.667 83.333 OFFCURVE",
"105 92 CURVE SMOOTH",
"113 96 OFFCURVE",
"117.333 99.333 OFFCURVE",
"118 102 CURVE SMOOTH",
"118 105.333 OFFCURVE",
"114 106.667 OFFCURVE",
"106 106 CURVE SMOOTH",
"70 104.667 OFFCURVE",
"-10.667 40.333 OFFCURVE",
"-36 -21 CURVE SMOOTH",
"-54 -67 OFFCURVE",
"-63 -107 OFFCURVE",
"-63 -141 CURVE SMOOTH",
"-63 -175 OFFCURVE",
"-57 -204.667 OFFCURVE",
"-45 -230 CURVE SMOOTH",
"-18.333 -284.667 OFFCURVE",
"31 -324 OFFCURVE",
"103 -348 CURVE SMOOTH",
"149 -363.333 OFFCURVE",
"193.667 -371 OFFCURVE",
"237 -371 CURVE SMOOTH"
);
},
{
closed = 1;
nodes = (
"1173.842 731.842 OFFCURVE",
"1174.128 733.741 OFFCURVE",
"1201 760 CURVE",
"1206.064 763.798 OFFCURVE",
"1214.196 771.456 OFFCURVE",
"1221 772 CURVE SMOOTH",
"1227.667 772 OFFCURVE",
"1231.667 768 OFFCURVE",
"1233 760 CURVE SMOOTH",
"1233.667 743.333 OFFCURVE",
"1211 731 OFFCURVE",
"1165 723 CURVE"
);
}
);
width = 966;
}
);
note = J;
unicode = 004A;
},
{
glyphname = K;
lastChange = "2020-12-20 20:29:43 +0000";
layers = (
{
layerId = "1691882E-B915-4755-A5B2-757873D945FF";
paths = (
{
closed = 1;
nodes = (
"367.833 -171 OFFCURVE",
"393.667 -169.333 OFFCURVE",
"417 -166 CURVE SMOOTH",
"561 -144.667 OFFCURVE",
"678.667 -66.333 OFFCURVE",
"748 27 CURVE SMOOTH",
"817.333 120.333 OFFCURVE",
"882 256.333 OFFCURVE",
"918 367 CURVE SMOOTH",
"967.333 519 OFFCURVE",
"1011 629.333 OFFCURVE",
"1049 698 CURVE",
"1095 702.667 OFFCURVE",
"1128.667 714.667 OFFCURVE",
"1150 734 CURVE SMOOTH",
"1178.311 759.331 OFFCURVE",
"1171.73 803 OFFCURVE",
"1137.5 803 CURVE SMOOTH",
"1096.514 803 OFFCURVE",
"1071.79 783.024 OFFCURVE",
"1033 720 CURVE",
"1020.333 718.667 OFFCURVE",
"990.833 716.5 OFFCURVE",
"944.5 713.5 CURVE SMOOTH",
"898.167 710.5 OFFCURVE",
"857 707 OFFCURVE",
"821 703 CURVE SMOOTH",
"702.333 690.333 OFFCURVE",
"611.667 660.667 OFFCURVE",
"549 614 CURVE SMOOTH",
"481 564.667 OFFCURVE",
"447 503.667 OFFCURVE",
"447 431 CURVE SMOOTH",
"447 379.667 OFFCURVE",
"465 338 OFFCURVE",
"501 306 CURVE SMOOTH",
"527.667 282 OFFCURVE",
"557.667 270 OFFCURVE",
"591 270 CURVE SMOOTH",
"610.333 270 OFFCURVE",
"631 274 OFFCURVE",
"653 282 CURVE SMOOTH",
"689 295.333 OFFCURVE",
"717 323 OFFCURVE",
"737 365 CURVE SMOOTH",
"749.667 389.667 OFFCURVE",
"756 411.5 OFFCURVE",
"756 430.5 CURVE SMOOTH",
"756 449.5 OFFCURVE",
"753 466 OFFCURVE",
"747 480 CURVE SMOOTH",
"743 487.333 OFFCURVE",
"738.333 491.667 OFFCURVE",
"733 493 CURVE",
"726.343 493 OFFCURVE",
"732 471.876 OFFCURVE",
"732 444 CURVE SMOOTH",
"732 426 OFFCURVE",
"726.667 403.333 OFFCURVE",
"716 376 CURVE SMOOTH",
"694 319.333 OFFCURVE",
"655.667 291 OFFCURVE",
"601 291 CURVE SMOOTH",
"557.667 291 OFFCURVE",
"528.667 313.333 OFFCURVE",
"514 358 CURVE SMOOTH",
"508.667 374.667 OFFCURVE",
"506 391.667 OFFCURVE",
"506 409 CURVE SMOOTH",
"506 441.667 OFFCURVE",
"515.333 475.333 OFFCURVE",
"534 510 CURVE SMOOTH",
"572.667 582 OFFCURVE",
"637.667 630.667 OFFCURVE",
"729 656 CURVE SMOOTH",
"777.667 670 OFFCURVE",
"845.667 680.667 OFFCURVE",
"933 688 CURVE SMOOTH",
"980.333 692 OFFCURVE",
"1009 694.667 OFFCURVE",
"1019 696 CURVE",
"940.773 537.95 OFFCURVE",
"870.275 359.989 OFFCURVE",
"814.5 255 CURVE SMOOTH",
"797.5 223 OFFCURVE",
"774.167 185.833 OFFCURVE",
"744.5 143.5 CURVE SMOOTH",
"685.167 58.833 OFFCURVE",
"626.833 2.5 OFFCURVE",
"531.5 -51.5 CURVE SMOOTH",
"483.833 -78.5 OFFCURVE",
"432.667 -98.333 OFFCURVE",
"378 -111 CURVE SMOOTH",
"359.333 -116.333 OFFCURVE",
"337.667 -119 OFFCURVE",
"313 -119 CURVE SMOOTH",
"288.333 -119 OFFCURVE",
"257 -115.333 OFFCURVE",
"219 -108 CURVE SMOOTH",
"163.667 -97.333 OFFCURVE",
"115.667 -70.667 OFFCURVE",
"75 -28 CURVE SMOOTH",
"41.667 6 OFFCURVE",
"25 50.333 OFFCURVE",
"25 105 CURVE SMOOTH",
"25 158.333 OFFCURVE",
"39.667 203 OFFCURVE",
"69 239 CURVE SMOOTH",
"91.667 266.333 OFFCURVE",
"111 283.667 OFFCURVE",
"127 291 CURVE SMOOTH",
"131 293 OFFCURVE",
"133 295.667 OFFCURVE",
"133 299 CURVE SMOOTH",
"133 304.333 OFFCURVE",
"128.667 306.333 OFFCURVE",
"120 305 CURVE SMOOTH",
"86.667 301 OFFCURVE",
"21.833 247.667 OFFCURVE",
"6.5 189 CURVE SMOOTH",
"-8.777 130.548 OFFCURVE",
"-10.189 75.622 OFFCURVE",
"11 20 CURVE SMOOTH",
"46.333 -72 OFFCURVE",
"125 -132 OFFCURVE",
"247 -160 CURVE SMOOTH",
"280.333 -167.333 OFFCURVE",
"311.167 -171 OFFCURVE",
"339.5 -171 CURVE SMOOTH"
);
},
{
closed = 1;
nodes = (
"1364.5 -113.167 OFFCURVE",
"1396 -80.667 OFFCURVE",
"1414 -44 CURVE SMOOTH",
"1421.333 -29.333 OFFCURVE",
"1422 -22 OFFCURVE",
"1416 -22 CURVE SMOOTH",
"1410 -22 OFFCURVE",
"1405 -26.667 OFFCURVE",
"1401 -36 CURVE SMOOTH",
"1366.333 -104 OFFCURVE",
"1279.333 -141 OFFCURVE",
"1194 -141 CURVE SMOOTH",
"1120 -141 OFFCURVE",
"1060.333 -89 OFFCURVE",
"1015 15 CURVE SMOOTH",
"984.333 85.667 OFFCURVE",
"957.667 185.667 OFFCURVE",
"955 215 CURVE SMOOTH",
"953.748 226.836 OFFCURVE",
"953.479 239.146 OFFCURVE",
"953.426 246.644 CURVE",
"1141.497 310.217 OFFCURVE",
"1470.115 564.19 OFFCURVE",
"1622 816 CURVE SMOOTH",
"1634.942 838.103 OFFCURVE",
"1623.993 852.77 OFFCURVE",
"1619 848 CURVE",
"1613 848 OFFCURVE",
"1605.667 841.667 OFFCURVE",
"1597 829 CURVE SMOOTH",
"1499.667 681 OFFCURVE",
"1333.5 524.167 OFFCURVE",
"1195.5 431.5 CURVE SMOOTH",
"1068.645 346.317 OFFCURVE",
"953.04 280 OFFCURVE",
"900 280 CURVE SMOOTH",
"897 280 LINE",
"875.264 271.849 OFFCURVE",
"889.279 207.087 OFFCURVE",
"899 152 CURVE SMOOTH",
"924.333 22.667 OFFCURVE",
"973.667 -72 OFFCURVE",
"1047 -132 CURVE SMOOTH",
"1127.672 -198.587 OFFCURVE",
"1213.736 -201.615 OFFCURVE",
"1319.5 -141.5 CURVE SMOOTH"
);
},
{
closed = 1;
nodes = (
"1085.667 745 OFFCURVE",
"1098.833 759.167 OFFCURVE",
"1106.5 765.5 CURVE SMOOTH",
"1114.167 771.833 OFFCURVE",
"1121.667 775 OFFCURVE",
"1129 775 CURVE SMOOTH",
"1135 775 OFFCURVE",
"1138 771.333 OFFCURVE",
"1138 764 CURVE SMOOTH",
"1138 753.333 OFFCURVE",
"1129 743.667 OFFCURVE",
"1111 735 CURVE SMOOTH",
"1101 729.667 OFFCURVE",
"1086.333 725.667 OFFCURVE",
"1067 723 CURVE"
);
}
);
width = 1144;
}
);
note = K;
unicode = 004B;
},
{
glyphname = L;
lastChange = "2020-12-20 20:29:43 +0000";
layers = (
{
layerId = "1691882E-B915-4755-A5B2-757873D945FF";
paths = (
{
closed = 1;
nodes = (
"800 -316.052 OFFCURVE",
"861 -284.976 OFFCURVE",
"861 -221 CURVE SMOOTH",
"861 -203 OFFCURVE",
"857 -181.333 OFFCURVE",
"849 -156 CURVE SMOOTH",
"833.667 -106.667 OFFCURVE",
"804 -65 OFFCURVE",
"760 -31 CURVE SMOOTH",
"673.333 35.667 OFFCURVE",
"564 85.333 OFFCURVE",
"432 118 CURVE",
"453 152 LINE SMOOTH",
"471 184.667 OFFCURVE",
"500.333 242 OFFCURVE",
"541 324 CURVE",
"682.333 348 OFFCURVE",
"827.167 451.333 OFFCURVE",
"902.5 578 CURVE SMOOTH",
"940.167 641.333 OFFCURVE",
"959 702 OFFCURVE",
"959 760 CURVE SMOOTH",
"959 767.333 OFFCURVE",
"958.667 775 OFFCURVE",
"958 783 CURVE SMOOTH",
"953.783 842.044 OFFCURVE",
"873.97 863.8 OFFCURVE",
"808 837 CURVE SMOOTH",
"726.667 802.333 OFFCURVE",
"656.667 709.667 OFFCURVE",
"598 559 CURVE SMOOTH",
"513 345 LINE",
"461.046 338.765 OFFCURVE",
"372.435 337.175 OFFCURVE",
"327 391.5 CURVE SMOOTH",
"287.187 439.103 OFFCURVE",
"284.212 488.708 OFFCURVE",
"296 528 CURVE SMOOTH",
"312.667 584.667 OFFCURVE",
"342.333 626.667 OFFCURVE",
"385 654 CURVE SMOOTH",
"409.667 670 OFFCURVE",
"436.333 679.667 OFFCURVE",
"465 683 CURVE",
"488.612 646.601 OFFCURVE",
"536.653 713.519 OFFCURVE",
"463 700 CURVE SMOOTH",
"353.667 674.667 OFFCURVE",
"279.167 619 OFFCURVE",
"258.5 571 CURVE SMOOTH",
"248.167 547 OFFCURVE",
"243 524.667 OFFCURVE",
"243 504 CURVE SMOOTH",
"243 464.667 OFFCURVE",
"257 429.333 OFFCURVE",
"285 398 CURVE SMOOTH",
"327.667 350 OFFCURVE",
"404 320 OFFCURVE",
"488 320 CURVE SMOOTH",
"499 320 LINE",
"459 238 OFFCURVE",
"424 173.667 OFFCURVE",
"394 127 CURVE",
"366 132.333 OFFCURVE",
"334.667 135 OFFCURVE",
"300 135 CURVE SMOOTH",
"203.333 135 OFFCURVE",
"126.667 118.333 OFFCURVE",
"70 85 CURVE SMOOTH",
"20 56.333 OFFCURVE",
"-5 23 OFFCURVE",
"-5 -15 CURVE SMOOTH",
"-5 -53 OFFCURVE",
"14 -81.333 OFFCURVE",
"52 -100 CURVE SMOOTH",
"74 -111.333 OFFCURVE",
"99.167 -117 OFFCURVE",
"127.5 -117 CURVE SMOOTH",
"155.833 -117 OFFCURVE",
"188.333 -108 OFFCURVE",
"225 -90 CURVE SMOOTH",
"286.333 -60.667 OFFCURVE",
"345.333 -6.333 OFFCURVE",
"402 73 CURVE",
"512.667 51.667 OFFCURVE",
"561.5 41.833 OFFCURVE",
"651.5 2.5 CURVE SMOOTH",
"741.5 -36.833 OFFCURVE",
"790.333 -80.667 OFFCURVE",
"809 -134 CURVE SMOOTH",
"827.03 -185.514 OFFCURVE",
"827.264 -230.916 OFFCURVE",
"811.5 -264.5 CURVE SMOOTH",
"803.833 -280.833 OFFCURVE",
"800 -290.667 OFFCURVE",
"800 -294 CURVE SMOOTH"
);
},
{
closed = 1;
nodes = (
"61.667 -88 OFFCURVE",
"16 -63.667 OFFCURVE",
"16 -29 CURVE SMOOTH",
"16 -23 OFFCURVE",
"17.333 -16.667 OFFCURVE",
"20 -10 CURVE SMOOTH",
"33.333 26.667 OFFCURVE",
"78.333 55 OFFCURVE",
"155 75 CURVE SMOOTH",
"191.667 85 OFFCURVE",
"227.333 90 OFFCURVE",
"262 90 CURVE SMOOTH",
"296.667 90 OFFCURVE",
"330.333 86.333 OFFCURVE",
"363 79 CURVE",
"315.667 11.667 OFFCURVE",
"264.333 -35.333 OFFCURVE",
"209 -62 CURVE SMOOTH",
"172.333 -79.333 OFFCURVE",
"138.333 -88 OFFCURVE",
"107 -88 CURVE SMOOTH"
);
},
{
closed = 1;
nodes = (
"609.667 464.333 OFFCURVE",
"682 613.333 OFFCURVE",
"758 708 CURVE SMOOTH",
"806.667 767.333 OFFCURVE",
"848 797 OFFCURVE",
"882 797 CURVE SMOOTH",
"905.333 797 OFFCURVE",
"917 784.333 OFFCURVE",
"917 759 CURVE SMOOTH",
"917 580.333 OFFCURVE",
"740.333 392.333 OFFCURVE",
"555 351 CURVE"
);
}
);
width = 712;
}
);
note = L;
unicode = 004C;
},
{
glyphname = M;
lastChange = "2020-12-20 22:52:58 +0000";
layers = (
{
layerId = "1691882E-B915-4755-A5B2-757873D945FF";
paths = (
{
closed = 1;
nodes = (
"1383 -114 OFFCURVE",
"1402 -108 OFFCURVE",
"1396 -102 CURVE SMOOTH",
"1394 -100 OFFCURVE",
"1390 -98 OFFCURVE",
"1382 -98 CURVE SMOOTH",
"1365 -98 LINE SMOOTH",
"1314 -98 OFFCURVE",
"1282 -77 OFFCURVE",
"1270 -36 CURVE SMOOTH",
"1264 -15 OFFCURVE",
"1261 11 OFFCURVE",
"1261 42 CURVE SMOOTH",
"1261 73 OFFCURVE",
"1275 132 OFFCURVE",
"1302 217 CURVE SMOOTH",
"1322 282 OFFCURVE",
"1359 369 OFFCURVE",
"1414 478 CURVE SMOOTH",
"1441 531 OFFCURVE",
"1454 575 OFFCURVE",
"1454 609 CURVE SMOOTH",
"1454 620 OFFCURVE",
"1453 630 OFFCURVE",
"1450 639 CURVE SMOOTH",
"1443 664 OFFCURVE",
"1426 677 OFFCURVE",
"1401 677 CURVE SMOOTH",
"1392 677 OFFCURVE",
"1382 675 OFFCURVE",
"1371 672 CURVE SMOOTH",
"1244 635 OFFCURVE",
"1058 381 OFFCURVE",
"950 212 CURVE",
"1054 420 OFFCURVE",
"1049 542 OFFCURVE",
"1049 609 CURVE SMOOTH",
"1049 680 OFFCURVE",
"1003 738 OFFCURVE",
"892 680 CURVE SMOOTH",
"865 665 OFFCURVE",
"841 646 OFFCURVE",
"822 623 CURVE SMOOTH",
"763 552 OFFCURVE",
"708 471 OFFCURVE",
"659 381 CURVE SMOOTH",
"651 366 OFFCURVE",
"645 359 OFFCURVE",
"642 360 CURVE SMOOTH",
"640 360 OFFCURVE",
"639 362 OFFCURVE",
"639 367 CURVE SMOOTH",
"639 371 OFFCURVE",
"641 379 OFFCURVE",
"646 392 CURVE SMOOTH",
"674 467 OFFCURVE",
"691 533 OFFCURVE",
"698 591 CURVE SMOOTH",
"699 604 OFFCURVE",
"700 616 OFFCURVE",
"700 628 CURVE SMOOTH",
"700 665 OFFCURVE",
"694 696 OFFCURVE",
"683 722 CURVE SMOOTH",
"658 782 OFFCURVE",
"608 812 OFFCURVE",
"533 812 CURVE SMOOTH",
"445 812 OFFCURVE",
"350 775 OFFCURVE",
"249 702 CURVE SMOOTH",
"154 634 OFFCURVE",
"84 553 OFFCURVE",
"45 455 CURVE SMOOTH",
"25 407 OFFCURVE",
"18 365 OFFCURVE",
"18 333 CURVE SMOOTH",
"18 300 OFFCURVE",
"22 273 OFFCURVE",
"29 252 CURVE SMOOTH",
"48 197 OFFCURVE",
"83 158 OFFCURVE",
"132 135 CURVE SMOOTH",
"159 122 OFFCURVE",
"185 116 OFFCURVE",
"210 116 CURVE SMOOTH",
"235 116 OFFCURVE",
"259 114 OFFCURVE",
"282 124 CURVE SMOOTH",
"352 153 OFFCURVE",
"403 205 OFFCURVE",
"436 264 CURVE SMOOTH",
"455 297 OFFCURVE",
"464 324 OFFCURVE",
"464 346 CURVE SMOOTH",
"464 367 OFFCURVE",
"461 385 OFFCURVE",
"455 399 CURVE SMOOTH",
"441 432 OFFCURVE",
"415 449 OFFCURVE",
"376 449 CURVE SMOOTH",
"368 449 OFFCURVE",
"360 448 OFFCURVE",
"352 447 CURVE SMOOTH",
"329 444 OFFCURVE",
"321 439 OFFCURVE",
"326 432 CURVE SMOOTH",
"329 427 OFFCURVE",
"335 425 OFFCURVE",
"344 426 CURVE SMOOTH",
"353 427 OFFCURVE",
"360 427 OFFCURVE",
"366 427 CURVE SMOOTH",
"409 427 OFFCURVE",
"431 404 OFFCURVE",
"431 358 CURVE SMOOTH",
"431 329 OFFCURVE",
"423 292 OFFCURVE",
"396 255 CURVE SMOOTH",
"340 177 OFFCURVE",
"291 138 OFFCURVE",
"219 138 CURVE SMOOTH",
"198 138 OFFCURVE",
"178 143 OFFCURVE",
"158 153 CURVE SMOOTH",
"101 180 OFFCURVE",
"72 237 OFFCURVE",
"72 323 CURVE SMOOTH",
"72 353 OFFCURVE",
"81 394 OFFCURVE",
"98 445 CURVE SMOOTH",
"145 576 OFFCURVE",
"367 791 OFFCURVE",
"522 791 CURVE SMOOTH",
"621 791 OFFCURVE",
"644 744 OFFCURVE",
"644 649 CURVE SMOOTH",
"644 569 OFFCURVE",
"610 442 OFFCURVE",
"542 267 CURVE SMOOTH",
"489 129 OFFCURVE",
"440 26 OFFCURVE",
"396 -42 CURVE",
"395 -49 LINE",
"396 -60 OFFCURVE",
"405 -65 OFFCURVE",
"422 -65 CURVE SMOOTH",
"451 -65 OFFCURVE",
"469 -55 OFFCURVE",
"478 -36 CURVE SMOOTH",
"482 -25 OFFCURVE",
"487 -18 OFFCURVE",
"493 -4 CURVE SMOOTH",
"536.5 93.5 LINE SMOOTH",
"593 221 OFFCURVE",
"621 283 OFFCURVE",
"700 411 CURVE SMOOTH",
"739 474 OFFCURVE",
"786 539 OFFCURVE",
"839 605 CURVE SMOOTH",
"878 654 OFFCURVE",
"914 679 OFFCURVE",
"947 679 CURVE SMOOTH",
"967 679 OFFCURVE",
"989 658 OFFCURVE",
"989 624 CURVE SMOOTH",
"989 607 OFFCURVE",
"988 570 OFFCURVE",
"987 559 CURVE SMOOTH",
"976 460 OFFCURVE",
"955 385 OFFCURVE",
"922 291 CURVE SMOOTH",
"869 139 OFFCURVE",
"809 37 OFFCURVE",
"805 31 CURVE SMOOTH",
"786 -2.5 LINE SMOOTH",
"784 -6 OFFCURVE",
"784 -10 OFFCURVE",
"786 -15 CURVE SMOOTH",
"790 -28 OFFCURVE",
"800 -34 OFFCURVE",
"818 -34 CURVE SMOOTH",
"843 -34 OFFCURVE",
"864 -16 OFFCURVE",
"879 20 CURVE SMOOTH",
"914 103 OFFCURVE",
"1080 366 OFFCURVE",
"1146 446 CURVE SMOOTH",
"1183 491 OFFCURVE",
"1209 520 OFFCURVE",
"1237 548 CURVE SMOOTH",
"1292 601 OFFCURVE",
"1332 628 OFFCURVE",
"1358 628 CURVE SMOOTH",
"1377 628 OFFCURVE",
"1386 617 OFFCURVE",
"1386 595 CURVE SMOOTH",
"1386 573 OFFCURVE",
"1377 541 OFFCURVE",
"1359 499 CURVE SMOOTH",
"1308 386 OFFCURVE",
"1274 311 OFFCURVE",
"1258 272 CURVE SMOOTH",
"1238 224 OFFCURVE",
"1200 119 OFFCURVE",
"1200 48 CURVE SMOOTH",
"1200 -49 OFFCURVE",
"1252 -114 OFFCURVE",
"1358 -114 CURVE SMOOTH"
);
}
);
width = 1329;
}
);
note = M;
unicode = 004D;
},
{
glyphname = N;
lastChange = "2020-12-20 20:29:42 +0000";
layers = (
{
layerId = "1691882E-B915-4755-A5B2-757873D945FF";
paths = (
{
closed = 1;
nodes = (
"1028 -146 OFFCURVE",
"1062 -129.333 OFFCURVE",
"1062 -112 CURVE SMOOTH",
"1062 -78.63 OFFCURVE",
"1022.063 -121 OFFCURVE",
"969 -121 CURVE SMOOTH",
"942.333 -121 OFFCURVE",
"924.333 -105.667 OFFCURVE",
"915 -75 CURVE SMOOTH",
"910.333 -61 OFFCURVE",
"908 -45.333 OFFCURVE",
"908 -28 CURVE SMOOTH",
"908 70.667 OFFCURVE",
"974.833 197.333 OFFCURVE",
"1059.5 352 CURVE SMOOTH",
"1144.167 506.667 OFFCURVE",
"1189 599.667 OFFCURVE",
"1189 669 CURVE SMOOTH",
"1189 766.482 OFFCURVE",
"1095.248 789.27 OFFCURVE",
"983 736 CURVE SMOOTH",
"913 704 OFFCURVE",
"834 634.667 OFFCURVE",
"746 528 CURVE SMOOTH",
"698.667 470.667 OFFCURVE",
"654.667 410.667 OFFCURVE",
"614 348 CURVE SMOOTH",
"583 298 LINE",
"581.667 298.667 OFFCURVE",
"595 329.333 OFFCURVE",
"623 390 CURVE SMOOTH",
"652.5 457 LINE SMOOTH",
"659.5 473 OFFCURVE",
"664.333 484.833 OFFCURVE",
"667 492.5 CURVE SMOOTH",
"683 540.5 LINE SMOOTH",
"691 564.833 OFFCURVE",
"695 595 OFFCURVE",
"695 631 CURVE SMOOTH",
"695 671 OFFCURVE",
"685.667 704 OFFCURVE",
"667 730 CURVE SMOOTH",
"643.667 763.333 OFFCURVE",
"611.333 783 OFFCURVE",
"570 789 CURVE SMOOTH",
"554.667 791 OFFCURVE",
"536 792 OFFCURVE",
"514 792 CURVE SMOOTH",
"492 792 OFFCURVE",
"466.333 789 OFFCURVE",
"437 783 CURVE SMOOTH",
"331.667 761 OFFCURVE",
"231.667 703.333 OFFCURVE",
"137 610 CURVE SMOOTH",
"37 512.667 OFFCURVE",
"-2 398 OFFCURVE",
"-2 318 CURVE SMOOTH",
"-2 303.333 OFFCURVE",
"-1 289.667 OFFCURVE",
"1 277 CURVE SMOOTH",
"21 178.333 OFFCURVE",
"93.167 122 OFFCURVE",
"172.5 122 CURVE SMOOTH",
"212.167 122 OFFCURVE",
"248.333 128.667 OFFCURVE",
"281 142 CURVE SMOOTH",
"344.333 167.333 OFFCURVE",
"394 210 OFFCURVE",
"430 270 CURVE SMOOTH",
"451.333 306.667 OFFCURVE",
"462 339.333 OFFCURVE",
"462 368 CURVE SMOOTH",
"462 380.667 OFFCURVE",
"459.667 392.667 OFFCURVE",
"455 404 CURVE SMOOTH",
"444.333 433.333 OFFCURVE",
"422.167 448 OFFCURVE",
"388.5 448 CURVE SMOOTH",
"354.833 448 OFFCURVE",
"335 444 OFFCURVE",
"329 436 CURVE",
"318.098 425.098 OFFCURVE",
"335.583 427 OFFCURVE",
"357 427 CURVE SMOOTH",
"401.667 427 OFFCURVE",
"424 405.667 OFFCURVE",
"424 363 CURVE SMOOTH",
"424 318.333 OFFCURVE",
"403.333 273 OFFCURVE",
"362 227 CURVE SMOOTH",
"310.667 169.667 OFFCURVE",
"250.667 141 OFFCURVE",
"182 141 CURVE SMOOTH",
"126.667 143.667 OFFCURVE",
"88 172.667 OFFCURVE",
"66 228 CURVE",
"60 248.667 OFFCURVE",
"57 270.667 OFFCURVE",
"57 294 CURVE SMOOTH",
"57 340 OFFCURVE",
"69.333 390.333 OFFCURVE",
"94 445 CURVE SMOOTH",
"139.333 545.667 OFFCURVE",
"212.333 627.333 OFFCURVE",
"313 690 CURVE SMOOTH",
"402.333 746 OFFCURVE",
"478 763 OFFCURVE",
"514 763 CURVE SMOOTH",
"532 763 OFFCURVE",
"546 762.333 OFFCURVE",
"556 761 CURVE SMOOTH",
"589.333 755.667 OFFCURVE",
"613 735.333 OFFCURVE",
"627 700 CURVE SMOOTH",
"633.667 682.667 OFFCURVE",
"637 661.833 OFFCURVE",
"637 637.5 CURVE SMOOTH",
"637 613.167 OFFCURVE",
"633.667 585.333 OFFCURVE",
"627 554 CURVE SMOOTH",
"584.333 364.667 OFFCURVE",
"438 52.667 OFFCURVE",
"374 -42 CURVE",
"373.333 -44.667 OFFCURVE",
"373.333 -47 OFFCURVE",
"374 -49 CURVE SMOOTH",
"375.333 -59.667 OFFCURVE",
"384.333 -65 OFFCURVE",
"401 -65 CURVE SMOOTH",
"429 -65 OFFCURVE",
"447.667 -55.333 OFFCURVE",
"457 -36 CURVE SMOOTH",
"498 52 LINE SMOOTH",
"569.333 205.333 OFFCURVE",
"633 323.667 OFFCURVE",
"689 407 CURVE SMOOTH",
"783.667 548.333 OFFCURVE",
"883.333 644 OFFCURVE",
"988 694 CURVE SMOOTH",
"1016 708.667 OFFCURVE",
"1041 716 OFFCURVE",
"1063 716 CURVE SMOOTH",
"1095.667 716 OFFCURVE",
"1112 702 OFFCURVE",
"1112 674 CURVE SMOOTH",
"1112 668.667 OFFCURVE",
"1111.333 663 OFFCURVE",
"1110 657 CURVE SMOOTH",
"1083.36 482.358 OFFCURVE",
"924.617 259.775 OFFCURVE",
"869.5 96 CURVE SMOOTH",
"857.833 61.333 OFFCURVE",
"852 27 OFFCURVE",
"852 -7 CURVE SMOOTH",
"852 -99.667 OFFCURVE",
"905.333 -146 OFFCURVE",
"1012 -146 CURVE SMOOTH"
);
}
);
width = 1039;
}
);
note = N;
unicode = 004E;
},
{
glyphname = Ntilde;
lastChange = "2020-12-20 20:29:43 +0000";
layers = (
{
layerId = "1691882E-B915-4755-A5B2-757873D945FF";
paths = (
{
closed = 1;
nodes = (
"1031 -174 OFFCURVE",
"1065 -157.333 OFFCURVE",
"1065 -140 CURVE SMOOTH",
"1065 -106.63 OFFCURVE",
"1025.063 -149 OFFCURVE",
"972 -149 CURVE SMOOTH",
"945.333 -149 OFFCURVE",
"927.333 -133.667 OFFCURVE",
"918 -103 CURVE SMOOTH",
"913.333 -89 OFFCURVE",
"911 -73.333 OFFCURVE",
"911 -56 CURVE SMOOTH",
"911 42.667 OFFCURVE",
"977.833 169.333 OFFCURVE",
"1062.5 324 CURVE SMOOTH",
"1147.167 478.667 OFFCURVE",
"1192 571.667 OFFCURVE",
"1192 641 CURVE SMOOTH",
"1192 738.482 OFFCURVE",
"1098.248 761.27 OFFCURVE",
"986 708 CURVE SMOOTH",
"916 676 OFFCURVE",
"837 606.667 OFFCURVE",
"749 500 CURVE SMOOTH",
"701.667 443.333 OFFCURVE",
"657.667 383.333 OFFCURVE",
"617 320 CURVE SMOOTH",
"586 270 LINE",
"584.667 270.667 OFFCURVE",
"598 301.333 OFFCURVE",
"626 362 CURVE SMOOTH",
"655.5 429 LINE SMOOTH",
"662.5 445 OFFCURVE",
"667.333 456.833 OFFCURVE",
"670 464.5 CURVE SMOOTH",
"686 512.5 LINE SMOOTH",
"694 536.833 OFFCURVE",
"698 567 OFFCURVE",
"698 603 CURVE SMOOTH",
"698 643 OFFCURVE",
"688.667 676 OFFCURVE",
"670 702 CURVE SMOOTH",
"646.667 735.333 OFFCURVE",
"614.333 755 OFFCURVE",
"573 761 CURVE SMOOTH",
"557.667 763 OFFCURVE",
"539 764 OFFCURVE",
"517 764 CURVE SMOOTH",
"495 764 OFFCURVE",
"469.333 761 OFFCURVE",
"440 755 CURVE SMOOTH",
"334.667 733 OFFCURVE",
"234.667 675.333 OFFCURVE",
"140 582 CURVE SMOOTH",
"40 484.667 OFFCURVE",
"1 370 OFFCURVE",
"1 290 CURVE SMOOTH",
"1 275.333 OFFCURVE",
"2 261.667 OFFCURVE",
"4 249 CURVE SMOOTH",
"24 150.333 OFFCURVE",
"96.167 94 OFFCURVE",
"175.5 94 CURVE SMOOTH",
"215.167 94 OFFCURVE",
"251.333 100.667 OFFCURVE",
"284 114 CURVE SMOOTH",
"347.333 139.333 OFFCURVE",
"397 182 OFFCURVE",
"433 242 CURVE SMOOTH",
"454.333 278.667 OFFCURVE",
"465 311.333 OFFCURVE",
"465 340 CURVE SMOOTH",
"465 352.667 OFFCURVE",
"462.667 364.667 OFFCURVE",
"458 376 CURVE SMOOTH",
"447.333 405.333 OFFCURVE",
"425.167 420 OFFCURVE",
"391.5 420 CURVE SMOOTH",
"357.833 420 OFFCURVE",
"338 416 OFFCURVE",
"332 408 CURVE",
"321.098 397.098 OFFCURVE",
"338.583 399 OFFCURVE",
"360 399 CURVE SMOOTH",
"404.667 399 OFFCURVE",
"427 377.667 OFFCURVE",
"427 335 CURVE SMOOTH",
"427 290.333 OFFCURVE",
"406.333 245 OFFCURVE",
"365 199 CURVE SMOOTH",
"313.667 141.667 OFFCURVE",
"253.667 113 OFFCURVE",
"185 113 CURVE SMOOTH",
"129.667 115.667 OFFCURVE",
"91 144.667 OFFCURVE",
"69 200 CURVE",
"63 220.667 OFFCURVE",
"60 242.667 OFFCURVE",
"60 266 CURVE SMOOTH",
"60 312 OFFCURVE",
"72.333 362.333 OFFCURVE",
"97 417 CURVE SMOOTH",
"142.333 517.667 OFFCURVE",
"215.333 599.333 OFFCURVE",
"316 662 CURVE SMOOTH",
"405.333 718 OFFCURVE",
"481 735 OFFCURVE",
"517 735 CURVE SMOOTH",
"535 735 OFFCURVE",
"549 734.333 OFFCURVE",
"559 733 CURVE SMOOTH",
"592.333 727.667 OFFCURVE",
"616 707.333 OFFCURVE",
"630 672 CURVE SMOOTH",
"636.667 654.667 OFFCURVE",
"640 633.833 OFFCURVE",
"640 609.5 CURVE SMOOTH",
"640 585.167 OFFCURVE",
"636.667 557.333 OFFCURVE",
"630 526 CURVE SMOOTH",
"587.333 336.667 OFFCURVE",
"441 24.667 OFFCURVE",
"377 -70 CURVE",
"376.333 -72.667 OFFCURVE",
"376.333 -75 OFFCURVE",
"377 -77 CURVE SMOOTH",
"378.333 -87.667 OFFCURVE",
"387.333 -93 OFFCURVE",
"404 -93 CURVE SMOOTH",
"432 -93 OFFCURVE",
"450.667 -83.333 OFFCURVE",
"460 -64 CURVE SMOOTH",
"501 24 LINE SMOOTH",
"572.333 177.333 OFFCURVE",
"636 295.667 OFFCURVE",
"692 379 CURVE SMOOTH",
"786.667 520.333 OFFCURVE",
"886.333 616 OFFCURVE",
"991 666 CURVE SMOOTH",
"1019 680.667 OFFCURVE",
"1044 688 OFFCURVE",
"1066 688 CURVE SMOOTH",
"1098.667 688 OFFCURVE",
"1115 674 OFFCURVE",
"1115 646 CURVE SMOOTH",
"1115 640.667 OFFCURVE",
"1114.333 635 OFFCURVE",
"1113 629 CURVE SMOOTH",
"1086.36 454.358 OFFCURVE",
"927.617 231.775 OFFCURVE",
"872.5 68 CURVE SMOOTH",
"860.833 33.333 OFFCURVE",
"855 -1 OFFCURVE",
"855 -35 CURVE SMOOTH",
"855 -127.667 OFFCURVE",
"908.333 -174 OFFCURVE",
"1015 -174 CURVE SMOOTH"
);
},
{
closed = 1;
nodes = (
"1143.333 779 OFFCURVE",
"1169 801.333 OFFCURVE",
"1169 846 CURVE SMOOTH",
"1169 848.667 OFFCURVE",
"1166.5 850 OFFCURVE",
"1161.5 850 CURVE SMOOTH",
"1156.5 850 OFFCURVE",
"1153.333 849 OFFCURVE",
"1152 847 CURVE SMOOTH",
"1142.667 827.667 OFFCURVE",
"1130.5 818 OFFCURVE",
"1115.5 818 CURVE SMOOTH",
"1100.5 818 OFFCURVE",
"1080 823.333 OFFCURVE",
"1054 834 CURVE SMOOTH",
"1030.667 843.333 OFFCURVE",
"1013.333 848 OFFCURVE",
"1002 848 CURVE SMOOTH",
"974 848 OFFCURVE",
"948.333 827.333 OFFCURVE",
"925 786 CURVE",
"928 783 LINE",
"937.333 779.667 OFFCURVE",
"942.667 780 OFFCURVE",
"944 784 CURVE",
"953.333 802 OFFCURVE",
"965.167 811 OFFCURVE",
"979.5 811 CURVE SMOOTH",
"993.833 811 OFFCURVE",
"1013.333 805.333 OFFCURVE",
"1038 794 CURVE SMOOTH",
"1061.333 784 OFFCURVE",
"1079.333 779 OFFCURVE",
"1092 779 CURVE SMOOTH"
);
}
);
width = 1039;
}
);
note = Ntilde;
unicode = 00D1;
},
{
glyphname = O;
lastChange = "2020-12-20 21:44:03 +0000";
layers = (
{
layerId = "1691882E-B915-4755-A5B2-757873D945FF";
paths = (
{
closed = 1;
nodes = (
"419.333 -63 OFFCURVE",
"520.667 -11.333 OFFCURVE",
"614 92 CURVE SMOOTH",
"751.596 240.604 OFFCURVE",
"796.281 416.631 OFFCURVE",
"756 572 CURVE SMOOTH",
"738 646 OFFCURVE",
"691.333 704 OFFCURVE",
"616 746 CURVE SMOOTH",
"568.667 772.667 OFFCURVE",
"502.667 786 OFFCURVE",
"418 786 CURVE SMOOTH",
"390.667 786 OFFCURVE",
"355.333 782.667 OFFCURVE",
"312 776 CURVE SMOOTH",
"226 761.333 OFFCURVE",
"161.333 721.333 OFFCURVE",
"118 656 CURVE SMOOTH",
"94 620 OFFCURVE",
"82 584.5 OFFCURVE",
"82 549.5 CURVE SMOOTH",
"82 514.5 OFFCURVE",
"90.333 480.333 OFFCURVE",
"107 447 CURVE SMOOTH",
"120.333 421.667 OFFCURVE",
"136.333 430.333 OFFCURVE",
"131 453 CURVE SMOOTH",
"123.667 482.333 OFFCURVE",
"120 510 OFFCURVE",
"120 536 CURVE SMOOTH",
"120 580 OFFCURVE",
"130.667 619.667 OFFCURVE",
"152 655 CURVE SMOOTH",
"184.667 711 OFFCURVE",
"239.333 744 OFFCURVE",
"316 754 CURVE SMOOTH",
"339.333 757.333 OFFCURVE",
"363.667 759 OFFCURVE",
"389 759 CURVE SMOOTH",
"414.333 759 OFFCURVE",
"440 756 OFFCURVE",
"466 750 CURVE SMOOTH",
"550.667 732.667 OFFCURVE",
"616 689.667 OFFCURVE",
"662 621 CURVE SMOOTH",
"698.667 566.333 OFFCURVE",
"717 503.667 OFFCURVE",
"717 433 CURVE SMOOTH",
"717 329.667 OFFCURVE",
"682.667 232.667 OFFCURVE",
"614 142 CURVE SMOOTH",
"582.667 101.333 OFFCURVE",
"545.667 64.667 OFFCURVE",
"503 32 CURVE SMOOTH",
"437 -18 OFFCURVE",
"370.667 -43 OFFCURVE",
"304 -43 CURVE SMOOTH",
"272 -43 OFFCURVE",
"242.667 -32 OFFCURVE",
"216 -10 CURVE SMOOTH",
"173.333 26 OFFCURVE",
"152 82.667 OFFCURVE",
"152 160 CURVE SMOOTH",
"152 190 OFFCURVE",
"158 225.333 OFFCURVE",
"170 266 CURVE SMOOTH",
"210 406 OFFCURVE",
"291.333 522 OFFCURVE",
"390 590 CURVE SMOOTH",
"427.333 615.333 OFFCURVE",
"461 628 OFFCURVE",
"491 628 CURVE SMOOTH",
"531.909 628 OFFCURVE",
"555.165 623.048 OFFCURVE",
"529 638 CURVE SMOOTH",
"507 650.667 OFFCURVE",
"484.333 657 OFFCURVE",
"461 657 CURVE SMOOTH",
"457.667 657 OFFCURVE",
"454 656.667 OFFCURVE",
"450 656 CURVE SMOOTH",
"388 651.333 OFFCURVE",
"332.333 626 OFFCURVE",
"283 580 CURVE SMOOTH",
"195.197 498.782 OFFCURVE",
"137.211 404.675 OFFCURVE",
"109 294 CURVE SMOOTH",
"100.333 260 OFFCURVE",
"96 223.333 OFFCURVE",
"96 184 CURVE SMOOTH",
"96 144.667 OFFCURVE",
"104 104.667 OFFCURVE",
"120 64 CURVE SMOOTH",
"149.333 -9.333 OFFCURVE",
"216.667 -63 OFFCURVE",
"310 -63 CURVE SMOOTH"
);
}
);
width = 752;
}
);
note = O;
unicode = 004F;
},
{
glyphname = Oslash;
lastChange = "2020-12-20 20:29:43 +0000";
layers = (
{
layerId = "1691882E-B915-4755-A5B2-757873D945FF";
paths = (
{
closed = 1;
nodes = (
"219 -43 LINE",
"231 -48 LINE",
"259.667 -56.667 OFFCURVE",
"287.167 -61 OFFCURVE",
"313.5 -61 CURVE SMOOTH",
"339.833 -61 OFFCURVE",
"365.333 -57.667 OFFCURVE",
"390 -51 CURVE SMOOTH",
"622.711 13.806 OFFCURVE",
"742.618 251.512 OFFCURVE",
"755 397 CURVE",
"815 435 OFFCURVE",
"864.667 485 OFFCURVE",
"904 547 CURVE",
"911.651 581.281 OFFCURVE",
"884.208 577.971 OFFCURVE",
"889 558 CURVE",
"869 518 OFFCURVE",
"825.667 476 OFFCURVE",
"759 432 CURVE",
"759 451 LINE SMOOTH",
"759 562.333 OFFCURVE",
"720 647 OFFCURVE",
"642 705 CURVE",
"693 795 LINE",
"659 811 LINE",
"611 726 LINE",
"554.333 758.667 OFFCURVE",
"486.333 775 OFFCURVE",
"407 775 CURVE SMOOTH",
"327.667 775 OFFCURVE",
"250 751.333 OFFCURVE",
"174 704 CURVE SMOOTH",
"91.333 652 OFFCURVE",
"49 567.333 OFFCURVE",
"49 486 CURVE SMOOTH",
"49 476.667 OFFCURVE",
"49.667 467 OFFCURVE",
"51 457 CURVE SMOOTH",
"55.667 404.333 OFFCURVE",
"81.333 362.333 OFFCURVE",
"128 331 CURVE",
"108.667 277.667 OFFCURVE",
"99 227.333 OFFCURVE",
"99 180 CURVE SMOOTH",
"99 158.667 OFFCURVE",
"100.667 138 OFFCURVE",
"104 118 CURVE SMOOTH",
"116.667 53.333 OFFCURVE",
"144.667 5.333 OFFCURVE",
"188 -26 CURVE",
"145 -104 LINE",
"177 -118 LINE"
);
},
{
closed = 1;
nodes = (
"169.667 35 OFFCURVE",
"152 84.667 OFFCURVE",
"152 152 CURVE SMOOTH",
"152 204 OFFCURVE",
"162 254.333 OFFCURVE",
"182 303 CURVE",
"226.667 285 OFFCURVE",
"279.333 276 OFFCURVE",
"340 276 CURVE SMOOTH",
"358 276 LINE",
"205 3 LINE"
);
},
{
closed = 1;
nodes = (
"293.667 -37 OFFCURVE",
"264 -30 OFFCURVE",
"234 -16 CURVE",
"401 279 LINE",
"503 287.667 OFFCURVE",
"600 316.333 OFFCURVE",
"692 365 CURVE",
"689.333 344.333 OFFCURVE",
"683.333 320.667 OFFCURVE",
"674 294 CURVE SMOOTH",
"626 159.333 OFFCURVE",
"527.333 36.333 OFFCURVE",
"410 -17 CURVE SMOOTH",
"381.333 -30.333 OFFCURVE",
"352.333 -37 OFFCURVE",
"323 -37 CURVE SMOOTH"
);
},
{
closed = 1;
nodes = (
"287.667 308 OFFCURVE",
"237 318 OFFCURVE",
"197 338 CURVE",
"224.333 398.667 OFFCURVE",
"267.667 462.667 OFFCURVE",
"327 530 CURVE SMOOTH",
"387 598 OFFCURVE",
"452.167 629 OFFCURVE",
"483.5 629 CURVE SMOOTH",
"515.659 629 OFFCURVE",
"538.099 617.205 OFFCURVE",
"536.5 630 CURVE SMOOTH",
"536.167 632.667 OFFCURVE",
"533.667 635.333 OFFCURVE",
"529 638 CURVE SMOOTH",
"508.333 650.667 OFFCURVE",
"490.167 657 OFFCURVE",
"474.5 657 CURVE SMOOTH",
"458.833 657 OFFCURVE",
"446 656 OFFCURVE",
"436 654 CURVE SMOOTH",
"374.667 640 OFFCURVE",
"316.333 602 OFFCURVE",
"261 540 CURVE SMOOTH",
"210.333 483.333 OFFCURVE",
"172 427.333 OFFCURVE",
"146 372 CURVE",
"117.333 396.667 OFFCURVE",
"103 435 OFFCURVE",
"103 487 CURVE SMOOTH",
"103 556.333 OFFCURVE",
"135.333 637.333 OFFCURVE",
"210 688 CURVE SMOOTH",
"277.333 734 OFFCURVE",
"346.333 757 OFFCURVE",
"417 757 CURVE SMOOTH",
"486.333 757 OFFCURVE",
"546 737.667 OFFCURVE",
"596 699 CURVE",
"377 309 LINE",
"367.667 308.333 OFFCURVE",
"358.333 308 OFFCURVE",
"349 308 CURVE SMOOTH"
);
},
{
closed = 1;
nodes = (
"624 673 LINE",
"674.667 619.667 OFFCURVE",
"700 545.333 OFFCURVE",
"700 450 CURVE SMOOTH",
"700 434 OFFCURVE",
"699.333 417.333 OFFCURVE",
"698 400 CURVE",
"610 352.667 OFFCURVE",
"517.333 323.667 OFFCURVE",
"420 313 CURVE"
);
}
);
width = 771;
}
);
note = Oslash;
unicode = 00D8;
},
{
glyphname = OE;
lastChange = "2020-12-20 20:29:43 +0000";
layers = (
{
layerId = "1691882E-B915-4755-A5B2-757873D945FF";
paths = (
{
closed = 1;
nodes = (
"1121.833 -114 OFFCURVE",
"1296 -58 OFFCURVE",
"1396 26 CURVE SMOOTH",
"1446 68.667 OFFCURVE",
"1471 109 OFFCURVE",
"1471 147 CURVE SMOOTH",
"1471 177 OFFCURVE",
"1453 201 OFFCURVE",
"1417 219 CURVE",
"1407.007 222.577 OFFCURVE",
"1397.219 224.031 OFFCURVE",
"1390.046 224.612 CURVE",
"1384.324 196.334 OFFCURVE",
"1437 206.272 OFFCURVE",
"1437 171 CURVE SMOOTH",
"1437 137 OFFCURVE",
"1411.333 98.333 OFFCURVE",
"1360 55 CURVE SMOOTH",
"1265.333 -23.667 OFFCURVE",
"1096 -90 OFFCURVE",
"960 -90 CURVE SMOOTH",
"892 -90 OFFCURVE",
"837.333 -81 OFFCURVE",
"796 -63 CURVE SMOOTH",
"718 -28.333 OFFCURVE",
"679 30 OFFCURVE",
"679 112 CURVE SMOOTH",
"679 175.333 OFFCURVE",
"704.667 230.667 OFFCURVE",
"756 278 CURVE SMOOTH",
"805.333 324 OFFCURVE",
"877 347 OFFCURVE",
"971 347 CURVE SMOOTH",
"1086 346 LINE SMOOTH",
"1112 346 OFFCURVE",
"1126.333 352 OFFCURVE",
"1129 364 CURVE",
"1133.207 403.965 OFFCURVE",
"1052.257 411.212 OFFCURVE",
"983 431 CURVE SMOOTH",
"936.333 444.333 OFFCURVE",
"894.667 476 OFFCURVE",
"888 524 CURVE",
"904 547 LINE SMOOTH",
"918.667 571 OFFCURVE",
"895.667 572.667 OFFCURVE",
"889 558 CURVE",
"888 557 LINE",
"897.333 643.667 OFFCURVE",
"996 723.167 OFFCURVE",
"1100 754.5 CURVE SMOOTH",
"1157.07 768.947 OFFCURVE",
"1227.038 770.853 OFFCURVE",
"1273.799 770.258 CURVE",
"1354.6 737.962 OFFCURVE",
"1395 712.543 OFFCURVE",
"1395 694 CURVE SMOOTH",
"1395 674 OFFCURVE",
"1390 653.667 OFFCURVE",
"1380 633 CURVE SMOOTH",
"1360 591.667 OFFCURVE",
"1317.333 559 OFFCURVE",
"1280 555 CURVE SMOOTH",
"1266 553 LINE",
"1248.667 548.333 OFFCURVE",
"1240.667 543 OFFCURVE",
"1242 537 CURVE SMOOTH",
"1242.667 533.667 OFFCURVE",
"1246.833 532 OFFCURVE",
"1254.5 532 CURVE SMOOTH",
"1262.167 532 OFFCURVE",
"1272.333 533.333 OFFCURVE",
"1285 536 CURVE SMOOTH",
"1387.667 558.667 OFFCURVE",
"1460 623.667 OFFCURVE",
"1460 685 CURVE SMOOTH",
"1460 735.667 OFFCURVE",
"1403.667 788.667 OFFCURVE",
"1285 802 CURVE SMOOTH",
"1270.333 803.333 OFFCURVE",
"1255 804 OFFCURVE",
"1239 804 CURVE SMOOTH",
"1145.667 804 OFFCURVE",
"1005 775 OFFCURVE",
"893 683 CURVE SMOOTH",
"837 637 OFFCURVE",
"809 585.333 OFFCURVE",
"809 528 CURVE SMOOTH",
"809 510.667 OFFCURVE",
"814 494.667 OFFCURVE",
"824 480 CURVE",
"804.667 464.667 OFFCURVE",
"783 448.667 OFFCURVE",
"759 432 CURVE",
"759 452 LINE SMOOTH",
"759 658.667 OFFCURVE",
"612 774 OFFCURVE",
"412 774 CURVE SMOOTH",
"312 774 OFFCURVE",
"225.333 745.333 OFFCURVE",
"152 688 CURVE SMOOTH",
"83.333 634 OFFCURVE",
"49 567 OFFCURVE",
"49 487 CURVE SMOOTH",
"49 477 OFFCURVE",
"49.667 467 OFFCURVE",
"51 457 CURVE SMOOTH",
"55.667 404.333 OFFCURVE",
"81.333 362.333 OFFCURVE",
"128 331 CURVE",
"108.667 278.333 OFFCURVE",
"99 225.5 OFFCURVE",
"99 172.5 CURVE SMOOTH",
"99 119.5 OFFCURVE",
"112 71.333 OFFCURVE",
"138 28 CURVE SMOOTH",
"162 -10.667 OFFCURVE",
"193 -36 OFFCURVE",
"231 -48 CURVE SMOOTH",
"259 -57.333 OFFCURVE",
"289.167 -62 OFFCURVE",
"321.5 -62 CURVE SMOOTH",
"353.833 -62 OFFCURVE",
"388 -54.667 OFFCURVE",
"424 -40 CURVE SMOOTH",
"490 -14 OFFCURVE",
"550.333 27.667 OFFCURVE",
"605 85 CURVE",
"623.667 -29.667 OFFCURVE",
"747.167 -114 OFFCURVE",
"934.5 -114 CURVE SMOOTH"
);
},
{
closed = 1;
nodes = (
"294.333 -38 OFFCURVE",
"263.333 -30.667 OFFCURVE",
"234 -16 CURVE SMOOTH",
"178.667 11.333 OFFCURVE",
"151 71 OFFCURVE",
"151 163 CURVE SMOOTH",
"151 202.333 OFFCURVE",
"161.333 249 OFFCURVE",
"182 303 CURVE",
"227.333 285 OFFCURVE",
"280 276 OFFCURVE",
"340 276 CURVE SMOOTH",
"463.333 276 OFFCURVE",
"580.667 305.667 OFFCURVE",
"692 365 CURVE",
"688 334.333 OFFCURVE",
"678.333 301.667 OFFCURVE",
"663 267 CURVE",
"635.667 235.667 OFFCURVE",
"617 200 OFFCURVE",
"607 160 CURVE",
"557 84 OFFCURVE",
"498 28 OFFCURVE",
"430 -8 CURVE SMOOTH",
"394 -28 OFFCURVE",
"359.667 -38 OFFCURVE",
"327 -38 CURVE SMOOTH"
);
},
{
closed = 1;
nodes = (
"289.333 309 OFFCURVE",
"239 318.667 OFFCURVE",
"197 338 CURVE",
"224.333 398.667 OFFCURVE",
"267.667 462.667 OFFCURVE",
"327 530 CURVE SMOOTH",
"387 598 OFFCURVE",
"452.167 629 OFFCURVE",
"483.5 629 CURVE SMOOTH",
"515.659 629 OFFCURVE",
"538.099 617.205 OFFCURVE",
"536.5 630 CURVE SMOOTH",
"536.167 632.667 OFFCURVE",
"533.667 635.333 OFFCURVE",
"529 638 CURVE SMOOTH",
"508.333 650.667 OFFCURVE",
"490.167 657 OFFCURVE",
"474.5 657 CURVE SMOOTH",
"458.833 657 OFFCURVE",
"446 656 OFFCURVE",
"436 654 CURVE SMOOTH",
"374.667 640 OFFCURVE",
"316.333 602 OFFCURVE",
"261 540 CURVE SMOOTH",
"210.333 483.333 OFFCURVE",
"172 427.333 OFFCURVE",
"146 372 CURVE",
"117.333 396.667 OFFCURVE",
"103 435.333 OFFCURVE",
"103 488 CURVE SMOOTH",
"103 548.667 OFFCURVE",
"124.667 603 OFFCURVE",
"168 651 CURVE SMOOTH",
"219.333 706.333 OFFCURVE",
"285.667 740 OFFCURVE",
"367 752 CURVE SMOOTH",
"386.333 755.333 OFFCURVE",
"405.333 757 OFFCURVE",
"424 757 CURVE SMOOTH",
"488 757 OFFCURVE",
"544 739 OFFCURVE",
"592 703 CURVE SMOOTH",
"664 649 OFFCURVE",
"700 565.667 OFFCURVE",
"700 453 CURVE SMOOTH",
"700 435.667 OFFCURVE",
"699.333 418 OFFCURVE",
"698 400 CURVE",
"615.333 355.333 OFFCURVE",
"526.333 326.667 OFFCURVE",
"431 314 CURVE SMOOTH",
"401.667 310.667 OFFCURVE",
"374 309 OFFCURVE",
"348 309 CURVE SMOOTH"
);
},
{
closed = 1;
nodes = (
"750.667 356.333 OFFCURVE",
"754.333 377.667 OFFCURVE",
"755 397 CURVE",
"787 417 OFFCURVE",
"814.333 439 OFFCURVE",
"837 463 CURVE",
"863 433.667 OFFCURVE",
"900 410.667 OFFCURVE",
"948 394 CURVE",
"875.333 390 OFFCURVE",
"807.333 369.667 OFFCURVE",
"744 333 CURVE"
);
},
{
closed = 1;
nodes = (
"1390.5 226.5 LINE",
"1372.742 223.89 OFFCURVE",
"1377.202 225.652 OFFCURVE",
"1390.046 224.612 CURVE"
);
}
);
width = 1493;
}
);
note = OE;
unicode = 0152;
},
{
glyphname = P;
lastChange = "2020-12-20 20:29:42 +0000";
layers = (
{
layerId = "1691882E-B915-4755-A5B2-757873D945FF";
paths = (
{
closed = 1;
nodes = (
"232.667 -39 OFFCURVE",
"315.667 -3.667 OFFCURVE",
"391 67 CURVE SMOOTH",
"442.333 117 OFFCURVE",
"492.333 177.667 OFFCURVE",
"541 249 CURVE",
"553 248.333 OFFCURVE",
"565 248 OFFCURVE",
"577 248 CURVE SMOOTH",
"633 248 OFFCURVE",
"695.667 256.333 OFFCURVE",
"765 273 CURVE SMOOTH",
"845 293 OFFCURVE",
"933 340.333 OFFCURVE",
"993 403 CURVE SMOOTH",
"1045 456.333 OFFCURVE",
"1071 506.333 OFFCURVE",
"1071 553 CURVE SMOOTH",
"1071 612.333 OFFCURVE",
"1035.667 663 OFFCURVE",
"965 705 CURVE SMOOTH",
"930.333 725.667 OFFCURVE",
"891.667 741.667 OFFCURVE",
"849 753 CURVE",
"883.472 787.472 OFFCURVE",
"928 810 OFFCURVE",
"907 810 CURVE",
"899.826 817.174 OFFCURVE",
"855.71 799.33 OFFCURVE",
"809 763 CURVE",
"652.254 795.571 OFFCURVE",
"437.833 786.333 OFFCURVE",
"247 710 CURVE SMOOTH",
"172.333 679.333 OFFCURVE",
"115.333 644.5 OFFCURVE",
"74 582.5 CURVE SMOOTH",
"53.333 551.5 OFFCURVE",
"43 516.667 OFFCURVE",
"43 478 CURVE SMOOTH",
"43 394 OFFCURVE",
"106.333 335 OFFCURVE",
"197 335 CURVE SMOOTH",
"277 335 OFFCURVE",
"355.667 388.333 OFFCURVE",
"357 475 CURVE SMOOTH",
"356.222 494.57 OFFCURVE",
"340.424 484.603 OFFCURVE",
"343 476 CURVE",
"319 408 OFFCURVE",
"255.167 355 OFFCURVE",
"194.5 355 CURVE SMOOTH",
"164.167 355 OFFCURVE",
"139.333 366.667 OFFCURVE",
"120 390 CURVE SMOOTH",
"102 412 OFFCURVE",
"93 435.667 OFFCURVE",
"93 461 CURVE SMOOTH",
"93 502.333 OFFCURVE",
"109.667 542 OFFCURVE",
"143 580 CURVE SMOOTH",
"193.667 640 OFFCURVE",
"274 677.833 OFFCURVE",
"346 702.5 CURVE SMOOTH",
"382 714.833 OFFCURVE",
"424.333 725.5 OFFCURVE",
"473 734.5 CURVE SMOOTH",
"521.667 743.5 OFFCURVE",
"573.333 748 OFFCURVE",
"628 748 CURVE SMOOTH",
"682.667 748 OFFCURVE",
"734 744.667 OFFCURVE",
"782 738 CURVE",
"772.667 728.667 OFFCURVE",
"761 716 OFFCURVE",
"747 700 CURVE SMOOTH",
"729 682 LINE SMOOTH",
"653 596.667 OFFCURVE",
"574.333 463.333 OFFCURVE",
"525 366 CURVE SMOOTH",
"461 236 OFFCURVE",
"403.333 146 OFFCURVE",
"352 96 CURVE SMOOTH",
"280 26.667 OFFCURVE",
"206.667 -8 OFFCURVE",
"132 -8 CURVE SMOOTH",
"82 -8 OFFCURVE",
"51.667 10 OFFCURVE",
"41 46 CURVE SMOOTH",
"38.333 53.333 OFFCURVE",
"37 60.667 OFFCURVE",
"37 68 CURVE SMOOTH",
"37 156.184 OFFCURVE",
"164.044 98.044 OFFCURVE",
"199 133 CURVE",
"202.333 137.667 OFFCURVE",
"198.333 142 OFFCURVE",
"187 146 CURVE SMOOTH",
"156.333 156 OFFCURVE",
"127 161 OFFCURVE",
"99 161 CURVE SMOOTH",
"55.667 161 OFFCURVE",
"22 147.333 OFFCURVE",
"-2 120 CURVE SMOOTH",
"-17.333 102.667 OFFCURVE",
"-25 86.5 OFFCURVE",
"-25 71.5 CURVE SMOOTH",
"-25 56.5 OFFCURVE",
"-22.667 43.333 OFFCURVE",
"-18 32 CURVE SMOOTH",
"2 -15.333 OFFCURVE",
"55.333 -39 OFFCURVE",
"142 -39 CURVE SMOOTH"
);
},
{
closed = 1;
nodes = (
"582.333 312 OFFCURVE",
"625.667 386 OFFCURVE",
"685 492 CURVE SMOOTH",
"744.333 598 OFFCURVE",
"792.667 677 OFFCURVE",
"830 729 CURVE",
"948 701 OFFCURVE",
"1007 648 OFFCURVE",
"1007 570 CURVE SMOOTH",
"1007 501.333 OFFCURVE",
"964.333 434.667 OFFCURVE",
"879 370 CURVE SMOOTH",
"791 304.667 OFFCURVE",
"666.333 270 OFFCURVE",
"569 270 CURVE SMOOTH",
"555 270 LINE"
);
}
);
width = 890;
}
);
note = P;
unicode = 0050;
},
{
glyphname = Thorn;
lastChange = "2020-12-20 20:29:42 +0000";
layers = (
{
layerId = "1691882E-B915-4755-A5B2-757873D945FF";
paths = (
{
closed = 1;
nodes = (
"63.443 3 OFFCURVE",
"74.978 0.021 OFFCURVE",
"92.5 13 CURVE SMOOTH",
"101.5 19.667 OFFCURVE",
"111.333 33.667 OFFCURVE",
"122 55 CURVE SMOOTH",
"197 208 LINE",
"204.333 207.333 OFFCURVE",
"211.667 207 OFFCURVE",
"219 207 CURVE SMOOTH",
"359.398 207 OFFCURVE",
"476.796 256.749 OFFCURVE",
"539 333 CURVE SMOOTH",
"569.667 371 OFFCURVE",
"585 408.667 OFFCURVE",
"585 446 CURVE SMOOTH",
"585 460 OFFCURVE",
"579.333 477 OFFCURVE",
"568 497 CURVE SMOOTH",
"534.667 555.667 OFFCURVE",
"455 599.333 OFFCURVE",
"367 614 CURVE",
"421 750 LINE",
"427 768.667 OFFCURVE",
"430 784.333 OFFCURVE",
"430 797 CURVE SMOOTH",
"430 809.667 OFFCURVE",
"423 822.333 OFFCURVE",
"409 835 CURVE SMOOTH",
"406.333 837.667 OFFCURVE",
"399.667 839.833 OFFCURVE",
"389 841.5 CURVE SMOOTH",
"378.333 843.167 OFFCURVE",
"371.667 846 OFFCURVE",
"369 850 CURVE",
"370.333 798 OFFCURVE",
"304.667 555 OFFCURVE",
"206 347 CURVE SMOOTH",
"162 255 OFFCURVE",
"35 30.667 OFFCURVE",
"11 8 CURVE",
"16.333 8.667 OFFCURVE",
"24.167 8 OFFCURVE",
"34.5 6 CURVE SMOOTH",
"44.833 4 OFFCURVE",
"51.167 3 OFFCURVE",
"53.5 3 CURVE SMOOTH"
);
},
{
closed = 1;
nodes = (
"238 293 LINE",
"248.667 308.333 OFFCURVE",
"272.667 363.667 OFFCURVE",
"310 459 CURVE SMOOTH",
"360 595 LINE",
"406 584.333 OFFCURVE",
"441 572.333 OFFCURVE",
"465 559 CURVE SMOOTH",
"509 532.333 OFFCURVE",
"531 493.333 OFFCURVE",
"531 442 CURVE SMOOTH",
"531 344.126 OFFCURVE",
"414.507 233.279 OFFCURVE",
"206 228 CURVE"
);
}
);
width = 336;
}
);
note = Thorn;
unicode = 00DE;
},
{
glyphname = Q;
lastChange = "2020-12-20 20:29:43 +0000";
layers = (
{
layerId = "1691882E-B915-4755-A5B2-757873D945FF";
paths = (
{
closed = 1;
nodes = (
"419.333 -63 OFFCURVE",
"520.667 -11.333 OFFCURVE",
"614 92 CURVE SMOOTH",
"751.596 240.604 OFFCURVE",
"796.281 416.631 OFFCURVE",
"756 572 CURVE SMOOTH",
"738 646 OFFCURVE",
"691.333 704 OFFCURVE",
"616 746 CURVE SMOOTH",
"568.667 772.667 OFFCURVE",
"502.667 786 OFFCURVE",
"418 786 CURVE SMOOTH",
"390.667 786 OFFCURVE",
"355.333 782.667 OFFCURVE",
"312 776 CURVE SMOOTH",
"226 761.333 OFFCURVE",
"161.333 721.333 OFFCURVE",
"118 656 CURVE SMOOTH",
"94 620 OFFCURVE",
"82 584.5 OFFCURVE",
"82 549.5 CURVE SMOOTH",
"82 514.5 OFFCURVE",
"90.333 480.333 OFFCURVE",
"107 447 CURVE SMOOTH",
"120.333 421.667 OFFCURVE",
"136.333 430.333 OFFCURVE",
"131 453 CURVE SMOOTH",
"123.667 482.333 OFFCURVE",
"120 510 OFFCURVE",
"120 536 CURVE SMOOTH",
"120 580 OFFCURVE",
"130.667 619.667 OFFCURVE",
"152 655 CURVE SMOOTH",
"184.667 711 OFFCURVE",
"239.333 744 OFFCURVE",
"316 754 CURVE SMOOTH",
"339.333 757.333 OFFCURVE",
"363.667 759 OFFCURVE",
"389 759 CURVE SMOOTH",
"414.333 759 OFFCURVE",
"440 756 OFFCURVE",
"466 750 CURVE SMOOTH",
"550.667 732.667 OFFCURVE",
"616 689.667 OFFCURVE",
"662 621 CURVE SMOOTH",
"698.667 566.333 OFFCURVE",
"717 503.667 OFFCURVE",
"717 433 CURVE SMOOTH",
"717 329.667 OFFCURVE",
"682.667 232.667 OFFCURVE",
"614 142 CURVE SMOOTH",
"582.667 101.333 OFFCURVE",
"545.667 64.667 OFFCURVE",
"503 32 CURVE SMOOTH",
"437 -18 OFFCURVE",
"370.667 -43 OFFCURVE",
"304 -43 CURVE SMOOTH",
"272 -43 OFFCURVE",
"242.667 -32 OFFCURVE",
"216 -10 CURVE SMOOTH",
"173.333 26 OFFCURVE",
"152 82.667 OFFCURVE",
"152 160 CURVE SMOOTH",
"152 190 OFFCURVE",
"158 225.333 OFFCURVE",
"170 266 CURVE SMOOTH",
"210 406 OFFCURVE",
"291.333 522 OFFCURVE",
"390 590 CURVE SMOOTH",
"427.333 615.333 OFFCURVE",
"461 628 OFFCURVE",
"491 628 CURVE SMOOTH",
"531.909 628 OFFCURVE",
"555.165 623.048 OFFCURVE",
"529 638 CURVE SMOOTH",
"507 650.667 OFFCURVE",
"484.333 657 OFFCURVE",
"461 657 CURVE SMOOTH",
"457.667 657 OFFCURVE",
"454 656.667 OFFCURVE",
"450 656 CURVE SMOOTH",
"388 651.333 OFFCURVE",
"332.333 626 OFFCURVE",
"283 580 CURVE SMOOTH",
"195.197 498.782 OFFCURVE",
"137.211 404.675 OFFCURVE",
"109 294 CURVE SMOOTH",
"100.333 260 OFFCURVE",
"96 223.333 OFFCURVE",
"96 184 CURVE SMOOTH",
"96 144.667 OFFCURVE",
"104 104.667 OFFCURVE",
"120 64 CURVE SMOOTH",
"149.333 -9.333 OFFCURVE",
"216.667 -63 OFFCURVE",
"310 -63 CURVE SMOOTH"
);
},
{
closed = 1;
nodes = (
"745.833 -369 OFFCURVE",
"802.333 -348 OFFCURVE",
"827 -306 CURVE SMOOTH",
"835 -292 OFFCURVE",
"839 -276.167 OFFCURVE",
"839 -258.5 CURVE SMOOTH",
"839 -240.833 OFFCURVE",
"830.667 -220.333 OFFCURVE",
"814 -197 CURVE SMOOTH",
"778.667 -150.333 OFFCURVE",
"722 -120.667 OFFCURVE",
"644 -108 CURVE SMOOTH",
"635.333 -106.667 OFFCURVE",
"631 -109 OFFCURVE",
"631 -115 CURVE SMOOTH",
"631 -121.667 OFFCURVE",
"636.333 -125.667 OFFCURVE",
"647 -127 CURVE SMOOTH",
"711 -137.667 OFFCURVE",
"758.333 -165.667 OFFCURVE",
"789 -211 CURVE SMOOTH",
"803.667 -232.333 OFFCURVE",
"811 -250.833 OFFCURVE",
"811 -266.5 CURVE SMOOTH",
"811 -282.167 OFFCURVE",
"807.667 -295.667 OFFCURVE",
"801 -307 CURVE SMOOTH",
"786.333 -332.333 OFFCURVE",
"758.667 -345 OFFCURVE",
"718 -345 CURVE SMOOTH",
"702 -345 OFFCURVE",
"684.333 -343 OFFCURVE",
"665 -339 CURVE SMOOTH",
"554.333 -317.667 OFFCURVE",
"455.167 -265.5 OFFCURVE",
"390.5 -215.5 CURVE SMOOTH",
"358.167 -190.5 OFFCURVE",
"327.333 -166 OFFCURVE",
"298 -142 CURVE SMOOTH",
"230.667 -88 OFFCURVE",
"168.333 -61 OFFCURVE",
"111 -61 CURVE SMOOTH",
"69.667 -61 OFFCURVE",
"29 -104.5 OFFCURVE",
"29 -130.5 CURVE SMOOTH",
"29 -143.5 OFFCURVE",
"31.667 -150 OFFCURVE",
"37 -150 CURVE SMOOTH",
"48.225 -151.604 OFFCURVE",
"46.518 -118.303 OFFCURVE",
"68.5 -104.5 CURVE SMOOTH",
"82.833 -95.5 OFFCURVE",
"97 -91 OFFCURVE",
"111 -91 CURVE SMOOTH",
"149.667 -91 OFFCURVE",
"188.667 -109.333 OFFCURVE",
"228 -146 CURVE SMOOTH",
"283 -200 LINE SMOOTH",
"328.333 -246.667 OFFCURVE",
"376.667 -284.667 OFFCURVE",
"428 -314 CURVE SMOOTH",
"492.667 -350.667 OFFCURVE",
"569.167 -369 OFFCURVE",
"657.5 -369 CURVE SMOOTH"
);
}
);
width = 752;
}
);
note = Q;
unicode = 0051;
},
{
glyphname = R;
lastChange = "2020-12-20 20:29:42 +0000";
layers = (
{
layerId = "1691882E-B915-4755-A5B2-757873D945FF";
paths = (
{
closed = 1;
nodes = (
"928.5 -41 OFFCURVE",
"963 -24.667 OFFCURVE",
"993 8 CURVE SMOOTH",
"1023 40.667 OFFCURVE",
"1057.333 100.333 OFFCURVE",
"1096 187 CURVE SMOOTH",
"1100.667 197 OFFCURVE",
"1100.333 202 OFFCURVE",
"1095 202 CURVE SMOOTH",
"1089.667 202 OFFCURVE",
"1084.333 197 OFFCURVE",
"1079 187 CURVE SMOOTH",
"1043.667 116.333 OFFCURVE",
"1012.5 67.667 OFFCURVE",
"985.5 41 CURVE SMOOTH",
"958.5 14.333 OFFCURVE",
"933 1 OFFCURVE",
"909 1 CURVE SMOOTH",
"874.333 1 OFFCURVE",
"847 24.333 OFFCURVE",
"811 79 CURVE SMOOTH",
"758.333 159.667 OFFCURVE",
"721.333 259 OFFCURVE",
"700 377 CURVE",
"732 378.333 OFFCURVE",
"762.667 381.333 OFFCURVE",
"792 386 CURVE SMOOTH",
"894.667 402.667 OFFCURVE",
"976.667 434.667 OFFCURVE",
"1038 482 CURVE SMOOTH",
"1086.667 520.667 OFFCURVE",
"1111 559.667 OFFCURVE",
"1111 599 CURVE SMOOTH",
"1111 660.333 OFFCURVE",
"1061 705.667 OFFCURVE",
"961 735 CURVE SMOOTH",
"944.333 739.667 OFFCURVE",
"911.333 746 OFFCURVE",
"862 754 CURVE",
"865.333 763.333 OFFCURVE",
"867 771.167 OFFCURVE",
"867 777.5 CURVE SMOOTH",
"867 783.833 OFFCURVE",
"865 787 OFFCURVE",
"861 787 CURVE SMOOTH",
"854.333 787 OFFCURVE",
"842.333 777.667 OFFCURVE",
"825 759 CURVE",
"771.667 766.333 OFFCURVE",
"713.5 770 OFFCURVE",
"650.5 770 CURVE SMOOTH",
"587.5 770 OFFCURVE",
"518.667 764.667 OFFCURVE",
"444 754 CURVE SMOOTH",
"234.667 723.333 OFFCURVE",
"94 607 OFFCURVE",
"94 475 CURVE SMOOTH",
"94 385.667 OFFCURVE",
"161.333 328 OFFCURVE",
"240 328 CURVE SMOOTH",
"292 328 OFFCURVE",
"336.667 347.333 OFFCURVE",
"374 386 CURVE SMOOTH",
"395.333 408 OFFCURVE",
"408.333 435 OFFCURVE",
"413 467 CURVE SMOOTH",
"413.667 477 OFFCURVE",
"411.333 482 OFFCURVE",
"406 482 CURVE SMOOTH",
"402.667 482 OFFCURVE",
"400.667 477.667 OFFCURVE",
"400 469 CURVE SMOOTH",
"397.333 434.333 OFFCURVE",
"336.667 355 OFFCURVE",
"254 355 CURVE SMOOTH",
"186 355 OFFCURVE",
"143 406 OFFCURVE",
"143 462 CURVE SMOOTH",
"143 520 OFFCURVE",
"174 574.667 OFFCURVE",
"236 626 CURVE SMOOTH",
"334.667 707.333 OFFCURVE",
"520.333 740 OFFCURVE",
"691 740 CURVE SMOOTH",
"728.333 740 OFFCURVE",
"765.667 738.333 OFFCURVE",
"803 735 CURVE",
"767.667 696.333 OFFCURVE",
"728.667 640.667 OFFCURVE",
"686 568 CURVE SMOOTH",
"652.439 509.269 OFFCURVE",
"626.274 459.652 OFFCURVE",
"544.5 315.5 CURVE SMOOTH",
"520.167 272.5 OFFCURVE",
"490.667 226 OFFCURVE",
"456 176 CURVE SMOOTH",
"412 110.667 OFFCURVE",
"377 78.333 OFFCURVE",
"329 41 CURVE SMOOTH",
"287 8.333 OFFCURVE",
"238.667 -8 OFFCURVE",
"184 -8 CURVE SMOOTH",
"134.667 -8 OFFCURVE",
"103.333 9.333 OFFCURVE",
"90 44 CURVE SMOOTH",
"86.667 53.333 OFFCURVE",
"85 62 OFFCURVE",
"85 70 CURVE SMOOTH",
"85 106 OFFCURVE",
"121.167 147 OFFCURVE",
"164.5 147 CURVE SMOOTH",
"204.603 147 OFFCURVE",
"239.832 122.664 OFFCURVE",
"246 135 CURVE SMOOTH",
"248 139 OFFCURVE",
"244.667 142.667 OFFCURVE",
"236 146 CURVE SMOOTH",
"203.333 157.333 OFFCURVE",
"172.333 163 OFFCURVE",
"143 163 CURVE SMOOTH",
"99.667 163 OFFCURVE",
"65.667 149.333 OFFCURVE",
"41 122 CURVE SMOOTH",
"25.667 104.667 OFFCURVE",
"18 88.5 OFFCURVE",
"18 73.5 CURVE SMOOTH",
"18 58.5 OFFCURVE",
"20.667 45.333 OFFCURVE",
"26 34 CURVE SMOOTH",
"48 -14.667 OFFCURVE",
"104 -39 OFFCURVE",
"194 -39 CURVE SMOOTH",
"293.333 -39 OFFCURVE",
"382.333 3.333 OFFCURVE",
"461 88 CURVE SMOOTH",
"511.667 144 OFFCURVE",
"563 222.833 OFFCURVE",
"587 267.5 CURVE SMOOTH",
"599 289.833 OFFCURVE",
"615.667 322.333 OFFCURVE",
"637 365 CURVE",
"655.667 254.333 OFFCURVE",
"705 90.833 OFFCURVE",
"777 15.5 CURVE SMOOTH",
"813 -22.167 OFFCURVE",
"850.5 -41 OFFCURVE",
"889.5 -41 CURVE SMOOTH"
);
},
{
closed = 1;
nodes = (
"680.667 447.667 OFFCURVE",
"715.333 508 OFFCURVE",
"762 584 CURVE SMOOTH",
"808.667 660 OFFCURVE",
"838 708.333 OFFCURVE",
"850 729 CURVE",
"899.333 721 OFFCURVE",
"932 714.667 OFFCURVE",
"948 710 CURVE SMOOTH",
"1000 694 OFFCURVE",
"1029.667 667.333 OFFCURVE",
"1037 630 CURVE SMOOTH",
"1038.333 624.667 OFFCURVE",
"1039 619.333 OFFCURVE",
"1039 614 CURVE SMOOTH",
"1039 578.667 OFFCURVE",
"1018.667 542.333 OFFCURVE",
"978 505 CURVE SMOOTH",
"924.667 455 OFFCURVE",
"860 425.333 OFFCURVE",
"784 416 CURVE SMOOTH",
"722.5 410.5 LINE SMOOTH",
"694.167 408.167 OFFCURVE",
"672.667 405.667 OFFCURVE",
"658 403 CURVE"
);
}
);
width = 1024;
}
);
note = R;
unicode = 0052;
},
{
glyphname = S;
lastChange = "2020-12-20 20:29:42 +0000";
layers = (
{
layerId = "1691882E-B915-4755-A5B2-757873D945FF";
paths = (
{
closed = 1;
nodes = (
"478.333 -91 OFFCURVE",
"582 -65 OFFCURVE",
"668 -13 CURVE SMOOTH",
"742.667 31.667 OFFCURVE",
"799.333 85 OFFCURVE",
"838 147 CURVE SMOOTH",
"860 181.667 OFFCURVE",
"871 215.667 OFFCURVE",
"871 249 CURVE SMOOTH",
"871 295.667 OFFCURVE",
"845.667 354 OFFCURVE",
"767 402 CURVE SMOOTH",
"741 418 OFFCURVE",
"699.833 438.833 OFFCURVE",
"643.5 464.5 CURVE SMOOTH",
"587.167 490.167 OFFCURVE",
"549.667 508.667 OFFCURVE",
"531 520 CURVE SMOOTH",
"481 551.333 OFFCURVE",
"456 586.667 OFFCURVE",
"456 626 CURVE SMOOTH",
"456 655.333 OFFCURVE",
"473 684.667 OFFCURVE",
"507 714 CURVE SMOOTH",
"529 732.667 OFFCURVE",
"555 747.333 OFFCURVE",
"585 758 CURVE SMOOTH",
"642.333 778.667 OFFCURVE",
"694.667 789 OFFCURVE",
"742 789 CURVE SMOOTH",
"796 789 OFFCURVE",
"838.333 774.333 OFFCURVE",
"869 745 CURVE SMOOTH",
"890.333 724.333 OFFCURVE",
"901 702.333 OFFCURVE",
"901 679 CURVE SMOOTH",
"901 672.333 OFFCURVE",
"900 665.333 OFFCURVE",
"898 658 CURVE SMOOTH",
"890.667 630 OFFCURVE",
"871 614 OFFCURVE",
"839 610 CURVE SMOOTH",
"821 608 OFFCURVE",
"812.667 602.667 OFFCURVE",
"814 594 CURVE SMOOTH",
"815.333 588 OFFCURVE",
"822 586.667 OFFCURVE",
"834 590 CURVE SMOOTH",
"862 598 OFFCURVE",
"884.333 608.667 OFFCURVE",
"901 622 CURVE SMOOTH",
"925 642.667 OFFCURVE",
"937 666 OFFCURVE",
"937 692 CURVE SMOOTH",
"937 698.667 OFFCURVE",
"936.333 705.333 OFFCURVE",
"935 712 CURVE SMOOTH",
"919 780 OFFCURVE",
"844.333 814 OFFCURVE",
"731 814 CURVE SMOOTH",
"610.333 814 OFFCURVE",
"517 786 OFFCURVE",
"451 730 CURVE SMOOTH",
"405 690.667 OFFCURVE",
"382 650.333 OFFCURVE",
"382 609 CURVE SMOOTH",
"382 561.667 OFFCURVE",
"407.667 520.667 OFFCURVE",
"459 486 CURVE SMOOTH",
"482.333 470.667 OFFCURVE",
"527.833 448.5 OFFCURVE",
"595.5 419.5 CURVE SMOOTH",
"663.167 390.5 OFFCURVE",
"708 367.333 OFFCURVE",
"730 350 CURVE SMOOTH",
"770.667 315.333 OFFCURVE",
"791 275.333 OFFCURVE",
"791 230 CURVE SMOOTH",
"791 210 OFFCURVE",
"787 189.333 OFFCURVE",
"779 168 CURVE SMOOTH",
"753.667 96 OFFCURVE",
"698 37.333 OFFCURVE",
"612 -8 CURVE SMOOTH",
"532 -49.333 OFFCURVE",
"435.5 -66 OFFCURVE",
"385.5 -66 CURVE SMOOTH",
"360.5 -66 OFFCURVE",
"341.667 -65.333 OFFCURVE",
"329 -64 CURVE SMOOTH",
"217 -56 OFFCURVE",
"138.333 -21.667 OFFCURVE",
"93 39 CURVE SMOOTH",
"67.667 73 OFFCURVE",
"55 112.667 OFFCURVE",
"55 158 CURVE SMOOTH",
"55 226.667 OFFCURVE",
"73.667 290.333 OFFCURVE",
"111 349 CURVE SMOOTH",
"128.333 376.333 OFFCURVE",
"151.333 401.333 OFFCURVE",
"180 424 CURVE SMOOTH",
"206.667 446.667 OFFCURVE",
"190 447 OFFCURVE",
"170 439 CURVE SMOOTH",
"74 393.667 OFFCURVE",
"-1 263.667 OFFCURVE",
"-1 173 CURVE SMOOTH",
"-1 101.667 OFFCURVE",
"25.667 43.333 OFFCURVE",
"79 -2 CURVE SMOOTH",
"147.667 -61.333 OFFCURVE",
"240.333 -91 OFFCURVE",
"357 -91 CURVE SMOOTH"
);
}
);
width = 901;
}
);
note = S;
unicode = 0053;
},
{
glyphname = T;
lastChange = "2020-12-20 21:53:05 +0000";
layers = (
{
layerId = "1691882E-B915-4755-A5B2-757873D945FF";
paths = (
{
closed = 1;
nodes = (
"497.333 -94 OFFCURVE",
"587 -73.333 OFFCURVE",
"663 -32 CURVE SMOOTH",
"779.354 32.195 OFFCURVE",
"851.731 156.191 OFFCURVE",
"908 324 CURVE SMOOTH",
"945.333 448 OFFCURVE",
"987.667 547.333 OFFCURVE",
"1035 622 CURVE",
"1105 592 OFFCURVE",
"1189 570.667 OFFCURVE",
"1287 558 CURVE SMOOTH",
"1310.718 554.612 OFFCURVE",
"1336.152 552.356 OFFCURVE",
"1372 569 CURVE SMOOTH",
"1390.667 577.667 OFFCURVE",
"1400 590.167 OFFCURVE",
"1400 606.5 CURVE SMOOTH",
"1400 622.833 OFFCURVE",
"1396.5 631 OFFCURVE",
"1389.5 631 CURVE SMOOTH",
"1382.5 631 OFFCURVE",
"1379 626 OFFCURVE",
"1379 616 CURVE SMOOTH",
"1379 596 OFFCURVE",
"1358.333 586 OFFCURVE",
"1317 586 CURVE SMOOTH",
"1275.667 586 OFFCURVE",
"1175.333 603 OFFCURVE",
"1050 643 CURVE",
"1062 657.667 OFFCURVE",
"1094 688.333 OFFCURVE",
"1102 683 CURVE",
"1107.333 681.667 OFFCURVE",
"1111.667 681.333 OFFCURVE",
"1115 682 CURVE SMOOTH",
"1129.142 686.714 OFFCURVE",
"1123.918 723.567 OFFCURVE",
"1095 712 CURVE",
"1079 711.333 OFFCURVE",
"1054.667 691 OFFCURVE",
"1022 651 CURVE",
"892 696 OFFCURVE",
"780 740 OFFCURVE",
"643 740 CURVE SMOOTH",
"623.667 740 OFFCURVE",
"603.333 738.333 OFFCURVE",
"582 735 CURVE SMOOTH",
"488 721 OFFCURVE",
"419 680 OFFCURVE",
"375 612 CURVE SMOOTH",
"350.333 574 OFFCURVE",
"338 535 OFFCURVE",
"338 495 CURVE SMOOTH",
"338 478.333 OFFCURVE",
"340.333 461.333 OFFCURVE",
"345 444 CURVE SMOOTH",
"359.667 389.333 OFFCURVE",
"394.333 352.333 OFFCURVE",
"449 333 CURVE SMOOTH",
"467.667 326.333 OFFCURVE",
"489 323 OFFCURVE",
"513 323 CURVE SMOOTH",
"537 323 OFFCURVE",
"563 331.333 OFFCURVE",
"591 348 CURVE SMOOTH",
"637 374 OFFCURVE",
"663.333 413 OFFCURVE",
"670 465 CURVE",
"670 478.333 OFFCURVE",
"660.667 482.333 OFFCURVE",
"650 473 CURVE",
"650 471 LINE SMOOTH",
"655.439 438.369 OFFCURVE",
"607.547 374.362 OFFCURVE",
"551.5 358.5 CURVE SMOOTH",
"533.833 353.5 OFFCURVE",
"518.167 351 OFFCURVE",
"504.5 351 CURVE SMOOTH",
"490.833 351 OFFCURVE",
"475.667 353.333 OFFCURVE",
"459 358 CURVE SMOOTH",
"411.667 372.667 OFFCURVE",
"388 407 OFFCURVE",
"388 461 CURVE SMOOTH",
"388 510.333 OFFCURVE",
"411.667 557.667 OFFCURVE",
"459 603 CURVE SMOOTH",
"517.667 659.667 OFFCURVE",
"594 688 OFFCURVE",
"688 688 CURVE SMOOTH",
"782 688 OFFCURVE",
"888 669.333 OFFCURVE",
"1006 632 CURVE",
"996.667 619.333 OFFCURVE",
"975.333 576.333 OFFCURVE",
"942 503 CURVE SMOOTH",
"844.667 289.667 OFFCURVE",
"768 152.667 OFFCURVE",
"712 92 CURVE SMOOTH",
"623.333 -4.667 OFFCURVE",
"510 -54.667 OFFCURVE",
"372 -58 CURVE SMOOTH",
"367 -58 LINE SMOOTH",
"291 -58 OFFCURVE",
"211.333 -30.667 OFFCURVE",
"150 20 CURVE SMOOTH",
"92.667 65.333 OFFCURVE",
"64 130 OFFCURVE",
"64 214 CURVE SMOOTH",
"64 250.667 OFFCURVE",
"72.667 283.667 OFFCURVE",
"90 313 CURVE SMOOTH",
"118.851 363.008 OFFCURVE",
"144.525 364.357 OFFCURVE",
"172 392 CURVE",
"173.333 403.333 OFFCURVE",
"168 409 OFFCURVE",
"156 409 CURVE SMOOTH",
"148.667 409 OFFCURVE",
"137.667 404.667 OFFCURVE",
"123 396 CURVE SMOOTH",
"51 353.333 OFFCURVE",
"30 251.167 OFFCURVE",
"30 206.5 CURVE SMOOTH",
"30 184.167 OFFCURVE",
"30.667 167.333 OFFCURVE",
"32 156 CURVE SMOOTH",
"44 71.333 OFFCURVE",
"86 8.667 OFFCURVE",
"158 -32 CURVE SMOOTH",
"231.333 -73.333 OFFCURVE",
"310 -94 OFFCURVE",
"394 -94 CURVE SMOOTH"
);
}
);
width = 918;
}
);
note = T;
unicode = 0054;
},
{
glyphname = U;
lastChange = "2020-12-20 20:29:42 +0000";
layers = (
{
layerId = "1691882E-B915-4755-A5B2-757873D945FF";
paths = (
{
closed = 1;
nodes = (
"910 -85 LINE",
"924.667 -83 OFFCURVE",
"932 -78 OFFCURVE",
"932 -70 CURVE SMOOTH",
"932 -64.667 OFFCURVE",
"926 -62 OFFCURVE",
"914 -62 CURVE SMOOTH",
"903 -62 LINE SMOOTH",
"878.333 -62 OFFCURVE",
"866 -39 OFFCURVE",
"866 7 CURVE SMOOTH",
"866 29.667 OFFCURVE",
"868.333 55 OFFCURVE",
"873 83 CURVE SMOOTH",
"890.333 185.667 OFFCURVE",
"926.667 286.667 OFFCURVE",
"982 386 CURVE SMOOTH",
"998.667 415.333 OFFCURVE",
"1007 437.667 OFFCURVE",
"1007 453 CURVE SMOOTH",
"1007 465.667 OFFCURVE",
"1000.333 475.333 OFFCURVE",
"987 482 CURVE",
"969.667 482 OFFCURVE",
"951 464.333 OFFCURVE",
"931 429 CURVE SMOOTH",
"866.5 301.5 LINE SMOOTH",
"824.167 217.167 OFFCURVE",
"789.667 155.667 OFFCURVE",
"763 117 CURVE SMOOTH",
"736 80 LINE SMOOTH",
"682 13.333 OFFCURVE",
"635 -20 OFFCURVE",
"595 -20 CURVE SMOOTH",
"557.667 -20 OFFCURVE",
"539 8 OFFCURVE",
"539 64 CURVE SMOOTH",
"539 124 OFFCURVE",
"568.833 219.5 OFFCURVE",
"609.5 305.5 CURVE SMOOTH",
"629.833 348.5 OFFCURVE",
"651 396 OFFCURVE",
"673 448 CURVE SMOOTH",
"711 536 OFFCURVE",
"730 609.667 OFFCURVE",
"730 669 CURVE SMOOTH",
"730 748.333 OFFCURVE",
"697.667 802 OFFCURVE",
"633 830 CURVE SMOOTH",
"601 843.333 OFFCURVE",
"566.333 850 OFFCURVE",
"529 850 CURVE SMOOTH",
"457.667 850 OFFCURVE",
"383.667 828.667 OFFCURVE",
"307 786 CURVE SMOOTH",
"218.333 737.333 OFFCURVE",
"147.667 680 OFFCURVE",
"95 614 CURVE SMOOTH",
"29.667 532 OFFCURVE",
"-3 448.167 OFFCURVE",
"-3 362.5 CURVE SMOOTH",
"-3 276.833 OFFCURVE",
"24.333 213 OFFCURVE",
"79 171 CURVE SMOOTH",
"111 146.333 OFFCURVE",
"147.667 134 OFFCURVE",
"189 134 CURVE SMOOTH",
"230.333 134 OFFCURVE",
"273.667 148 OFFCURVE",
"319 176 CURVE SMOOTH",
"380.333 212.667 OFFCURVE",
"423.667 264.667 OFFCURVE",
"449 332 CURVE SMOOTH",
"460.333 362.667 OFFCURVE",
"466 389.333 OFFCURVE",
"466 412 CURVE SMOOTH",
"466 434.667 OFFCURVE",
"461.333 454.333 OFFCURVE",
"452 471 CURVE SMOOTH",
"438 494.333 OFFCURVE",
"417.333 506 OFFCURVE",
"390 506 CURVE SMOOTH",
"354 506 OFFCURVE",
"310 484.667 OFFCURVE",
"306 474 CURVE SMOOTH",
"304.667 470 OFFCURVE",
"312.167 469.833 OFFCURVE",
"328.5 473.5 CURVE SMOOTH",
"344.833 477.167 OFFCURVE",
"358.333 479 OFFCURVE",
"369 479 CURVE SMOOTH",
"414.333 479 OFFCURVE",
"437 454 OFFCURVE",
"437 404 CURVE SMOOTH",
"437 370 OFFCURVE",
"423.667 331 OFFCURVE",
"397 287 CURVE SMOOTH",
"348.333 204.333 OFFCURVE",
"283.333 163 OFFCURVE",
"202 163 CURVE SMOOTH",
"132.667 163 OFFCURVE",
"84 197 OFFCURVE",
"56 265 CURVE SMOOTH",
"43.333 295 OFFCURVE",
"37 328.5 OFFCURVE",
"37 365.5 CURVE SMOOTH",
"37 402.5 OFFCURVE",
"45.667 443.333 OFFCURVE",
"63 488 CURVE SMOOTH",
"105 594.667 OFFCURVE",
"185.667 683 OFFCURVE",
"305 753 CURVE SMOOTH",
"385.667 799.667 OFFCURVE",
"461.333 823 OFFCURVE",
"532 823 CURVE SMOOTH",
"571.333 823 OFFCURVE",
"606.667 814.667 OFFCURVE",
"638 798 CURVE SMOOTH",
"664 782.667 OFFCURVE",
"677 750.667 OFFCURVE",
"677 702 CURVE SMOOTH",
"677 636.667 OFFCURVE",
"663.167 566.667 OFFCURVE",
"594.5 416 CURVE SMOOTH",
"560.167 340.667 OFFCURVE",
"532.667 273.5 OFFCURVE",
"512 214.5 CURVE SMOOTH",
"491.333 155.5 OFFCURVE",
"481 107.833 OFFCURVE",
"481 71.5 CURVE SMOOTH",
"481 35.167 OFFCURVE",
"491 5 OFFCURVE",
"511 -19 CURVE SMOOTH",
"526.333 -37 OFFCURVE",
"548 -46 OFFCURVE",
"576 -46 CURVE SMOOTH",
"614.667 -46 OFFCURVE",
"655.667 -28.667 OFFCURVE",
"699 6 CURVE SMOOTH",
"745 43.333 OFFCURVE",
"791.667 101 OFFCURVE",
"839 179 CURVE",
"830.333 137.667 OFFCURVE",
"826 98 OFFCURVE",
"826 60 CURVE SMOOTH",
"826 33.333 OFFCURVE",
"823 -11.333 OFFCURVE",
"847 -50 CURVE SMOOTH",
"859 -69.333 OFFCURVE",
"876 -81 OFFCURVE",
"898 -85 CURVE"
);
}
);
width = 942;
}
);
note = U;
unicode = 0055;
},
{
glyphname = Ucircumflex;
lastChange = "2020-12-20 20:29:42 +0000";
layers = (
{
layerId = "1691882E-B915-4755-A5B2-757873D945FF";
paths = (
{
closed = 1;
nodes = (
"910 -85 LINE",
"924.667 -83 OFFCURVE",
"932 -78 OFFCURVE",
"932 -70 CURVE SMOOTH",
"932 -64.667 OFFCURVE",
"926 -62 OFFCURVE",
"914 -62 CURVE SMOOTH",
"903 -62 LINE SMOOTH",
"878.333 -62 OFFCURVE",
"866 -39 OFFCURVE",
"866 7 CURVE SMOOTH",
"866 29.667 OFFCURVE",
"868.333 55 OFFCURVE",
"873 83 CURVE SMOOTH",
"890.333 185.667 OFFCURVE",
"924.333 282.667 OFFCURVE",
"975 374 CURVE SMOOTH",
"987 395.333 OFFCURVE",
"996.333 415.333 OFFCURVE",
"1003 434 CURVE SMOOTH",
"1011 456.667 OFFCURVE",
"1005.667 472.667 OFFCURVE",
"987 482 CURVE",
"969.667 482 OFFCURVE",
"951 464.333 OFFCURVE",
"931 429 CURVE SMOOTH",
"866.5 301.5 LINE SMOOTH",
"824.167 217.167 OFFCURVE",
"789.667 155.667 OFFCURVE",
"763 117 CURVE SMOOTH",
"736 80 LINE SMOOTH",
"682 13.333 OFFCURVE",
"635 -20 OFFCURVE",
"595 -20 CURVE SMOOTH",
"557.667 -20 OFFCURVE",
"539 8 OFFCURVE",
"539 64 CURVE SMOOTH",
"539 124 OFFCURVE",
"568.833 219.5 OFFCURVE",
"609.5 305.5 CURVE SMOOTH",
"629.833 348.5 OFFCURVE",
"651 396 OFFCURVE",
"673 448 CURVE SMOOTH",
"711 536 OFFCURVE",
"730 609.667 OFFCURVE",
"730 669 CURVE SMOOTH",
"730 748.333 OFFCURVE",
"697.667 802 OFFCURVE",
"633 830 CURVE SMOOTH",
"601 843.333 OFFCURVE",
"566.333 850 OFFCURVE",
"529 850 CURVE SMOOTH",
"457.667 850 OFFCURVE",
"383.667 828.667 OFFCURVE",
"307 786 CURVE SMOOTH",
"218.333 737.333 OFFCURVE",
"147.667 680 OFFCURVE",
"95 614 CURVE SMOOTH",
"29.667 532 OFFCURVE",
"-3 448.167 OFFCURVE",
"-3 362.5 CURVE SMOOTH",
"-3 276.833 OFFCURVE",
"24.333 213 OFFCURVE",
"79 171 CURVE SMOOTH",
"111 146.333 OFFCURVE",
"147.667 134 OFFCURVE",
"189 134 CURVE SMOOTH",
"230.333 134 OFFCURVE",
"273.667 148 OFFCURVE",
"319 176 CURVE SMOOTH",
"380.333 212.667 OFFCURVE",
"423.667 264.667 OFFCURVE",
"449 332 CURVE SMOOTH",
"460.333 362.667 OFFCURVE",
"466 389.333 OFFCURVE",
"466 412 CURVE SMOOTH",
"466 434.667 OFFCURVE",
"461.333 454.333 OFFCURVE",
"452 471 CURVE SMOOTH",
"438 494.333 OFFCURVE",
"417.333 506 OFFCURVE",
"390 506 CURVE SMOOTH",
"354 506 OFFCURVE",
"310 484.667 OFFCURVE",
"306 474 CURVE SMOOTH",
"304.667 470 OFFCURVE",
"312.167 469.833 OFFCURVE",
"328.5 473.5 CURVE SMOOTH",
"344.833 477.167 OFFCURVE",
"358.333 479 OFFCURVE",
"369 479 CURVE SMOOTH",
"414.333 479 OFFCURVE",
"437 454 OFFCURVE",
"437 404 CURVE SMOOTH",
"437 370 OFFCURVE",
"423.667 331 OFFCURVE",
"397 287 CURVE SMOOTH",
"348.333 204.333 OFFCURVE",
"283.333 163 OFFCURVE",
"202 163 CURVE SMOOTH",
"132.667 163 OFFCURVE",
"84 197 OFFCURVE",
"56 265 CURVE SMOOTH",
"43.333 295 OFFCURVE",
"37 328.5 OFFCURVE",
"37 365.5 CURVE SMOOTH",
"37 402.5 OFFCURVE",
"45.667 443.333 OFFCURVE",
"63 488 CURVE SMOOTH",
"105 594.667 OFFCURVE",
"185.667 683 OFFCURVE",
"305 753 CURVE SMOOTH",
"385.667 799.667 OFFCURVE",
"461.333 823 OFFCURVE",
"532 823 CURVE SMOOTH",
"571.333 823 OFFCURVE",
"606.667 814.667 OFFCURVE",
"638 798 CURVE SMOOTH",
"664 782.667 OFFCURVE",
"677 750.667 OFFCURVE",
"677 702 CURVE SMOOTH",
"677 636.667 OFFCURVE",
"663.167 566.667 OFFCURVE",
"594.5 416 CURVE SMOOTH",
"560.167 340.667 OFFCURVE",
"532.667 273.5 OFFCURVE",
"512 214.5 CURVE SMOOTH",
"491.333 155.5 OFFCURVE",
"481 107.833 OFFCURVE",
"481 71.5 CURVE SMOOTH",
"481 35.167 OFFCURVE",
"491 5 OFFCURVE",
"511 -19 CURVE SMOOTH",
"526.333 -37 OFFCURVE",
"548 -46 OFFCURVE",
"576 -46 CURVE SMOOTH",
"614.667 -46 OFFCURVE",
"655.667 -28.667 OFFCURVE",
"699 6 CURVE SMOOTH",
"745 43.333 OFFCURVE",
"791.667 101 OFFCURVE",
"839 179 CURVE",
"830.333 137.667 OFFCURVE",
"826 98 OFFCURVE",
"826 60 CURVE SMOOTH",
"826 33.333 OFFCURVE",
"823 -11.333 OFFCURVE",
"847 -50 CURVE SMOOTH",
"859 -69.333 OFFCURVE",
"876 -81 OFFCURVE",
"898 -85 CURVE"
);
},
{
closed = 1;
nodes = (
"820.272 725.194 OFFCURVE",
"855.482 737.119 OFFCURVE",
"834 741 CURVE",
"966 812 LINE",
"1012 741 LINE",
"1015.596 733.807 OFFCURVE",
"1037.715 731.561 OFFCURVE",
"1032 741 CURVE",
"996 847 LINE SMOOTH",
"995.333 849 OFFCURVE",
"992 850 OFFCURVE",
"986 850 CURVE SMOOTH",
"980 850 OFFCURVE",
"970.667 849 OFFCURVE",
"958 847 CURVE",
"809 741 LINE"
);
}
);
width = 942;
}
);
note = Ucircumflex;
unicode = 00DB;
},
{
glyphname = Udieresis;
lastChange = "2020-12-20 20:29:43 +0000";
layers = (
{
layerId = "1691882E-B915-4755-A5B2-757873D945FF";
paths = (
{
closed = 1;
nodes = (
"910 -85 LINE",
"924.667 -83 OFFCURVE",
"932 -78 OFFCURVE",
"932 -70 CURVE SMOOTH",
"932 -64.667 OFFCURVE",
"926 -62 OFFCURVE",
"914 -62 CURVE SMOOTH",
"903 -62 LINE SMOOTH",
"878.333 -62 OFFCURVE",
"866 -39 OFFCURVE",
"866 7 CURVE SMOOTH",
"866 29.667 OFFCURVE",
"868.333 55 OFFCURVE",
"873 83 CURVE SMOOTH",
"890.333 185.667 OFFCURVE",
"926.667 286.667 OFFCURVE",
"982 386 CURVE SMOOTH",
"998.667 415.333 OFFCURVE",
"1007 437.667 OFFCURVE",
"1007 453 CURVE SMOOTH",
"1007 465.667 OFFCURVE",
"1000.333 475.333 OFFCURVE",
"987 482 CURVE",
"969.667 482 OFFCURVE",
"951 464.333 OFFCURVE",
"931 429 CURVE SMOOTH",
"866.5 301.5 LINE SMOOTH",
"824.167 217.167 OFFCURVE",
"789.667 155.667 OFFCURVE",
"763 117 CURVE SMOOTH",
"736 80 LINE SMOOTH",
"682 13.333 OFFCURVE",
"635 -20 OFFCURVE",
"595 -20 CURVE SMOOTH",
"557.667 -20 OFFCURVE",
"539 8 OFFCURVE",
"539 64 CURVE SMOOTH",
"539 124 OFFCURVE",
"568.833 219.5 OFFCURVE",
"609.5 305.5 CURVE SMOOTH",
"629.833 348.5 OFFCURVE",
"651 396 OFFCURVE",
"673 448 CURVE SMOOTH",
"711 536 OFFCURVE",
"730 609.667 OFFCURVE",
"730 669 CURVE SMOOTH",
"730 748.333 OFFCURVE",
"697.667 802 OFFCURVE",
"633 830 CURVE SMOOTH",
"601 843.333 OFFCURVE",
"566.333 850 OFFCURVE",
"529 850 CURVE SMOOTH",
"457.667 850 OFFCURVE",
"383.667 828.667 OFFCURVE",
"307 786 CURVE SMOOTH",
"218.333 737.333 OFFCURVE",
"147.667 680 OFFCURVE",
"95 614 CURVE SMOOTH",
"29.667 532 OFFCURVE",
"-3 448.167 OFFCURVE",
"-3 362.5 CURVE SMOOTH",
"-3 276.833 OFFCURVE",
"24.333 213 OFFCURVE",
"79 171 CURVE SMOOTH",
"111 146.333 OFFCURVE",
"147.667 134 OFFCURVE",
"189 134 CURVE SMOOTH",
"230.333 134 OFFCURVE",
"273.667 148 OFFCURVE",
"319 176 CURVE SMOOTH",
"380.333 212.667 OFFCURVE",
"423.667 264.667 OFFCURVE",
"449 332 CURVE SMOOTH",
"460.333 362.667 OFFCURVE",
"466 389.333 OFFCURVE",
"466 412 CURVE SMOOTH",
"466 434.667 OFFCURVE",
"461.333 454.333 OFFCURVE",
"452 471 CURVE SMOOTH",
"438 494.333 OFFCURVE",
"417.333 506 OFFCURVE",
"390 506 CURVE SMOOTH",
"354 506 OFFCURVE",
"310 484.667 OFFCURVE",
"306 474 CURVE SMOOTH",
"304.667 470 OFFCURVE",
"312.167 469.833 OFFCURVE",
"328.5 473.5 CURVE SMOOTH",
"344.833 477.167 OFFCURVE",
"358.333 479 OFFCURVE",
"369 479 CURVE SMOOTH",
"414.333 479 OFFCURVE",
"437 454 OFFCURVE",
"437 404 CURVE SMOOTH",
"437 370 OFFCURVE",
"423.667 331 OFFCURVE",
"397 287 CURVE SMOOTH",
"348.333 204.333 OFFCURVE",
"283.333 163 OFFCURVE",
"202 163 CURVE SMOOTH",
"132.667 163 OFFCURVE",
"84 197 OFFCURVE",
"56 265 CURVE SMOOTH",
"43.333 295 OFFCURVE",
"37 328.5 OFFCURVE",
"37 365.5 CURVE SMOOTH",
"37 402.5 OFFCURVE",
"45.667 443.333 OFFCURVE",
"63 488 CURVE SMOOTH",
"105 594.667 OFFCURVE",
"185.667 683 OFFCURVE",
"305 753 CURVE SMOOTH",
"385.667 799.667 OFFCURVE",
"461.333 823 OFFCURVE",
"532 823 CURVE SMOOTH",
"571.333 823 OFFCURVE",
"606.667 814.667 OFFCURVE",
"638 798 CURVE SMOOTH",
"664 782.667 OFFCURVE",
"677 750.667 OFFCURVE",
"677 702 CURVE SMOOTH",
"677 636.667 OFFCURVE",
"663.167 566.667 OFFCURVE",
"594.5 416 CURVE SMOOTH",
"560.167 340.667 OFFCURVE",
"532.667 273.5 OFFCURVE",
"512 214.5 CURVE SMOOTH",
"491.333 155.5 OFFCURVE",
"481 107.833 OFFCURVE",
"481 71.5 CURVE SMOOTH",
"481 35.167 OFFCURVE",
"491 5 OFFCURVE",
"511 -19 CURVE SMOOTH",
"526.333 -37 OFFCURVE",
"548 -46 OFFCURVE",
"576 -46 CURVE SMOOTH",
"614.667 -46 OFFCURVE",
"655.667 -28.667 OFFCURVE",
"699 6 CURVE SMOOTH",
"745 43.333 OFFCURVE",
"791.667 101 OFFCURVE",
"839 179 CURVE",
"830.333 137.667 OFFCURVE",
"826 98 OFFCURVE",
"826 60 CURVE SMOOTH",
"826 33.333 OFFCURVE",
"823 -11.333 OFFCURVE",
"847 -50 CURVE SMOOTH",
"859 -69.333 OFFCURVE",
"876 -81 OFFCURVE",
"898 -85 CURVE"
);
},
{
closed = 1;
nodes = (
"853.833 686 OFFCURVE",
"867 700.167 OFFCURVE",
"867 719.5 CURVE SMOOTH",
"867 738.833 OFFCURVE",
"852.833 752 OFFCURVE",
"833.5 752 CURVE SMOOTH",
"814.167 752 OFFCURVE",
"801 737.833 OFFCURVE",
"801 718.5 CURVE SMOOTH",
"801 699.167 OFFCURVE",
"815.167 686 OFFCURVE",
"834.5 686 CURVE SMOOTH"
);
},
{
closed = 1;
nodes = (
"982.833 686 OFFCURVE",
"996 700.167 OFFCURVE",
"996 719.5 CURVE SMOOTH",
"996 738.833 OFFCURVE",
"981.833 752 OFFCURVE",
"962.5 752 CURVE SMOOTH",
"943.167 752 OFFCURVE",
"930 737.833 OFFCURVE",
"930 718.5 CURVE SMOOTH",
"930 699.167 OFFCURVE",
"944.167 686 OFFCURVE",
"963.5 686 CURVE SMOOTH"
);
}
);
width = 942;
}
);
note = Udieresis;
unicode = 00DC;
},
{
glyphname = Ugrave;
lastChange = "2020-12-20 20:29:43 +0000";
layers = (
{
layerId = "1691882E-B915-4755-A5B2-757873D945FF";
paths = (
{
closed = 1;
nodes = (
"910 -85 LINE",
"924.667 -83 OFFCURVE",
"932 -78 OFFCURVE",
"932 -70 CURVE SMOOTH",
"932 -64.667 OFFCURVE",
"926 -62 OFFCURVE",
"914 -62 CURVE SMOOTH",
"903 -62 LINE SMOOTH",
"878.333 -62 OFFCURVE",
"866 -39 OFFCURVE",
"866 7 CURVE SMOOTH",
"866 29.667 OFFCURVE",
"868.333 55 OFFCURVE",
"873 83 CURVE SMOOTH",
"890.333 185.667 OFFCURVE",
"926.667 286.667 OFFCURVE",
"982 386 CURVE SMOOTH",
"998.667 415.333 OFFCURVE",
"1007 437.667 OFFCURVE",
"1007 453 CURVE SMOOTH",
"1007 465.667 OFFCURVE",
"1000.333 475.333 OFFCURVE",
"987 482 CURVE",
"969.667 482 OFFCURVE",
"951 464.333 OFFCURVE",
"931 429 CURVE SMOOTH",
"866.5 301.5 LINE SMOOTH",
"824.167 217.167 OFFCURVE",
"789.667 155.667 OFFCURVE",
"763 117 CURVE SMOOTH",
"736 80 LINE SMOOTH",
"682 13.333 OFFCURVE",
"635 -20 OFFCURVE",
"595 -20 CURVE SMOOTH",
"557.667 -20 OFFCURVE",
"539 8 OFFCURVE",
"539 64 CURVE SMOOTH",
"539 124 OFFCURVE",
"568.833 219.5 OFFCURVE",
"609.5 305.5 CURVE SMOOTH",
"629.833 348.5 OFFCURVE",
"651 396 OFFCURVE",
"673 448 CURVE SMOOTH",
"711 536 OFFCURVE",
"730 609.667 OFFCURVE",
"730 669 CURVE SMOOTH",
"730 748.333 OFFCURVE",
"697.667 802 OFFCURVE",
"633 830 CURVE SMOOTH",
"601 843.333 OFFCURVE",
"566.333 850 OFFCURVE",
"529 850 CURVE SMOOTH",
"457.667 850 OFFCURVE",
"383.667 828.667 OFFCURVE",
"307 786 CURVE SMOOTH",
"218.333 737.333 OFFCURVE",
"147.667 680 OFFCURVE",
"95 614 CURVE SMOOTH",
"29.667 532 OFFCURVE",
"-3 448.167 OFFCURVE",
"-3 362.5 CURVE SMOOTH",
"-3 276.833 OFFCURVE",
"24.333 213 OFFCURVE",
"79 171 CURVE SMOOTH",
"111 146.333 OFFCURVE",
"147.667 134 OFFCURVE",
"189 134 CURVE SMOOTH",
"230.333 134 OFFCURVE",
"273.667 148 OFFCURVE",
"319 176 CURVE SMOOTH",
"380.333 212.667 OFFCURVE",
"423.667 264.667 OFFCURVE",
"449 332 CURVE SMOOTH",
"460.333 362.667 OFFCURVE",
"466 389.333 OFFCURVE",
"466 412 CURVE SMOOTH",
"466 434.667 OFFCURVE",
"461.333 454.333 OFFCURVE",
"452 471 CURVE SMOOTH",
"438 494.333 OFFCURVE",
"417.333 506 OFFCURVE",
"390 506 CURVE SMOOTH",
"354 506 OFFCURVE",
"310 484.667 OFFCURVE",
"306 474 CURVE SMOOTH",
"304.667 470 OFFCURVE",
"312.167 469.833 OFFCURVE",
"328.5 473.5 CURVE SMOOTH",
"344.833 477.167 OFFCURVE",
"358.333 479 OFFCURVE",
"369 479 CURVE SMOOTH",
"414.333 479 OFFCURVE",
"437 454 OFFCURVE",
"437 404 CURVE SMOOTH",
"437 370 OFFCURVE",
"423.667 331 OFFCURVE",
"397 287 CURVE SMOOTH",
"348.333 204.333 OFFCURVE",
"283.333 163 OFFCURVE",
"202 163 CURVE SMOOTH",
"132.667 163 OFFCURVE",
"84 197 OFFCURVE",
"56 265 CURVE SMOOTH",
"43.333 295 OFFCURVE",
"37 328.5 OFFCURVE",
"37 365.5 CURVE SMOOTH",
"37 402.5 OFFCURVE",
"45.667 443.333 OFFCURVE",
"63 488 CURVE SMOOTH",
"105 594.667 OFFCURVE",
"185.667 683 OFFCURVE",
"305 753 CURVE SMOOTH",
"385.667 799.667 OFFCURVE",
"461.333 823 OFFCURVE",
"532 823 CURVE SMOOTH",
"571.333 823 OFFCURVE",
"606.667 814.667 OFFCURVE",
"638 798 CURVE SMOOTH",
"664 782.667 OFFCURVE",
"677 750.667 OFFCURVE",
"677 702 CURVE SMOOTH",
"677 636.667 OFFCURVE",
"663.167 566.667 OFFCURVE",
"594.5 416 CURVE SMOOTH",
"560.167 340.667 OFFCURVE",
"532.667 273.5 OFFCURVE",
"512 214.5 CURVE SMOOTH",
"491.333 155.5 OFFCURVE",
"481 107.833 OFFCURVE",
"481 71.5 CURVE SMOOTH",
"481 35.167 OFFCURVE",
"491 5 OFFCURVE",
"511 -19 CURVE SMOOTH",
"526.333 -37 OFFCURVE",
"548 -46 OFFCURVE",
"576 -46 CURVE SMOOTH",
"614.667 -46 OFFCURVE",
"655.667 -28.667 OFFCURVE",
"699 6 CURVE SMOOTH",
"745 43.333 OFFCURVE",
"791.667 101 OFFCURVE",
"839 179 CURVE",
"830.333 137.667 OFFCURVE",
"826 98 OFFCURVE",
"826 60 CURVE SMOOTH",
"826 33.333 OFFCURVE",
"823 -11.333 OFFCURVE",
"847 -50 CURVE SMOOTH",
"859 -69.333 OFFCURVE",
"876 -81 OFFCURVE",
"898 -85 CURVE"
);
},
{
closed = 1;
nodes = (
"1001.667 715 OFFCURVE",
"1005 718 OFFCURVE",
"1005 724 CURVE SMOOTH",
"1005 732 OFFCURVE",
"857.333 850 OFFCURVE",
"840 850 CURVE SMOOTH",
"827.333 850 OFFCURVE",
"821 842 OFFCURVE",
"821 826 CURVE SMOOTH",
"821 810 OFFCURVE",
"833.333 796 OFFCURVE",
"858 784 CURVE SMOOTH",
"926.5 748 LINE SMOOTH",
"968.167 726 OFFCURVE",
"991 715 OFFCURVE",
"995 715 CURVE SMOOTH"
);
}
);
width = 942;
}
);
note = Ugrave;
unicode = 00D9;
},
{
glyphname = V;
lastChange = "2020-12-20 20:29:42 +0000";
layers = (
{
layerId = "1691882E-B915-4755-A5B2-757873D945FF";
paths = (
{
closed = 1;
nodes = (
"627.667 -96 OFFCURVE",
"763 -9.5 OFFCURVE",
"891 148.5 CURVE SMOOTH",
"955 227.5 OFFCURVE",
"1002.333 307.667 OFFCURVE",
"1033 389 CURVE SMOOTH",
"1045.667 425.667 OFFCURVE",
"1052 457.5 OFFCURVE",
"1052 484.5 CURVE SMOOTH",
"1052 511.5 OFFCURVE",
"1045.667 534.667 OFFCURVE",
"1033 554 CURVE SMOOTH",
"1010.333 588.667 OFFCURVE",
"983.667 610.333 OFFCURVE",
"953 619 CURVE",
"934 621 LINE",
"904.344 616.438 OFFCURVE",
"920.652 602.099 OFFCURVE",
"970 588 CURVE",
"972.667 588 OFFCURVE",
"983.333 582.5 OFFCURVE",
"986 576.5 CURVE SMOOTH",
"990.854 565.579 OFFCURVE",
"1000 548.528 OFFCURVE",
"1000 503 CURVE SMOOTH",
"1000 455 OFFCURVE",
"986.667 402.333 OFFCURVE",
"960 345 CURVE SMOOTH",
"918.667 255 OFFCURVE",
"861.667 172.333 OFFCURVE",
"789 97 CURVE SMOOTH",
"685.667 -10.333 OFFCURVE",
"613.333 -64 OFFCURVE",
"572 -64 CURVE SMOOTH",
"551.333 -64 OFFCURVE",
"541 -48.667 OFFCURVE",
"541 -18 CURVE SMOOTH",
"541 22.667 OFFCURVE",
"558.333 95.333 OFFCURVE",
"593 200 CURVE SMOOTH",
"616.333 270.667 OFFCURVE",
"643 336.667 OFFCURVE",
"673 398 CURVE SMOOTH",
"721 496.667 OFFCURVE",
"745 579.333 OFFCURVE",
"745 646 CURVE SMOOTH",
"745 736.667 OFFCURVE",
"712.667 796 OFFCURVE",
"648 824 CURVE SMOOTH",
"611.333 838 OFFCURVE",
"570.667 845 OFFCURVE",
"526 845 CURVE SMOOTH",
"481.333 845 OFFCURVE",
"433.667 835.333 OFFCURVE",
"383 816 CURVE SMOOTH",
"180.73 741.479 OFFCURVE",
"-8 565.772 OFFCURVE",
"-8 365 CURVE SMOOTH",
"-8 347 OFFCURVE",
"-6.333 330 OFFCURVE",
"-3 314 CURVE SMOOTH",
"22.333 204.667 OFFCURVE",
"107.833 135 OFFCURVE",
"196.5 135 CURVE SMOOTH",
"285.167 135 OFFCURVE",
"383.5 189.5 OFFCURVE",
"445.5 271.5 CURVE SMOOTH",
"476.5 312.5 OFFCURVE",
"492 353.333 OFFCURVE",
"492 394 CURVE SMOOTH",
"492 434.667 OFFCURVE",
"479 465 OFFCURVE",
"453 485 CURVE SMOOTH",
"413.503 513.212 OFFCURVE",
"336 501.602 OFFCURVE",
"336 472.5 CURVE SMOOTH",
"336 468.167 OFFCURVE",
"342.333 467.833 OFFCURVE",
"355 471.5 CURVE SMOOTH",
"367.667 475.167 OFFCURVE",
"380.333 477 OFFCURVE",
"393 477 CURVE SMOOTH",
"418.333 477 OFFCURVE",
"448 452 OFFCURVE",
"448 392 CURVE SMOOTH",
"448 281.333 OFFCURVE",
"329 161 OFFCURVE",
"217 161 CURVE SMOOTH",
"137 161 OFFCURVE",
"74.333 206 OFFCURVE",
"53 298 CURVE SMOOTH",
"50.333 312 OFFCURVE",
"49 326.667 OFFCURVE",
"49 342 CURVE SMOOTH",
"49 416.667 OFFCURVE",
"82.667 515.833 OFFCURVE",
"152 600.5 CURVE SMOOTH",
"186.667 642.833 OFFCURVE",
"225.167 679.333 OFFCURVE",
"267.5 710 CURVE SMOOTH",
"352.167 771.333 OFFCURVE",
"453.333 820 OFFCURVE",
"540 820 CURVE SMOOTH",
"581.333 820 OFFCURVE",
"618.667 811 OFFCURVE",
"652 793 CURVE SMOOTH",
"670.667 781.667 OFFCURVE",
"681.667 761.333 OFFCURVE",
"685 732 CURVE SMOOTH",
"686.333 722.667 OFFCURVE",
"687 709.833 OFFCURVE",
"687 693.5 CURVE SMOOTH",
"687 677.167 OFFCURVE",
"684 655.333 OFFCURVE",
"678 628 CURVE SMOOTH",
"662.667 557.333 OFFCURVE",
"639 484.667 OFFCURVE",
"607 410 CURVE SMOOTH",
"524.333 212.667 OFFCURVE",
"483 73 OFFCURVE",
"483 -9 CURVE SMOOTH",
"483 -59.667 OFFCURVE",
"499 -88 OFFCURVE",
"531 -94 CURVE SMOOTH",
"537 -95.333 OFFCURVE",
"543 -96 OFFCURVE",
"549 -96 CURVE SMOOTH"
);
}
);
width = 975;
}
);
note = V;
unicode = 0056;
},
{
glyphname = W;
lastChange = "2020-12-20 21:55:33 +0000";
layers = (
{
layerId = "1691882E-B915-4755-A5B2-757873D945FF";
paths = (
{
closed = 1;
nodes = (
"545 -124 OFFCURVE",
"574.333 -111 OFFCURVE",
"609 -85 CURVE SMOOTH",
"641.667 -60.333 OFFCURVE",
"673.667 -29.333 OFFCURVE",
"705 8 CURVE SMOOTH",
"762.333 78 OFFCURVE",
"809 143 OFFCURVE",
"845 203 CURVE",
"831 157 OFFCURVE",
"825 119 OFFCURVE",
"825 91 CURVE SMOOTH",
"825 87 OFFCURVE",
"826 40 OFFCURVE",
"831 23 CURVE SMOOTH",
"847 -41 OFFCURVE",
"889.667 -73 OFFCURVE",
"959 -73 CURVE SMOOTH",
"1092.333 -73 OFFCURVE",
"1281.667 59.667 OFFCURVE",
"1347 225 CURVE SMOOTH",
"1370.333 287.667 OFFCURVE",
"1382 343.667 OFFCURVE",
"1382 393 CURVE SMOOTH",
"1382 407.667 OFFCURVE",
"1381 422 OFFCURVE",
"1379 436 CURVE SMOOTH",
"1360.333 552 OFFCURVE",
"1289 613 OFFCURVE",
"1213 613 CURVE SMOOTH",
"1183.5 613 LINE SMOOTH",
"1170.833 613 OFFCURVE",
"1137 600 OFFCURVE",
"1137 588 CURVE SMOOTH",
"1137 584 OFFCURVE",
"1140.833 582 OFFCURVE",
"1148.5 582 CURVE SMOOTH",
"1156.167 582 OFFCURVE",
"1168 584 OFFCURVE",
"1184 588 CURVE SMOOTH",
"1193.333 589.333 OFFCURVE",
"1202.333 590 OFFCURVE",
"1211 590 CURVE SMOOTH",
"1287 590 OFFCURVE",
"1333 535 OFFCURVE",
"1333 427 CURVE SMOOTH",
"1333 373 OFFCURVE",
"1316.667 307.667 OFFCURVE",
"1284 231 CURVE SMOOTH",
"1255.333 163 OFFCURVE",
"1202.333 98.333 OFFCURVE",
"1125 37 CURVE SMOOTH",
"1054.333 -19.667 OFFCURVE",
"995 -48 OFFCURVE",
"947 -48 CURVE SMOOTH",
"895.667 -48 OFFCURVE",
"870 -16.333 OFFCURVE",
"870 47 CURVE SMOOTH",
"870 88.016 OFFCURVE",
"876.467 127.435 OFFCURVE",
"926 247.5 CURVE SMOOTH",
"956.667 321.833 OFFCURVE",
"973.833 364.333 OFFCURVE",
"977.5 375 CURVE SMOOTH",
"981.167 385.667 OFFCURVE",
"983 397.667 OFFCURVE",
"983 411 CURVE SMOOTH",
"983 424.333 OFFCURVE",
"978.667 433.333 OFFCURVE",
"970 438 CURVE SMOOTH",
"966.667 439.333 OFFCURVE",
"963.333 440 OFFCURVE",
"960 440 CURVE SMOOTH",
"946 440 OFFCURVE",
"929.333 426.667 OFFCURVE",
"910 400 CURVE SMOOTH",
"890.667 373.333 OFFCURVE",
"858 320.667 OFFCURVE",
"812 242 CURVE SMOOTH",
"720 84.667 OFFCURVE",
"633 -43.333 OFFCURVE",
"561 -86 CURVE SMOOTH",
"549 -94 OFFCURVE",
"538.667 -98 OFFCURVE",
"530 -98 CURVE SMOOTH",
"513.333 -98 OFFCURVE",
"505 -86 OFFCURVE",
"505 -62 CURVE SMOOTH",
"505 -28 OFFCURVE",
"525 45 OFFCURVE",
"565 157 CURVE SMOOTH",
"593 235.667 OFFCURVE",
"622.333 309.333 OFFCURVE",
"653 378 CURVE SMOOTH",
"697.667 479.333 OFFCURVE",
"720 562.667 OFFCURVE",
"720 628 CURVE SMOOTH",
"720 707.333 OFFCURVE",
"688 761 OFFCURVE",
"624 789 CURVE SMOOTH",
"588.667 802.333 OFFCURVE",
"549.333 809 OFFCURVE",
"506 809 CURVE SMOOTH",
"462.667 809 OFFCURVE",
"415.667 799.333 OFFCURVE",
"365 780 CURVE SMOOTH",
"180.174 706.576 OFFCURVE",
"-17 530.184 OFFCURVE",
"-17 324 CURVE SMOOTH",
"-17 313.333 OFFCURVE",
"-16.333 303 OFFCURVE",
"-15 293 CURVE SMOOTH",
"-7.667 242.333 OFFCURVE",
"9.667 201 OFFCURVE",
"37 169 CURVE SMOOTH",
"75.667 122.333 OFFCURVE",
"127.667 99 OFFCURVE",
"193 99 CURVE SMOOTH",
"213 99 OFFCURVE",
"234.667 104 OFFCURVE",
"258 114 CURVE SMOOTH",
"346 150.667 OFFCURVE",
"407 208 OFFCURVE",
"441 286 CURVE SMOOTH",
"453.667 316 OFFCURVE",
"460 342.333 OFFCURVE",
"460 365 CURVE SMOOTH",
"460 387.667 OFFCURVE",
"455 407.333 OFFCURVE",
"445 424 CURVE SMOOTH",
"429 450.667 OFFCURVE",
"403.667 464 OFFCURVE",
"369 464 CURVE SMOOTH",
"334.333 464 OFFCURVE",
"291.333 450.333 OFFCURVE",
"290 441 CURVE SMOOTH",
"288.253 428.77 OFFCURVE",
"317.064 440 OFFCURVE",
"337 440 CURVE SMOOTH",
"385.667 440 OFFCURVE",
"410 412.667 OFFCURVE",
"410 358 CURVE SMOOTH",
"410 324.667 OFFCURVE",
"398.333 287.333 OFFCURVE",
"375 246 CURVE SMOOTH",
"329.667 165.333 OFFCURVE",
"268.333 125 OFFCURVE",
"191 125 CURVE SMOOTH",
"144.333 125 OFFCURVE",
"108 140 OFFCURVE",
"82 170 CURVE SMOOTH",
"54 203.333 OFFCURVE",
"44 245.5 OFFCURVE",
"44 275.5 CURVE SMOOTH",
"44 313.284 OFFCURVE",
"45.976 353.184 OFFCURVE",
"77 438.5 CURVE SMOOTH",
"94.333 486.167 OFFCURVE",
"125.667 536 OFFCURVE",
"171 588 CURVE SMOOTH",
"262.333 691.333 OFFCURVE",
"367 755 OFFCURVE",
"485 779 CURVE SMOOTH",
"501.667 782.333 OFFCURVE",
"517.667 784 OFFCURVE",
"533 784 CURVE SMOOTH",
"603.667 784 OFFCURVE",
"663 756.333 OFFCURVE",
"663 671 CURVE SMOOTH",
"663 605 OFFCURVE",
"635.667 506 OFFCURVE",
"581 374 CURVE SMOOTH",
"493.667 166.667 OFFCURVE",
"450 29.333 OFFCURVE",
"450 -38 CURVE SMOOTH",
"450 -95.333 OFFCURVE",
"473.667 -124 OFFCURVE",
"521 -124 CURVE SMOOTH"
);
}
);
width = 1344;
}
);
note = W;
unicode = 0057;
},
{
glyphname = X;
lastChange = "2020-12-20 20:29:42 +0000";
layers = (
{
layerId = "1691882E-B915-4755-A5B2-757873D945FF";
paths = (
{
closed = 1;
nodes = (
"-87 -220 OFFCURVE",
"-66.667 -203 OFFCURVE",
"-46 -169 CURVE SMOOTH",
"58 -5.667 OFFCURVE",
"239.667 169.667 OFFCURVE",
"499 357 CURVE",
"497.667 283 OFFCURVE",
"497 212.333 OFFCURVE",
"497 145 CURVE SMOOTH",
"497 77.667 OFFCURVE",
"499 35 OFFCURVE",
"503 17 CURVE SMOOTH",
"520.437 -65.427 OFFCURVE",
"578.84 -122.748 OFFCURVE",
"680 -66 CURVE SMOOTH",
"752 -25.333 OFFCURVE",
"818 58 OFFCURVE",
"878 184 CURVE SMOOTH",
"888.667 206.667 OFFCURVE",
"870.333 209 OFFCURVE",
"861 189 CURVE SMOOTH",
"845.667 153.667 OFFCURVE",
"828.333 121.333 OFFCURVE",
"809 92 CURVE SMOOTH",
"755 10 OFFCURVE",
"703 -31 OFFCURVE",
"653 -31 CURVE SMOOTH",
"617 -31 OFFCURVE",
"591.333 -3 OFFCURVE",
"576 53 CURVE SMOOTH",
"565.333 93.667 OFFCURVE",
"560 171.667 OFFCURVE",
"560 287 CURVE SMOOTH",
"560 320.333 OFFCURVE",
"560.333 356.333 OFFCURVE",
"561 395 CURVE",
"694.036 489.568 OFFCURVE",
"853.686 596.727 OFFCURVE",
"975 683.5 CURVE SMOOTH",
"1050.845 737.75 OFFCURVE",
"1105 785.222 OFFCURVE",
"1105 804 CURVE SMOOTH",
"1105 812.667 OFFCURVE",
"1097.333 817 OFFCURVE",
"1082 817 CURVE SMOOTH",
"1080 817 OFFCURVE",
"1076.333 816 OFFCURVE",
"1071 814 CURVE SMOOTH",
"1061.334 809.167 OFFCURVE",
"1060.599 807.14 OFFCURVE",
"1039.5 789 CURVE SMOOTH",
"1009 759 LINE SMOOTH",
"921.291 671.291 OFFCURVE",
"782.62 587.989 OFFCURVE",
"560 433 CURVE",
"560 463.634 OFFCURVE",
"561.853 528.819 OFFCURVE",
"553 630 CURVE SMOOTH",
"550.333 668 OFFCURVE",
"539.667 704 OFFCURVE",
"521 738 CURVE SMOOTH",
"503.667 771.333 OFFCURVE",
"474.333 788 OFFCURVE",
"433 788 CURVE SMOOTH",
"354.333 788 OFFCURVE",
"232.333 714.5 OFFCURVE",
"167 660.5 CURVE SMOOTH",
"134.333 633.5 OFFCURVE",
"115 615.333 OFFCURVE",
"109 606 CURVE SMOOTH",
"97.667 588.667 OFFCURVE",
"99.333 578 OFFCURVE",
"114 574 CURVE SMOOTH",
"119.333 572 OFFCURVE",
"123 572 OFFCURVE",
"125 574 CURVE",
"136.333 598.667 OFFCURVE",
"160.333 625 OFFCURVE",
"197 653 CURVE SMOOTH",
"269 709 OFFCURVE",
"336.333 737 OFFCURVE",
"399 737 CURVE SMOOTH",
"450.333 737 OFFCURVE",
"480 710.667 OFFCURVE",
"488 658 CURVE SMOOTH",
"494.667 612 OFFCURVE",
"498 561 OFFCURVE",
"498 505 CURVE SMOOTH",
"498 395 LINE",
"233.333 206.333 OFFCURVE",
"33.333 18.333 OFFCURVE",
"-102 -169 CURVE",
"-114 -189 LINE SMOOTH",
"-118.667 -197 OFFCURVE",
"-121 -203.667 OFFCURVE",
"-121 -209 CURVE SMOOTH",
"-121 -216.333 OFFCURVE",
"-116.333 -220 OFFCURVE",
"-107 -220 CURVE SMOOTH"
);
}
);
width = 807;
}
);
note = X;
unicode = 0058;
},
{
glyphname = Y;
lastChange = "2020-12-20 22:45:57 +0000";
layers = (
{
layerId = "1691882E-B915-4755-A5B2-757873D945FF";
paths = (
{
closed = 1;
nodes = (
"415 -427 OFFCURVE",
"660 -362 OFFCURVE",
"799 -154 CURVE",
"922 -150 OFFCURVE",
"1012 -146 OFFCURVE",
"1043 -133 CURVE SMOOTH",
"1074 -120 OFFCURVE",
"1095 -104 OFFCURVE",
"1106 -87 CURVE SMOOTH",
"1125 -55 OFFCURVE",
"1126 -37 OFFCURVE",
"1115 -17 CURVE SMOOTH",
"1113 -14 OFFCURVE",
"1112 -13 OFFCURVE",
"1110 -14 CURVE SMOOTH",
"1107 -15 OFFCURVE",
"1107 -19 OFFCURVE",
"1108 -28 CURVE",
"1102 -61 OFFCURVE",
"1081 -85 OFFCURVE",
"1046 -102 CURVE SMOOTH",
"1017 -115 OFFCURVE",
"963 -123 OFFCURVE",
"931 -124 CURVE SMOOTH",
"904 -125 OFFCURVE",
"874 -127 OFFCURVE",
"814 -128 CURVE",
"882 -7 OFFCURVE",
"956 225 OFFCURVE",
"982 338 CURVE SMOOTH",
"1003 430 OFFCURVE",
"1011 483 OFFCURVE",
"983 483 CURVE SMOOTH",
"966 483 OFFCURVE",
"949 469 OFFCURVE",
"943 449 CURVE SMOOTH",
"911 343 OFFCURVE",
"863 239 OFFCURVE",
"800 138 CURVE SMOOTH",
"762 77 OFFCURVE",
"724 34 OFFCURVE",
"686 7 CURVE SMOOTH",
"654 -16 OFFCURVE",
"624 -28 OFFCURVE",
"597 -28 CURVE SMOOTH",
"558 -28 OFFCURVE",
"538 4 OFFCURVE",
"538 35 CURVE SMOOTH",
"538 50 OFFCURVE",
"539 65 OFFCURVE",
"542 79 CURVE SMOOTH",
"560 160 OFFCURVE",
"612 274 OFFCURVE",
"698 421 CURVE SMOOTH",
"753 513 OFFCURVE",
"781 597 OFFCURVE",
"781 672 CURVE SMOOTH",
"781 732 OFFCURVE",
"755 790 OFFCURVE",
"684 822 CURVE SMOOTH",
"650 835 OFFCURVE",
"611 842 OFFCURVE",
"567 842 CURVE SMOOTH",
"523 842 OFFCURVE",
"475 832 OFFCURVE",
"422 811 CURVE SMOOTH",
"271 753 OFFCURVE",
"130 644 OFFCURVE",
"55 490 CURVE SMOOTH",
"30 439 OFFCURVE",
"18 389 OFFCURVE",
"18 338 CURVE SMOOTH",
"18 287 OFFCURVE",
"34 242 OFFCURVE",
"66 203 CURVE SMOOTH",
"103 156 OFFCURVE",
"153 133 OFFCURVE",
"218 133 CURVE SMOOTH",
"238 133 OFFCURVE",
"260 138 OFFCURVE",
"284 148 CURVE SMOOTH",
"363 181 OFFCURVE",
"422 234 OFFCURVE",
"463 308 CURVE SMOOTH",
"484 347 OFFCURVE",
"494 381 OFFCURVE",
"494 410 CURVE SMOOTH",
"494 425 OFFCURVE",
"491 438 OFFCURVE",
"486 451 CURVE SMOOTH",
"474 480 OFFCURVE",
"451 495 OFFCURVE",
"416 495 CURVE SMOOTH",
"387 495 OFFCURVE",
"346 486 OFFCURVE",
"347 475 CURVE SMOOTH",
"348 471 OFFCURVE",
"354 470 OFFCURVE",
"365 473 CURVE SMOOTH",
"376 475 OFFCURVE",
"386 476 OFFCURVE",
"394 476 CURVE SMOOTH",
"435 476 OFFCURVE",
"456 453 OFFCURVE",
"456 407 CURVE SMOOTH",
"456 372 OFFCURVE",
"441 330 OFFCURVE",
"412 283 CURVE SMOOTH",
"360 200 OFFCURVE",
"297 159 OFFCURVE",
"223 159 CURVE SMOOTH",
"202 159 OFFCURVE",
"181 163 OFFCURVE",
"161 172 CURVE SMOOTH",
"122 190 OFFCURVE",
"95 223 OFFCURVE",
"82 272 CURVE SMOOTH",
"77 287 OFFCURVE",
"75 303 OFFCURVE",
"75 320 CURVE SMOOTH",
"75 361 OFFCURVE",
"87 411 OFFCURVE",
"110 469 CURVE SMOOTH",
"133 523 OFFCURVE",
"168 576 OFFCURVE",
"217 627 CURVE SMOOTH",
"314 729 OFFCURVE",
"422 791 OFFCURVE",
"542 814 CURVE SMOOTH",
"559 817 OFFCURVE",
"574 819 OFFCURVE",
"589 819 CURVE SMOOTH",
"664 819 OFFCURVE",
"724 787 OFFCURVE",
"724 706 CURVE SMOOTH",
"724 665 OFFCURVE",
"713 617 OFFCURVE",
"692 560 CURVE SMOOTH",
"673 509 OFFCURVE",
"649 458 OFFCURVE",
"618 408 CURVE SMOOTH",
"519 247 OFFCURVE",
"470 131 OFFCURVE",
"470 58 CURVE SMOOTH",
"470 -11 OFFCURVE",
"513 -54 OFFCURVE",
"586 -54 CURVE SMOOTH",
"623 -54 OFFCURVE",
"661 -41 OFFCURVE",
"700 -14 CURVE SMOOTH",
"775 37 OFFCURVE",
"842 127 OFFCURVE",
"903 258 CURVE",
"877 160 OFFCURVE",
"831 18 OFFCURVE",
"766 -129 CURVE",
"581 -129 OFFCURVE",
"437 -150 OFFCURVE",
"334 -193 CURVE SMOOTH",
"253 -226 OFFCURVE",
"213 -265 OFFCURVE",
"213 -309 CURVE SMOOTH",
"213 -343 OFFCURVE",
"238 -368 OFFCURVE",
"288 -385 CURVE SMOOTH"
);
},
{
closed = 1;
nodes = (
"267 -295 OFFCURVE",
"294.667 -267 OFFCURVE",
"350 -235 CURVE SMOOTH",
"443.333 -181 OFFCURVE",
"577.333 -154 OFFCURVE",
"752 -154 CURVE",
"696 -244.667 OFFCURVE",
"602.833 -310.667 OFFCURVE",
"511.5 -344 CURVE SMOOTH",
"413.716 -379.687 OFFCURVE",
"304.647 -389.477 OFFCURVE",
"271 -335 CURVE SMOOTH",
"268.333 -329.667 OFFCURVE",
"267 -324.333 OFFCURVE",
"267 -319 CURVE SMOOTH"
);
}
);
width = 959;
}
);
note = Y;
unicode = 0059;
},
{
glyphname = Z;
lastChange = "2020-12-20 20:29:43 +0000";
layers = (
{
layerId = "1691882E-B915-4755-A5B2-757873D945FF";
paths = (
{
closed = 1;
nodes = (
"806 -158 OFFCURVE",
"845.333 -152 OFFCURVE",
"880 -140 CURVE SMOOTH",
"961.754 -112.204 OFFCURVE",
"994.157 -50.434 OFFCURVE",
"997.5 -17 CURVE SMOOTH",
"998.5 -7 OFFCURVE",
"999 3 OFFCURVE",
"999 13 CURVE SMOOTH",
"999 23 OFFCURVE",
"996 28 OFFCURVE",
"990 28 CURVE SMOOTH",
"968.532 28 OFFCURVE",
"974.456 -33.803 OFFCURVE",
"936.5 -63 CURVE SMOOTH",
"914.833 -79.667 OFFCURVE",
"889.833 -90.167 OFFCURVE",
"861.5 -94.5 CURVE SMOOTH",
"833.167 -98.833 OFFCURVE",
"805.333 -101 OFFCURVE",
"778 -101 CURVE SMOOTH",
"750.667 -101 OFFCURVE",
"724 -98.667 OFFCURVE",
"698 -94 CURVE SMOOTH",
"626.667 -80 OFFCURVE",
"499.667 -33.333 OFFCURVE",
"317 46 CURVE",
"320.854 49.854 OFFCURVE",
"348.265 70.472 OFFCURVE",
"404.5 118.5 CURVE SMOOTH",
"420.167 131.5 OFFCURVE",
"432.167 141.833 OFFCURVE",
"440.5 149.5 CURVE SMOOTH",
"476 182 LINE SMOOTH",
"503.003 206.654 OFFCURVE",
"527.063 231.969 OFFCURVE",
"552 257.5 CURVE SMOOTH",
"566 271.833 OFFCURVE",
"581.833 289 OFFCURVE",
"599.5 309 CURVE SMOOTH",
"617.167 329 OFFCURVE",
"653.333 375.333 OFFCURVE",
"708 448 CURVE SMOOTH",
"792.667 560 OFFCURVE",
"851.333 631 OFFCURVE",
"884 661 CURVE",
"925.333 651 OFFCURVE",
"959.667 646 OFFCURVE",
"987 646 CURVE SMOOTH",
"1014.333 646 OFFCURVE",
"1034 651 OFFCURVE",
"1046 661 CURVE SMOOTH",
"1066 680.333 OFFCURVE",
"1076 698.667 OFFCURVE",
"1076 716 CURVE SMOOTH",
"1076 733.333 OFFCURVE",
"1066.333 746 OFFCURVE",
"1047 754 CURVE SMOOTH",
"1038.333 758 OFFCURVE",
"1028.667 760 OFFCURVE",
"1018 760 CURVE SMOOTH",
"980.667 760 OFFCURVE",
"930.333 735 OFFCURVE",
"867 685 CURVE",
"849.565 690.449 OFFCURVE",
"800.857 707.211 OFFCURVE",
"719.5 731 CURVE SMOOTH",
"681.5 741.667 OFFCURVE",
"599 766 OFFCURVE",
"523 766 CURVE SMOOTH",
"467 766 OFFCURVE",
"418 757.333 OFFCURVE",
"376 740 CURVE SMOOTH",
"344 726.667 OFFCURVE",
"320.667 711 OFFCURVE",
"306 693 CURVE SMOOTH",
"282.667 665 OFFCURVE",
"271 635.333 OFFCURVE",
"271 604 CURVE SMOOTH",
"271 576.667 OFFCURVE",
"281 551.333 OFFCURVE",
"301 528 CURVE SMOOTH",
"314.333 513.333 OFFCURVE",
"326.667 504.667 OFFCURVE",
"338 502 CURVE",
"352.667 495.333 OFFCURVE",
"380.667 499.667 OFFCURVE",
"350 521 CURVE SMOOTH",
"320 541.667 OFFCURVE",
"305 563.833 OFFCURVE",
"305 587.5 CURVE SMOOTH",
"305 611.167 OFFCURVE",
"319.333 634.667 OFFCURVE",
"348 658 CURVE SMOOTH",
"372 676.667 OFFCURVE",
"399.333 690 OFFCURVE",
"430 698 CURVE SMOOTH",
"475.333 706.667 OFFCURVE",
"521.333 711 OFFCURVE",
"568 711 CURVE SMOOTH",
"655.333 711 OFFCURVE",
"748.667 697.333 OFFCURVE",
"848 670 CURVE",
"773.333 609.333 OFFCURVE",
"702.333 539.333 OFFCURVE",
"635 460 CURVE SMOOTH",
"583 396.667 OFFCURVE",
"470.333 263.667 OFFCURVE",
"297 61 CURVE",
"236.333 99.667 OFFCURVE",
"188.667 123.667 OFFCURVE",
"154 133 CURVE SMOOTH",
"136 137.667 OFFCURVE",
"119.667 140 OFFCURVE",
"105 140 CURVE SMOOTH",
"45 140 OFFCURVE",
"11 98 OFFCURVE",
"11 58 CURVE SMOOTH",
"11 48.667 OFFCURVE",
"12.667 39 OFFCURVE",
"16 29 CURVE SMOOTH",
"26.667 -5.667 OFFCURVE",
"52 -27.667 OFFCURVE",
"92 -37 CURVE SMOOTH",
"100.667 -39 OFFCURVE",
"109.667 -40 OFFCURVE",
"119 -40 CURVE SMOOTH",
"167 -40 OFFCURVE",
"224.667 -16 OFFCURVE",
"292 32 CURVE",
"377 -16 LINE SMOOTH",
"490.333 -80 OFFCURVE",
"674 -158 OFFCURVE",
"762 -158 CURVE SMOOTH"
);
},
{
closed = 1;
nodes = (
"86.357 -8 OFFCURVE",
"56 21.29 OFFCURVE",
"56 47 CURVE SMOOTH",
"56 57 OFFCURVE",
"58 65.667 OFFCURVE",
"62 73 CURVE SMOOTH",
"73.333 94.333 OFFCURVE",
"95.167 105 OFFCURVE",
"127.5 105 CURVE SMOOTH",
"159.833 105 OFFCURVE",
"200 91.667 OFFCURVE",
"248 65 CURVE",
"254.667 60.333 OFFCURVE",
"264.667 52.667 OFFCURVE",
"278 42 CURVE",
"248.667 16.667 OFFCURVE",
"192 -8 OFFCURVE",
"144 -8 CURVE SMOOTH"
);
},
{
closed = 1;
nodes = (
"964 660 OFFCURVE",
"935.667 665.333 OFFCURVE",
"899 676 CURVE",
"950.333 719.333 OFFCURVE",
"989.667 741 OFFCURVE",
"1017 741 CURVE SMOOTH",
"1039.667 741 OFFCURVE",
"1047 720.667 OFFCURVE",
"1047 710 CURVE SMOOTH",
"1047 671.333 OFFCURVE",
"1024 660 OFFCURVE",
"984 660 CURVE SMOOTH"
);
}
);
width = 677;
}
);
note = Z;
unicode = 005A;
},
{
glyphname = a;
lastChange = "2020-12-20 20:29:42 +0000";
layers = (
{
layerId = "1691882E-B915-4755-A5B2-757873D945FF";
paths = (
{
closed = 1;
nodes = (
"120.667 -2 OFFCURVE",
"166.667 41 OFFCURVE",
"220 127 CURVE",
"213.333 103 OFFCURVE",
"210 82.667 OFFCURVE",
"210 66 CURVE SMOOTH",
"210 49.333 OFFCURVE",
"213 36 OFFCURVE",
"219 26 CURVE SMOOTH",
"231 7.333 OFFCURVE",
"246.667 -2 OFFCURVE",
"266 -2 CURVE SMOOTH",
"308 -2 OFFCURVE",
"359.667 60 OFFCURVE",
"421 184 CURVE SMOOTH",
"423 188.667 OFFCURVE",
"424 192.667 OFFCURVE",
"424 196 CURVE SMOOTH",
"424 202 OFFCURVE",
"421.333 204 OFFCURVE",
"416 202 CURVE SMOOTH",
"412.667 201.333 OFFCURVE",
"409.667 198 OFFCURVE",
"407 192 CURVE SMOOTH",
"380.333 137.333 OFFCURVE",
"353.333 93 OFFCURVE",
"326 59 CURVE SMOOTH",
"307.333 35.667 OFFCURVE",
"291.667 24 OFFCURVE",
"279 24 CURVE SMOOTH",
"258.203 24 OFFCURVE",
"262.105 53.815 OFFCURVE",
"270.5 94.5 CURVE SMOOTH",
"279.167 136.5 OFFCURVE",
"337 247 OFFCURVE",
"361 271 CURVE",
"355.667 269.667 OFFCURVE",
"347.5 270 OFFCURVE",
"336.5 272 CURVE SMOOTH",
"325.5 274 OFFCURVE",
"318.667 275 OFFCURVE",
"316 275 CURVE SMOOTH",
"289.333 275 OFFCURVE",
"276.333 260.333 OFFCURVE",
"251 211 CURVE SMOOTH",
"186.333 88.333 OFFCURVE",
"134 27 OFFCURVE",
"94 27 CURVE SMOOTH",
"77.333 27 OFFCURVE",
"69 40 OFFCURVE",
"69 66 CURVE SMOOTH",
"69 92 OFFCURVE",
"82 126.667 OFFCURVE",
"108 170 CURVE SMOOTH",
"128.667 206 OFFCURVE",
"151 237.333 OFFCURVE",
"175 264 CURVE SMOOTH",
"217 309.333 OFFCURVE",
"252.333 332 OFFCURVE",
"281 332 CURVE SMOOTH",
"305.667 332 OFFCURVE",
"321.667 320 OFFCURVE",
"329 296 CURVE",
"346.333 293.333 OFFCURVE",
"353.333 310.333 OFFCURVE",
"340 325 CURVE SMOOTH",
"318.667 346.333 OFFCURVE",
"292.667 357 OFFCURVE",
"262 357 CURVE SMOOTH",
"250.667 357 OFFCURVE",
"238.667 355.333 OFFCURVE",
"226 352 CURVE SMOOTH",
"179.333 340.667 OFFCURVE",
"140 316.333 OFFCURVE",
"108 279 CURVE SMOOTH",
"51.333 211.667 OFFCURVE",
"23 145.333 OFFCURVE",
"23 80 CURVE SMOOTH",
"23 46 OFFCURVE",
"33 22 OFFCURVE",
"53 8 CURVE SMOOTH",
"61.667 1.333 OFFCURVE",
"71.333 -2 OFFCURVE",
"82 -2 CURVE SMOOTH"
);
}
);
width = 350;
}
);
note = a;
unicode = 0061;
},
{
glyphname = aacute;
lastChange = "2020-12-20 20:29:42 +0000";
layers = (
{
layerId = "1691882E-B915-4755-A5B2-757873D945FF";
paths = (
{
closed = 1;
nodes = (
"120.667 -2 OFFCURVE",
"166.667 41 OFFCURVE",
"220 127 CURVE",
"213.333 103 OFFCURVE",
"210 82.667 OFFCURVE",
"210 66 CURVE SMOOTH",
"210 49.333 OFFCURVE",
"213 36 OFFCURVE",
"219 26 CURVE SMOOTH",
"231 7.333 OFFCURVE",
"246.667 -2 OFFCURVE",
"266 -2 CURVE SMOOTH",
"308 -2 OFFCURVE",
"359.667 60 OFFCURVE",
"421 184 CURVE SMOOTH",
"423 188.667 OFFCURVE",
"424 192.667 OFFCURVE",
"424 196 CURVE SMOOTH",
"424 202 OFFCURVE",
"421.333 204 OFFCURVE",
"416 202 CURVE SMOOTH",
"412.667 201.333 OFFCURVE",
"409.667 198 OFFCURVE",
"407 192 CURVE SMOOTH",
"380.333 137.333 OFFCURVE",
"353.333 93 OFFCURVE",
"326 59 CURVE SMOOTH",
"307.333 35.667 OFFCURVE",
"291.667 24 OFFCURVE",
"279 24 CURVE SMOOTH",
"258.203 24 OFFCURVE",
"262.105 53.815 OFFCURVE",
"270.5 94.5 CURVE SMOOTH",
"279.167 136.5 OFFCURVE",
"337 247 OFFCURVE",
"361 271 CURVE",
"355.667 269.667 OFFCURVE",
"347.5 270 OFFCURVE",
"336.5 272 CURVE SMOOTH",
"325.5 274 OFFCURVE",
"318.667 275 OFFCURVE",
"316 275 CURVE SMOOTH",
"289.333 275 OFFCURVE",
"276.333 260.333 OFFCURVE",
"251 211 CURVE SMOOTH",
"186.333 88.333 OFFCURVE",
"134 27 OFFCURVE",
"94 27 CURVE SMOOTH",
"77.333 27 OFFCURVE",
"69 40 OFFCURVE",
"69 66 CURVE SMOOTH",
"69 92 OFFCURVE",
"82 126.667 OFFCURVE",
"108 170 CURVE SMOOTH",
"128.667 206 OFFCURVE",
"151 237.333 OFFCURVE",
"175 264 CURVE SMOOTH",
"217 309.333 OFFCURVE",
"252.333 332 OFFCURVE",
"281 332 CURVE SMOOTH",
"305.667 332 OFFCURVE",
"321.667 320 OFFCURVE",
"329 296 CURVE",
"346.333 293.333 OFFCURVE",
"353.333 310.333 OFFCURVE",
"340 325 CURVE SMOOTH",
"318.667 346.333 OFFCURVE",
"292.667 357 OFFCURVE",
"262 357 CURVE SMOOTH",
"250.667 357 OFFCURVE",
"238.667 355.333 OFFCURVE",
"226 352 CURVE SMOOTH",
"179.333 340.667 OFFCURVE",
"140 316.333 OFFCURVE",
"108 279 CURVE SMOOTH",
"51.333 211.667 OFFCURVE",
"23 145.333 OFFCURVE",
"23 80 CURVE SMOOTH",
"23 46 OFFCURVE",
"33 22 OFFCURVE",
"53 8 CURVE SMOOTH",
"61.667 1.333 OFFCURVE",
"71.333 -2 OFFCURVE",
"82 -2 CURVE SMOOTH"
);
},
{
closed = 1;
nodes = (
"226.249 411.949 OFFCURVE",
"225.882 411.674 OFFCURVE",
"231.732 416.212 CURVE SMOOTH",
"249.5 430 LINE",
"241.903 424.711 OFFCURVE",
"236.106 420.144 OFFCURVE",
"231.732 416.212 CURVE SMOOTH",
"230.904 415.461 LINE SMOOTH"
);
},
{
closed = 1;
nodes = (
"239.667 394 OFFCURVE",
"404.333 467 OFFCURVE",
"411 483 CURVE SMOOTH",
"420.115 501.229 OFFCURVE",
"408.242 512.897 OFFCURVE",
"379.5 514 CURVE SMOOTH",
"360.237 514 OFFCURVE",
"343.003 496.47 OFFCURVE",
"307 471.5 CURVE SMOOTH",
"274.605 448.445 OFFCURVE",
"241.547 423.49 OFFCURVE",
"230.904 415.461 CURVE SMOOTH",
"212.099 398.192 OFFCURVE",
"221.437 393.603 OFFCURVE",
"225 394 CURVE SMOOTH"
);
}
);
width = 350;
}
);
note = aacute;
unicode = 00E1;
},
{
glyphname = acircumflex;
lastChange = "2020-12-20 20:29:42 +0000";
layers = (
{
layerId = "1691882E-B915-4755-A5B2-757873D945FF";
paths = (
{
closed = 1;
nodes = (
"120.667 -2 OFFCURVE",
"166.667 41 OFFCURVE",
"220 127 CURVE",
"213.333 103 OFFCURVE",
"210 82.667 OFFCURVE",
"210 66 CURVE SMOOTH",
"210 49.333 OFFCURVE",
"213 36 OFFCURVE",
"219 26 CURVE SMOOTH",
"231 7.333 OFFCURVE",
"246.667 -2 OFFCURVE",
"266 -2 CURVE SMOOTH",
"308 -2 OFFCURVE",
"359.667 60 OFFCURVE",
"421 184 CURVE SMOOTH",
"423 188.667 OFFCURVE",
"424 192.667 OFFCURVE",
"424 196 CURVE SMOOTH",
"424 202 OFFCURVE",
"421.333 204 OFFCURVE",
"416 202 CURVE SMOOTH",
"412.667 201.333 OFFCURVE",
"409.667 198 OFFCURVE",
"407 192 CURVE SMOOTH",
"380.333 137.333 OFFCURVE",
"353.333 93 OFFCURVE",
"326 59 CURVE SMOOTH",
"307.333 35.667 OFFCURVE",
"291.667 24 OFFCURVE",
"279 24 CURVE SMOOTH",
"258.203 24 OFFCURVE",
"262.105 53.815 OFFCURVE",
"270.5 94.5 CURVE SMOOTH",
"279.167 136.5 OFFCURVE",
"337 247 OFFCURVE",
"361 271 CURVE",
"355.667 269.667 OFFCURVE",
"347.5 270 OFFCURVE",
"336.5 272 CURVE SMOOTH",
"325.5 274 OFFCURVE",
"318.667 275 OFFCURVE",
"316 275 CURVE SMOOTH",
"289.333 275 OFFCURVE",
"276.333 260.333 OFFCURVE",
"251 211 CURVE SMOOTH",
"186.333 88.333 OFFCURVE",
"134 27 OFFCURVE",
"94 27 CURVE SMOOTH",
"77.333 27 OFFCURVE",
"69 40 OFFCURVE",
"69 66 CURVE SMOOTH",
"69 92 OFFCURVE",
"82 126.667 OFFCURVE",
"108 170 CURVE SMOOTH",
"128.667 206 OFFCURVE",
"151 237.333 OFFCURVE",
"175 264 CURVE SMOOTH",
"217 309.333 OFFCURVE",
"252.333 332 OFFCURVE",
"281 332 CURVE SMOOTH",
"305.667 332 OFFCURVE",
"321.667 320 OFFCURVE",
"329 296 CURVE",
"346.333 293.333 OFFCURVE",
"353.333 310.333 OFFCURVE",
"340 325 CURVE SMOOTH",
"318.667 346.333 OFFCURVE",
"292.667 357 OFFCURVE",
"262 357 CURVE SMOOTH",
"250.667 357 OFFCURVE",
"238.667 355.333 OFFCURVE",
"226 352 CURVE SMOOTH",
"179.333 340.667 OFFCURVE",
"140 316.333 OFFCURVE",
"108 279 CURVE SMOOTH",
"51.333 211.667 OFFCURVE",
"23 145.333 OFFCURVE",
"23 80 CURVE SMOOTH",
"23 46 OFFCURVE",
"33 22 OFFCURVE",
"53 8 CURVE SMOOTH",
"61.667 1.333 OFFCURVE",
"71.333 -2 OFFCURVE",
"82 -2 CURVE SMOOTH"
);
},
{
closed = 1;
nodes = (
"198.272 394.194 OFFCURVE",
"233.482 406.119 OFFCURVE",
"212 410 CURVE",
"344 481 LINE",
"390 410 LINE SMOOTH",
"394.792 402.812 OFFCURVE",
"415.598 400.685 OFFCURVE",
"410 410 CURVE",
"374 516 LINE",
"374 517.333 OFFCURVE",
"370.667 518 OFFCURVE",
"364 518 CURVE SMOOTH",
"357.333 518 OFFCURVE",
"348 517.333 OFFCURVE",
"336 516 CURVE",
"187 410 LINE"
);
}
);
width = 350;
}
);
note = acircumflex;
unicode = 00E2;
},
{
glyphname = adieresis;
lastChange = "2020-12-20 20:29:43 +0000";
layers = (
{
layerId = "1691882E-B915-4755-A5B2-757873D945FF";
paths = (
{
closed = 1;
nodes = (
"120.667 -2 OFFCURVE",
"166.667 41 OFFCURVE",
"220 127 CURVE",
"213.333 103 OFFCURVE",
"210 82.667 OFFCURVE",
"210 66 CURVE SMOOTH",
"210 49.333 OFFCURVE",
"213 36 OFFCURVE",
"219 26 CURVE SMOOTH",
"231 7.333 OFFCURVE",
"246.667 -2 OFFCURVE",
"266 -2 CURVE SMOOTH",
"308 -2 OFFCURVE",
"359.667 60 OFFCURVE",
"421 184 CURVE SMOOTH",
"423 188.667 OFFCURVE",
"424 192.667 OFFCURVE",
"424 196 CURVE SMOOTH",
"424 202 OFFCURVE",
"421.333 204 OFFCURVE",
"416 202 CURVE SMOOTH",
"412.667 201.333 OFFCURVE",
"409.667 198 OFFCURVE",
"407 192 CURVE SMOOTH",
"380.333 137.333 OFFCURVE",
"353.333 93 OFFCURVE",
"326 59 CURVE SMOOTH",
"307.333 35.667 OFFCURVE",
"291.667 24 OFFCURVE",
"279 24 CURVE SMOOTH",
"258.203 24 OFFCURVE",
"262.105 53.815 OFFCURVE",
"270.5 94.5 CURVE SMOOTH",
"279.167 136.5 OFFCURVE",
"337 247 OFFCURVE",
"361 271 CURVE",
"355.667 269.667 OFFCURVE",
"347.5 270 OFFCURVE",
"336.5 272 CURVE SMOOTH",
"325.5 274 OFFCURVE",
"318.667 275 OFFCURVE",
"316 275 CURVE SMOOTH",
"289.333 275 OFFCURVE",
"276.333 260.333 OFFCURVE",
"251 211 CURVE SMOOTH",
"186.333 88.333 OFFCURVE",
"134 27 OFFCURVE",
"94 27 CURVE SMOOTH",
"77.333 27 OFFCURVE",
"69 40 OFFCURVE",
"69 66 CURVE SMOOTH",
"69 92 OFFCURVE",
"82 126.667 OFFCURVE",
"108 170 CURVE SMOOTH",
"128.667 206 OFFCURVE",
"151 237.333 OFFCURVE",
"175 264 CURVE SMOOTH",
"217 309.333 OFFCURVE",
"252.333 332 OFFCURVE",
"281 332 CURVE SMOOTH",
"305.667 332 OFFCURVE",
"321.667 320 OFFCURVE",
"329 296 CURVE",
"346.333 293.333 OFFCURVE",
"353.333 310.333 OFFCURVE",
"340 325 CURVE SMOOTH",
"318.667 346.333 OFFCURVE",
"292.667 357 OFFCURVE",
"262 357 CURVE SMOOTH",
"250.667 357 OFFCURVE",
"238.667 355.333 OFFCURVE",
"226 352 CURVE SMOOTH",
"179.333 340.667 OFFCURVE",
"140 316.333 OFFCURVE",
"108 279 CURVE SMOOTH",
"51.333 211.667 OFFCURVE",
"23 145.333 OFFCURVE",
"23 80 CURVE SMOOTH",
"23 46 OFFCURVE",
"33 22 OFFCURVE",
"53 8 CURVE SMOOTH",
"61.667 1.333 OFFCURVE",
"71.333 -2 OFFCURVE",
"82 -2 CURVE SMOOTH"
);
},
{
closed = 1;
nodes = (
"267.833 426 OFFCURVE",
"281 440.167 OFFCURVE",
"281 459.5 CURVE SMOOTH",
"281 478.833 OFFCURVE",
"266.833 492 OFFCURVE",
"247.5 492 CURVE SMOOTH",
"228.167 492 OFFCURVE",
"215 477.833 OFFCURVE",
"215 458.5 CURVE SMOOTH",
"215 439.167 OFFCURVE",
"229.167 426 OFFCURVE",
"248.5 426 CURVE SMOOTH"
);
},
{
closed = 1;
nodes = (
"396.833 426 OFFCURVE",
"410 440.167 OFFCURVE",
"410 459.5 CURVE SMOOTH",
"410 478.833 OFFCURVE",
"395.833 492 OFFCURVE",
"376.5 492 CURVE SMOOTH",
"357.167 492 OFFCURVE",
"344 477.833 OFFCURVE",
"344 458.5 CURVE SMOOTH",
"344 439.167 OFFCURVE",
"358.167 426 OFFCURVE",
"377.5 426 CURVE SMOOTH"
);
}
);
width = 350;
}
);
note = adieresis;
unicode = 00E4;
},
{
glyphname = agrave;
lastChange = "2020-12-20 20:29:43 +0000";
layers = (
{
layerId = "1691882E-B915-4755-A5B2-757873D945FF";
paths = (
{
closed = 1;
nodes = (
"120.667 -2 OFFCURVE",
"166.667 41 OFFCURVE",
"220 127 CURVE",
"213.333 103 OFFCURVE",
"210 82.667 OFFCURVE",
"210 66 CURVE SMOOTH",
"210 49.333 OFFCURVE",
"213 36 OFFCURVE",
"219 26 CURVE SMOOTH",
"231 7.333 OFFCURVE",
"246.667 -2 OFFCURVE",
"266 -2 CURVE SMOOTH",
"308 -2 OFFCURVE",
"359.667 60 OFFCURVE",
"421 184 CURVE SMOOTH",
"423 188.667 OFFCURVE",
"424 192.667 OFFCURVE",
"424 196 CURVE SMOOTH",
"424 202 OFFCURVE",
"421.333 204 OFFCURVE",
"416 202 CURVE SMOOTH",
"412.667 201.333 OFFCURVE",
"409.667 198 OFFCURVE",
"407 192 CURVE SMOOTH",
"380.333 137.333 OFFCURVE",
"353.333 93 OFFCURVE",
"326 59 CURVE SMOOTH",
"307.333 35.667 OFFCURVE",
"291.667 24 OFFCURVE",
"279 24 CURVE SMOOTH",
"258.203 24 OFFCURVE",
"262.105 53.815 OFFCURVE",
"270.5 94.5 CURVE SMOOTH",
"279.167 136.5 OFFCURVE",
"337 247 OFFCURVE",
"361 271 CURVE",
"355.667 269.667 OFFCURVE",
"347.5 270 OFFCURVE",
"336.5 272 CURVE SMOOTH",
"325.5 274 OFFCURVE",
"318.667 275 OFFCURVE",
"316 275 CURVE SMOOTH",
"289.333 275 OFFCURVE",
"276.333 260.333 OFFCURVE",
"251 211 CURVE SMOOTH",
"186.333 88.333 OFFCURVE",
"134 27 OFFCURVE",
"94 27 CURVE SMOOTH",
"77.333 27 OFFCURVE",
"69 40 OFFCURVE",
"69 66 CURVE SMOOTH",
"69 92 OFFCURVE",
"82 126.667 OFFCURVE",
"108 170 CURVE SMOOTH",
"128.667 206 OFFCURVE",
"151 237.333 OFFCURVE",
"175 264 CURVE SMOOTH",
"217 309.333 OFFCURVE",
"252.333 332 OFFCURVE",
"281 332 CURVE SMOOTH",
"305.667 332 OFFCURVE",
"321.667 320 OFFCURVE",
"329 296 CURVE",
"346.333 293.333 OFFCURVE",
"353.333 310.333 OFFCURVE",
"340 325 CURVE SMOOTH",
"318.667 346.333 OFFCURVE",
"292.667 357 OFFCURVE",
"262 357 CURVE SMOOTH",
"250.667 357 OFFCURVE",
"238.667 355.333 OFFCURVE",
"226 352 CURVE SMOOTH",
"179.333 340.667 OFFCURVE",
"140 316.333 OFFCURVE",
"108 279 CURVE SMOOTH",
"51.333 211.667 OFFCURVE",
"23 145.333 OFFCURVE",
"23 80 CURVE SMOOTH",
"23 46 OFFCURVE",
"33 22 OFFCURVE",
"53 8 CURVE SMOOTH",
"61.667 1.333 OFFCURVE",
"71.333 -2 OFFCURVE",
"82 -2 CURVE SMOOTH"
);
},
{
closed = 1;
nodes = (
"319.667 397 OFFCURVE",
"323 400 OFFCURVE",
"323 406 CURVE SMOOTH",
"323 414 OFFCURVE",
"175.333 532 OFFCURVE",
"158 532 CURVE SMOOTH",
"145.333 532 OFFCURVE",
"139 524 OFFCURVE",
"139 508 CURVE SMOOTH",
"139 492 OFFCURVE",
"151.333 478 OFFCURVE",
"176 466 CURVE SMOOTH",
"244.5 430 LINE SMOOTH",
"286.167 408 OFFCURVE",
"309 397 OFFCURVE",
"313 397 CURVE SMOOTH"
);
}
);
width = 350;
}
);
note = agrave;
unicode = 00E0;
},
{
glyphname = aring;
lastChange = "2020-12-20 20:29:43 +0000";
layers = (
{
layerId = "1691882E-B915-4755-A5B2-757873D945FF";
paths = (
{
closed = 1;
nodes = (
"120.667 -2 OFFCURVE",
"166.667 41 OFFCURVE",
"220 127 CURVE",
"213.333 103 OFFCURVE",
"210 82.667 OFFCURVE",
"210 66 CURVE SMOOTH",
"210 49.333 OFFCURVE",
"213 36 OFFCURVE",
"219 26 CURVE SMOOTH",
"231 7.333 OFFCURVE",
"246.667 -2 OFFCURVE",
"266 -2 CURVE SMOOTH",
"308 -2 OFFCURVE",
"359.667 60 OFFCURVE",
"421 184 CURVE SMOOTH",
"423 188.667 OFFCURVE",
"424 192.667 OFFCURVE",
"424 196 CURVE SMOOTH",
"424 202 OFFCURVE",
"421.333 204 OFFCURVE",
"416 202 CURVE SMOOTH",
"412.667 201.333 OFFCURVE",
"409.667 198 OFFCURVE",
"407 192 CURVE SMOOTH",
"380.333 137.333 OFFCURVE",
"353.333 93 OFFCURVE",
"326 59 CURVE SMOOTH",
"307.333 35.667 OFFCURVE",
"291.667 24 OFFCURVE",
"279 24 CURVE SMOOTH",
"258.203 24 OFFCURVE",
"262.105 53.815 OFFCURVE",
"270.5 94.5 CURVE SMOOTH",
"279.167 136.5 OFFCURVE",
"337 247 OFFCURVE",
"361 271 CURVE",
"355.667 269.667 OFFCURVE",
"347.5 270 OFFCURVE",
"336.5 272 CURVE SMOOTH",
"325.5 274 OFFCURVE",
"318.667 275 OFFCURVE",
"316 275 CURVE SMOOTH",
"289.333 275 OFFCURVE",
"276.333 260.333 OFFCURVE",
"251 211 CURVE SMOOTH",
"186.333 88.333 OFFCURVE",
"134 27 OFFCURVE",
"94 27 CURVE SMOOTH",
"77.333 27 OFFCURVE",
"69 40 OFFCURVE",
"69 66 CURVE SMOOTH",
"69 92 OFFCURVE",
"82 126.667 OFFCURVE",
"108 170 CURVE SMOOTH",
"128.667 206 OFFCURVE",
"151 237.333 OFFCURVE",
"175 264 CURVE SMOOTH",
"217 309.333 OFFCURVE",
"252.333 332 OFFCURVE",
"281 332 CURVE SMOOTH",
"305.667 332 OFFCURVE",
"321.667 320 OFFCURVE",
"329 296 CURVE",
"346.333 293.333 OFFCURVE",
"353.333 310.333 OFFCURVE",
"340 325 CURVE SMOOTH",
"318.667 346.333 OFFCURVE",
"292.667 357 OFFCURVE",
"262 357 CURVE SMOOTH",
"250.667 357 OFFCURVE",
"238.667 355.333 OFFCURVE",
"226 352 CURVE SMOOTH",
"179.333 340.667 OFFCURVE",
"140 316.333 OFFCURVE",
"108 279 CURVE SMOOTH",
"51.333 211.667 OFFCURVE",
"23 145.333 OFFCURVE",
"23 80 CURVE SMOOTH",
"23 46 OFFCURVE",
"33 22 OFFCURVE",
"53 8 CURVE SMOOTH",
"61.667 1.333 OFFCURVE",
"71.333 -2 OFFCURVE",
"82 -2 CURVE SMOOTH"
);
},
{
closed = 1;
nodes = (
"384.371 476.923 OFFCURVE",
"385.149 510.745 OFFCURVE",
"362 531 CURVE",
"347.559 540.108 OFFCURVE",
"322.337 540.727 OFFCURVE",
"305.936 540.091 CURVE",
"267 526 LINE",
"252.333 514.667 OFFCURVE",
"245 500.333 OFFCURVE",
"245 483 CURVE SMOOTH",
"245 441.086 OFFCURVE",
"308.009 419.007 OFFCURVE",
"356 455 CURVE SMOOTH"
);
},
{
closed = 1;
nodes = (
"268.371 454 OFFCURVE",
"271.387 525.722 OFFCURVE",
"314 529 CURVE SMOOTH",
"331.333 530.333 OFFCURVE",
"343.333 514.333 OFFCURVE",
"342 493 CURVE SMOOTH",
"339.333 471.667 OFFCURVE",
"325.333 454 OFFCURVE",
"308 454 CURVE SMOOTH"
);
},
{
closed = 1;
nodes = (
"319.5 545 LINE",
"279.203 536.728 OFFCURVE",
"286.152 539.324 OFFCURVE",
"305.936 540.091 CURVE"
);
}
);
width = 350;
}
);
note = aring;
unicode = 00E5;
},
{
glyphname = atilde;
lastChange = "2020-12-20 20:29:43 +0000";
layers = (
{
layerId = "1691882E-B915-4755-A5B2-757873D945FF";
paths = (
{
closed = 1;
nodes = (
"120.667 -2 OFFCURVE",
"166.667 41 OFFCURVE",
"220 127 CURVE",
"213.333 103 OFFCURVE",
"210 82.667 OFFCURVE",
"210 66 CURVE SMOOTH",
"210 49.333 OFFCURVE",
"213 36 OFFCURVE",
"219 26 CURVE SMOOTH",
"231 7.333 OFFCURVE",
"246.667 -2 OFFCURVE",
"266 -2 CURVE SMOOTH",
"308 -2 OFFCURVE",
"359.667 60 OFFCURVE",
"421 184 CURVE SMOOTH",
"433.458 212.446 OFFCURVE",
"403.359 202.562 OFFCURVE",
"407 192 CURVE",
"380.333 137.333 OFFCURVE",
"353.333 93 OFFCURVE",
"326 59 CURVE SMOOTH",
"307.333 35.667 OFFCURVE",
"291.667 24 OFFCURVE",
"279 24 CURVE SMOOTH",
"258.203 24 OFFCURVE",
"262.105 53.815 OFFCURVE",
"270.5 94.5 CURVE SMOOTH",
"279.167 136.5 OFFCURVE",
"337 247 OFFCURVE",
"361 271 CURVE",
"355.667 269.667 OFFCURVE",
"347.5 270 OFFCURVE",
"336.5 272 CURVE SMOOTH",
"325.5 274 OFFCURVE",
"318.667 275 OFFCURVE",
"316 275 CURVE SMOOTH",
"289.333 275 OFFCURVE",
"276.333 260.333 OFFCURVE",
"251 211 CURVE SMOOTH",
"186.333 88.333 OFFCURVE",
"134 27 OFFCURVE",
"94 27 CURVE SMOOTH",
"77.333 27 OFFCURVE",
"69 40 OFFCURVE",
"69 66 CURVE SMOOTH",
"69 92 OFFCURVE",
"82 126.667 OFFCURVE",
"108 170 CURVE SMOOTH",
"128.667 206 OFFCURVE",
"151 237.333 OFFCURVE",
"175 264 CURVE SMOOTH",
"217 309.333 OFFCURVE",
"252.333 332 OFFCURVE",
"281 332 CURVE SMOOTH",
"305.667 332 OFFCURVE",
"321.667 320 OFFCURVE",
"329 296 CURVE",
"346.333 293.333 OFFCURVE",
"353.333 310.333 OFFCURVE",
"340 325 CURVE SMOOTH",
"318.667 346.333 OFFCURVE",
"292.667 357 OFFCURVE",
"262 357 CURVE SMOOTH",
"250.667 357 OFFCURVE",
"238.667 355.333 OFFCURVE",
"226 352 CURVE SMOOTH",
"179.333 340.667 OFFCURVE",
"140 316.333 OFFCURVE",
"108 279 CURVE SMOOTH",
"51.333 211.667 OFFCURVE",
"23 145.333 OFFCURVE",
"23 80 CURVE SMOOTH",
"23 46 OFFCURVE",
"33 22 OFFCURVE",
"53 8 CURVE SMOOTH",
"61.667 1.333 OFFCURVE",
"71.333 -2 OFFCURVE",
"82 -2 CURVE SMOOTH"
);
},
{
closed = 1;
nodes = (
"390 441 OFFCURVE",
"421 467.667 OFFCURVE",
"447 521 CURVE",
"445.667 524.333 OFFCURVE",
"440.667 526 OFFCURVE",
"432 526 CURVE SMOOTH",
"428.667 526 OFFCURVE",
"426.667 525 OFFCURVE",
"426 523 CURVE SMOOTH",
"414.667 499.667 OFFCURVE",
"398.667 488 OFFCURVE",
"378 488 CURVE SMOOTH",
"348.432 488 OFFCURVE",
"304.53 524 OFFCURVE",
"244 524 CURVE SMOOTH",
"210.667 524 OFFCURVE",
"180 499 OFFCURVE",
"152 449 CURVE",
"152 447.667 OFFCURVE",
"153.667 446.333 OFFCURVE",
"157 445 CURVE SMOOTH",
"167.667 441.667 OFFCURVE",
"173.667 442.333 OFFCURVE",
"175 447 CURVE",
"187 469 OFFCURVE",
"201.333 480 OFFCURVE",
"218 480 CURVE SMOOTH",
"234.667 480 OFFCURVE",
"258.667 473 OFFCURVE",
"290 459 CURVE SMOOTH",
"318 447 OFFCURVE",
"339.333 441 OFFCURVE",
"354 441 CURVE SMOOTH"
);
}
);
width = 350;
}
);
note = atilde;
unicode = 00E3;
},
{
glyphname = ae;
lastChange = "2020-12-20 20:29:43 +0000";
layers = (
{
layerId = "1691882E-B915-4755-A5B2-757873D945FF";
paths = (
{
closed = 1;
nodes = (
"368 -4 OFFCURVE",
"410 19.333 OFFCURVE",
"444 66 CURVE SMOOTH",
"486.099 120.911 OFFCURVE",
"530.027 196.493 OFFCURVE",
"508 202 CURVE SMOOTH",
"501.333 203.333 OFFCURVE",
"495.667 198.667 OFFCURVE",
"491 188 CURVE SMOOTH",
"441.667 74 OFFCURVE",
"386.667 17 OFFCURVE",
"326 17 CURVE SMOOTH",
"273.824 17 OFFCURVE",
"266.565 81.953 OFFCURVE",
"293 154 CURVE",
"321 154 OFFCURVE",
"385.667 175.333 OFFCURVE",
"415 198 CURVE SMOOTH",
"463 235.333 OFFCURVE",
"487 273.333 OFFCURVE",
"487 312 CURVE SMOOTH",
"487 324 OFFCURVE",
"481.333 334.667 OFFCURVE",
"470 344 CURVE SMOOTH",
"458 352.667 OFFCURVE",
"444.667 357 OFFCURVE",
"430 357 CURVE SMOOTH",
"405.333 357 OFFCURVE",
"376.333 345 OFFCURVE",
"343 321 CURVE",
"340 325 LINE",
"318.667 346.333 OFFCURVE",
"292.667 357 OFFCURVE",
"262 357 CURVE SMOOTH",
"250.667 357 OFFCURVE",
"238.667 355.333 OFFCURVE",
"226 352 CURVE SMOOTH",
"179.333 340.667 OFFCURVE",
"140 316.333 OFFCURVE",
"108 279 CURVE SMOOTH",
"51.333 211.667 OFFCURVE",
"23 145.333 OFFCURVE",
"23 80 CURVE SMOOTH",
"23 46 OFFCURVE",
"33 22 OFFCURVE",
"53 8 CURVE SMOOTH",
"61.667 1.333 OFFCURVE",
"71.333 -2 OFFCURVE",
"82 -2 CURVE SMOOTH",
"120.667 -2 OFFCURVE",
"166.667 41 OFFCURVE",
"220 127 CURVE",
"219.333 119 OFFCURVE",
"219 111 OFFCURVE",
"219 103 CURVE SMOOTH",
"219 63 OFFCURVE",
"232.333 33.667 OFFCURVE",
"259 15 CURVE SMOOTH",
"277 2.333 OFFCURVE",
"296.667 -4 OFFCURVE",
"318 -4 CURVE SMOOTH"
);
},
{
closed = 1;
nodes = (
"77.333 27 OFFCURVE",
"69 40 OFFCURVE",
"69 66 CURVE SMOOTH",
"69 92 OFFCURVE",
"82 126.667 OFFCURVE",
"108 170 CURVE SMOOTH",
"128.667 206 OFFCURVE",
"151 237.333 OFFCURVE",
"175 264 CURVE SMOOTH",
"216.333 309.333 OFFCURVE",
"252 332 OFFCURVE",
"282 332 CURVE SMOOTH",
"302.667 332 OFFCURVE",
"317 323.333 OFFCURVE",
"325 306 CURVE",
"295 279.333 OFFCURVE",
"270.333 247.667 OFFCURVE",
"251 211 CURVE SMOOTH",
"186.333 88.333 OFFCURVE",
"134 27 OFFCURVE",
"94 27 CURVE SMOOTH"
);
},
{
closed = 1;
nodes = (
"322 213 LINE",
"336 234.333 OFFCURVE",
"348.333 251.667 OFFCURVE",
"359 265 CURVE SMOOTH",
"397 311 OFFCURVE",
"425.333 334 OFFCURVE",
"444 334 CURVE SMOOTH",
"454.667 334 OFFCURVE",
"460 327.333 OFFCURVE",
"460 314 CURVE SMOOTH",
"460 279.333 OFFCURVE",
"441.667 246.333 OFFCURVE",
"405 215 CURVE SMOOTH",
"373 188.333 OFFCURVE",
"325 172.333 OFFCURVE",
"301 171 CURVE"
);
}
);
width = 436;
}
);
note = ae;
unicode = 00E6;
},
{
glyphname = b;
lastChange = "2020-12-20 22:25:01 +0000";
layers = (
{
layerId = "1691882E-B915-4755-A5B2-757873D945FF";
paths = (
{
closed = 1;
nodes = (
"192.667 -2 OFFCURVE",
"247 26 OFFCURVE",
"289 82 CURVE SMOOTH",
"331 137.333 OFFCURVE",
"352 193.667 OFFCURVE",
"352 251 CURVE SMOOTH",
"352 267 OFFCURVE",
"347.667 283.333 OFFCURVE",
"339 300 CURVE SMOOTH",
"326.333 327.333 OFFCURVE",
"302.667 343.667 OFFCURVE",
"268 349 CURVE SMOOTH",
"229.306 357.293 OFFCURVE",
"219 329 OFFCURVE",
"254 329 CURVE SMOOTH",
"262 329 LINE SMOOTH",
"293.333 329 OFFCURVE",
"309 310 OFFCURVE",
"309 272 CURVE SMOOTH",
"309 252 OFFCURVE",
"303.333 229.667 OFFCURVE",
"292 205 CURVE SMOOTH",
"252 110.333 OFFCURVE",
"180 24 OFFCURVE",
"131 24 CURVE SMOOTH",
"107 24 OFFCURVE",
"97 48.667 OFFCURVE",
"97 84 CURVE SMOOTH",
"97 170 OFFCURVE",
"155.667 300 OFFCURVE",
"273 474 CURVE SMOOTH",
"320.333 544 OFFCURVE",
"355 590.667 OFFCURVE",
"377 614 CURVE",
"371.667 612.667 OFFCURVE",
"364 613 OFFCURVE",
"352.5 615 CURVE SMOOTH",
"335 618 LINE",
"329 618 LINE SMOOTH",
"307.667 618 OFFCURVE",
"285.667 601.667 OFFCURVE",
"263 569 CURVE SMOOTH",
"235 527 OFFCURVE",
"186.167 438 OFFCURVE",
"116.5 302 CURVE SMOOTH",
"46.833 166 OFFCURVE",
"1 82 OFFCURVE",
"-23 52 CURVE SMOOTH",
"-25 50 OFFCURVE",
"-25 47 OFFCURVE",
"-25 45 CURVE SMOOTH",
"-25 35 OFFCURVE",
"-21.667 33 OFFCURVE",
"-15 39 CURVE SMOOTH",
"1 54.333 OFFCURVE",
"36.333 113.667 OFFCURVE",
"91 217 CURVE",
"59 150.333 OFFCURVE",
"43 103 OFFCURVE",
"43 75 CURVE SMOOTH",
"43 28.333 OFFCURVE",
"76.667 -2 OFFCURVE",
"126 -2 CURVE SMOOTH"
);
}
);
width = 345;
}
);
note = b;
unicode = 0062;
},
{
glyphname = c;
lastChange = "2020-12-20 20:52:39 +0000";
layers = (
{
layerId = "1691882E-B915-4755-A5B2-757873D945FF";
paths = (
{
closed = 1;
nodes = (
"191 -4 OFFCURVE",
"232 14.667 OFFCURVE",
"262 52 CURVE SMOOTH",
"300.325 99.523 OFFCURVE",
"341 171.924 OFFCURVE",
"341 194.5 CURVE SMOOTH",
"341 197.5 OFFCURVE",
"339.333 199.833 OFFCURVE",
"336 201.5 CURVE SMOOTH",
"332.667 203.167 OFFCURVE",
"328.667 199.333 OFFCURVE",
"324 190 CURVE SMOOTH",
"296 134 OFFCURVE",
"286.833 116.5 OFFCURVE",
"255.5 74.5 CURVE SMOOTH",
"224.167 32.5 OFFCURVE",
"190.167 14 OFFCURVE",
"149.5 14 CURVE SMOOTH",
"108.833 14 OFFCURVE",
"90 46.167 OFFCURVE",
"90 93.5 CURVE SMOOTH",
"90 140.833 OFFCURVE",
"119.667 208 OFFCURVE",
"145 244 CURVE SMOOTH",
"185 301.333 OFFCURVE",
"220.667 330 OFFCURVE",
"252 330 CURVE SMOOTH",
"268 330 OFFCURVE",
"276 320.333 OFFCURVE",
"276 301 CURVE SMOOTH",
"276 281.667 OFFCURVE",
"264.333 258 OFFCURVE",
"241 230 CURVE",
"245.667 225.333 OFFCURVE",
"251.167 223 OFFCURVE",
"257.5 223 CURVE SMOOTH",
"263.833 223 OFFCURVE",
"271.667 227.333 OFFCURVE",
"281 236 CURVE SMOOTH",
"299.667 252 OFFCURVE",
"309 271.333 OFFCURVE",
"309 294 CURVE SMOOTH",
"309 324.667 OFFCURVE",
"288.333 352 OFFCURVE",
"239 352 CURVE SMOOTH",
"188.333 352 OFFCURVE",
"143.667 325.667 OFFCURVE",
"105 273 CURVE SMOOTH",
"67.667 222.333 OFFCURVE",
"34 145.667 OFFCURVE",
"34 87 CURVE SMOOTH",
"34 39 OFFCURVE",
"64.333 -4 OFFCURVE",
"139 -4 CURVE SMOOTH"
);
}
);
width = 260;
}
);
note = c;
unicode = 0063;
},
{
glyphname = ccedilla;
lastChange = "2020-12-20 20:29:42 +0000";
layers = (
{
layerId = "1691882E-B915-4755-A5B2-757873D945FF";
paths = (
{
closed = 1;
nodes = (
"84.5 -191 OFFCURVE",
"54 -182.667 OFFCURVE",
"38 -166 CURVE SMOOTH",
"30.667 -158.667 OFFCURVE",
"25.333 -155 OFFCURVE",
"22 -155 CURVE SMOOTH",
"18.667 -155 OFFCURVE",
"17 -157.333 OFFCURVE",
"17 -162 CURVE SMOOTH",
"17 -209.675 OFFCURVE",
"124.321 -207.582 OFFCURVE",
"219 -191 CURVE",
"285.844 -146.009 OFFCURVE",
"287.115 -85.058 OFFCURVE",
"233 -58 CURVE SMOOTH",
"183.522 -33.261 OFFCURVE",
"144.161 -37.08 OFFCURVE",
"113 -42 CURVE",
"113 -38.667 OFFCURVE",
"123.333 -30 OFFCURVE",
"144 -16 CURVE SMOOTH",
"157 -7 LINE",
"155 -3 LINE",
"202.333 1 OFFCURVE",
"239.333 21.333 OFFCURVE",
"266 58 CURVE SMOOTH",
"298.143 99.926 OFFCURVE",
"329.449 158.063 OFFCURVE",
"341 194.5 CURVE",
"341 197.5 OFFCURVE",
"339.333 199.833 OFFCURVE",
"336 201.5 CURVE SMOOTH",
"332.667 203.167 OFFCURVE",
"328.667 199.333 OFFCURVE",
"324 190 CURVE SMOOTH",
"296 134 OFFCURVE",
"286.833 116.5 OFFCURVE",
"255.5 74.5 CURVE SMOOTH",
"224.167 32.5 OFFCURVE",
"190.167 14 OFFCURVE",
"149.5 14 CURVE SMOOTH",
"108.833 14 OFFCURVE",
"90 46.167 OFFCURVE",
"90 93.5 CURVE SMOOTH",
"90 140.833 OFFCURVE",
"119.667 208 OFFCURVE",
"145 244 CURVE SMOOTH",
"185 301.333 OFFCURVE",
"220.667 330 OFFCURVE",
"252 330 CURVE SMOOTH",
"268 330 OFFCURVE",
"276 320.333 OFFCURVE",
"276 301 CURVE SMOOTH",
"276 281.667 OFFCURVE",
"264.333 258 OFFCURVE",
"241 230 CURVE",
"245.667 225.333 OFFCURVE",
"251.167 223 OFFCURVE",
"257.5 223 CURVE SMOOTH",
"263.833 223 OFFCURVE",
"271.667 227.333 OFFCURVE",
"281 236 CURVE SMOOTH",
"299.667 252 OFFCURVE",
"309 271.333 OFFCURVE",
"309 294 CURVE SMOOTH",
"309 324.667 OFFCURVE",
"288.333 352 OFFCURVE",
"239 352 CURVE SMOOTH",
"188.333 352 OFFCURVE",
"143.667 325.667 OFFCURVE",
"105 273 CURVE SMOOTH",
"67.667 222.333 OFFCURVE",
"34 145.667 OFFCURVE",
"34 87 CURVE SMOOTH",
"34 39 OFFCURVE",
"64.333 -4 OFFCURVE",
"139 -4 CURVE SMOOTH",
"140 -4 LINE",
"103.333 -29.333 OFFCURVE",
"82.167 -45.167 OFFCURVE",
"76.5 -51.5 CURVE SMOOTH",
"70.833 -57.833 OFFCURVE",
"68 -62.833 OFFCURVE",
"68 -66.5 CURVE SMOOTH",
"68 -73.833 OFFCURVE",
"78.667 -81 OFFCURVE",
"84 -81 CURVE SMOOTH",
"86.667 -81 OFFCURVE",
"96 -77 OFFCURVE",
"112 -69 CURVE SMOOTH",
"128 -61 OFFCURVE",
"144.667 -57 OFFCURVE",
"162 -57 CURVE SMOOTH",
"196.667 -57 OFFCURVE",
"234 -79.167 OFFCURVE",
"234 -110.5 CURVE SMOOTH",
"234 -126.167 OFFCURVE",
"229.333 -141 OFFCURVE",
"220 -155 CURVE SMOOTH",
"204.667 -179 OFFCURVE",
"174.5 -191 OFFCURVE",
"129.5 -191 CURVE SMOOTH"
);
}
);
width = 260;
}
);
note = ccedilla;
unicode = 00E7;
},
{
glyphname = d;
lastChange = "2020-12-20 20:29:43 +0000";
layers = (
{
layerId = "1691882E-B915-4755-A5B2-757873D945FF";
paths = (
{
closed = 1;
nodes = (
"330.667 0 OFFCURVE",
"384.667 62 OFFCURVE",
"438 186 CURVE SMOOTH",
"447.104 208.76 OFFCURVE",
"433.821 212.642 OFFCURVE",
"419 183 CURVE SMOOTH",
"367 78.333 OFFCURVE",
"325.333 26 OFFCURVE",
"294 26 CURVE SMOOTH",
"276.667 26 OFFCURVE",
"268 36.667 OFFCURVE",
"268 58 CURVE SMOOTH",
"268 70.667 OFFCURVE",
"271.333 86.667 OFFCURVE",
"278 106 CURVE SMOOTH",
"295.333 158 OFFCURVE",
"346 262 OFFCURVE",
"430 418 CURVE SMOOTH",
"496 540 OFFCURVE",
"536.667 608 OFFCURVE",
"552 622 CURVE",
"546 621.333 OFFCURVE",
"537.5 621.833 OFFCURVE",
"526.5 623.5 CURVE SMOOTH",
"507.5 626 LINE",
"498.807 626 OFFCURVE",
"485.994 628.811 OFFCURVE",
"468.5 616.5 CURVE SMOOTH",
"459.5 610.167 OFFCURVE",
"450.333 596 OFFCURVE",
"441 574 CURVE SMOOTH",
"409 501.333 OFFCURVE",
"370.333 422.333 OFFCURVE",
"325 337 CURVE",
"301.667 349 OFFCURVE",
"280.5 355 OFFCURVE",
"261.5 355 CURVE SMOOTH",
"242.5 355 OFFCURVE",
"226 352.667 OFFCURVE",
"212 348 CURVE SMOOTH",
"134.667 325.333 OFFCURVE",
"79.5 250.833 OFFCURVE",
"49.5 179.5 CURVE SMOOTH",
"34.5 143.833 OFFCURVE",
"27 111.333 OFFCURVE",
"27 82 CURVE SMOOTH",
"27 38.667 OFFCURVE",
"43.333 12.667 OFFCURVE",
"76 4 CURVE SMOOTH",
"83.333 2 OFFCURVE",
"90.833 1 OFFCURVE",
"98.5 1 CURVE SMOOTH",
"106.167 1 OFFCURVE",
"114 2.667 OFFCURVE",
"122 6 CURVE SMOOTH",
"150 14.667 OFFCURVE",
"183.333 51 OFFCURVE",
"222 115 CURVE",
"214.344 84.376 OFFCURVE",
"212.462 54.807 OFFCURVE",
"233 24 CURVE SMOOTH",
"243.667 8 OFFCURVE",
"258 0 OFFCURVE",
"276 0 CURVE SMOOTH"
);
},
{
closed = 1;
nodes = (
"83.333 30 OFFCURVE",
"75 50.667 OFFCURVE",
"75 72 CURVE SMOOTH",
"75 95.333 OFFCURVE",
"84.667 125 OFFCURVE",
"104 161 CURVE SMOOTH",
"133.333 215.667 OFFCURVE",
"170.333 261.667 OFFCURVE",
"215 299 CURVE SMOOTH",
"243 322.333 OFFCURVE",
"264.833 334 OFFCURVE",
"280.5 334 CURVE SMOOTH",
"296.167 334 OFFCURVE",
"308.333 329.667 OFFCURVE",
"317 321 CURVE",
"263 220.333 OFFCURVE",
"219.333 146.667 OFFCURVE",
"186 100 CURVE SMOOTH",
"152.667 53.333 OFFCURVE",
"124.667 30 OFFCURVE",
"102 30 CURVE SMOOTH"
);
}
);
width = 367;
}
);
note = d;
unicode = 0064;
},
{
glyphname = eth;
lastChange = "2020-12-20 20:29:43 +0000";
layers = (
{
layerId = "1691882E-B915-4755-A5B2-757873D945FF";
paths = (
{
closed = 1;
nodes = (
"122.833 -5 OFFCURVE",
"144.667 0.333 OFFCURVE",
"166 11 CURVE SMOOTH",
"203.333 30.333 OFFCURVE",
"236 63.333 OFFCURVE",
"264 110 CURVE SMOOTH",
"311.333 190.667 OFFCURVE",
"335 279.333 OFFCURVE",
"335 376 CURVE SMOOTH",
"335 448 OFFCURVE",
"320.333 505.667 OFFCURVE",
"291 549 CURVE",
"339.064 580.101 OFFCURVE",
"376 600.549 OFFCURVE",
"376 607.5 CURVE SMOOTH",
"376 610.5 OFFCURVE",
"375.333 613 OFFCURVE",
"374 615 CURVE SMOOTH",
"368 622.333 OFFCURVE",
"359.667 623 OFFCURVE",
"349 617 CURVE SMOOTH",
"271 575 LINE",
"241 606.333 OFFCURVE",
"204.167 622 OFFCURVE",
"160.5 622 CURVE SMOOTH",
"116.833 622 OFFCURVE",
"95 615 OFFCURVE",
"95 601 CURVE SMOOTH",
"95 596.333 OFFCURVE",
"98.667 594 OFFCURVE",
"106 594 CURVE SMOOTH",
"142 598 LINE",
"176.667 598 OFFCURVE",
"206.667 583 OFFCURVE",
"232 553 CURVE",
"156 511 LINE",
"127.64 491.124 OFFCURVE",
"182.144 453.433 OFFCURVE",
"178.5 468 CURVE",
"210.5 491.5 LINE SMOOTH",
"228.833 505.167 OFFCURVE",
"243.333 515.667 OFFCURVE",
"254 523 CURVE",
"284 471.667 OFFCURVE",
"299 412 OFFCURVE",
"299 344 CURVE SMOOTH",
"299 314 OFFCURVE",
"295.333 282.667 OFFCURVE",
"288 250 CURVE",
"288 265 LINE SMOOTH",
"288 299.667 OFFCURVE",
"268.667 322 OFFCURVE",
"234 322 CURVE SMOOTH",
"196 322 OFFCURVE",
"158 304 OFFCURVE",
"120 268 CURVE SMOOTH",
"64 216 OFFCURVE",
"36 156.333 OFFCURVE",
"36 89 CURVE SMOOTH",
"36 42.333 OFFCURVE",
"55.833 -5 OFFCURVE",
"100.5 -5 CURVE SMOOTH"
);
},
{
closed = 1;
nodes = (
"89.333 7 OFFCURVE",
"80 20.333 OFFCURVE",
"80 47 CURVE SMOOTH",
"80 117 OFFCURVE",
"106 186.667 OFFCURVE",
"158 256 CURVE SMOOTH",
"186 293.333 OFFCURVE",
"213 312 OFFCURVE",
"239 312 CURVE SMOOTH",
"262.333 312 OFFCURVE",
"274 294.333 OFFCURVE",
"274 259 CURVE SMOOTH",
"274 223.667 OFFCURVE",
"265.333 190.667 OFFCURVE",
"248 160 CURVE SMOOTH",
"192.667 58 OFFCURVE",
"146 7 OFFCURVE",
"108 7 CURVE SMOOTH"
);
}
);
width = 388;
}
);
note = eth;
unicode = 00F0;
},
{
glyphname = e;
lastChange = "2020-12-20 20:29:42 +0000";
layers = (
{
layerId = "1691882E-B915-4755-A5B2-757873D945FF";
paths = (
{
closed = 1;
nodes = (
"177 -4 OFFCURVE",
"219 19.333 OFFCURVE",
"253 66 CURVE SMOOTH",
"295.099 120.911 OFFCURVE",
"339.027 196.493 OFFCURVE",
"317 202 CURVE SMOOTH",
"310.333 203.333 OFFCURVE",
"304.667 198.667 OFFCURVE",
"300 188 CURVE SMOOTH",
"250.667 74 OFFCURVE",
"195.667 17 OFFCURVE",
"135 17 CURVE SMOOTH",
"104.333 17 OFFCURVE",
"87 40.667 OFFCURVE",
"87 78 CURVE SMOOTH",
"87 106 OFFCURVE",
"91.667 131.333 OFFCURVE",
"101 154 CURVE",
"129 154 OFFCURVE",
"194.667 175.333 OFFCURVE",
"224 198 CURVE SMOOTH",
"272 234.667 OFFCURVE",
"296 273 OFFCURVE",
"296 313 CURVE SMOOTH",
"296 324.333 OFFCURVE",
"290.333 334.667 OFFCURVE",
"279 344 CURVE SMOOTH",
"267 352 OFFCURVE",
"254 356 OFFCURVE",
"240 356 CURVE SMOOTH",
"226 356 OFFCURVE",
"211.333 352.667 OFFCURVE",
"196 346 CURVE SMOOTH",
"97.252 304.855 OFFCURVE",
"31 189.188 OFFCURVE",
"31 93 CURVE SMOOTH",
"31 33 OFFCURVE",
"73.667 -4 OFFCURVE",
"127 -4 CURVE SMOOTH"
);
},
{
closed = 1;
nodes = (
"125.333 205.667 OFFCURVE",
"145.333 237 OFFCURVE",
"168 265 CURVE SMOOTH",
"206 311 OFFCURVE",
"234.333 334 OFFCURVE",
"253 334 CURVE SMOOTH",
"263.667 334 OFFCURVE",
"269 327.333 OFFCURVE",
"269 314 CURVE SMOOTH",
"269 279.333 OFFCURVE",
"250.667 246.333 OFFCURVE",
"214 215 CURVE SMOOTH",
"182 188.333 OFFCURVE",
"130.667 171 OFFCURVE",
"108 171 CURVE"
);
}
);
width = 246;
}
);
note = e;
unicode = 0065;
},
{
glyphname = eacute;
lastChange = "2020-12-20 20:29:42 +0000";
layers = (
{
layerId = "1691882E-B915-4755-A5B2-757873D945FF";
paths = (
{
closed = 1;
nodes = (
"177 -4 OFFCURVE",
"219 19.333 OFFCURVE",
"253 66 CURVE SMOOTH",
"268.333 86 OFFCURVE",
"290 126.333 OFFCURVE",
"318 187 CURVE SMOOTH",
"321.333 195 OFFCURVE",
"321 200 OFFCURVE",
"317 202 CURVE",
"310.333 203.333 OFFCURVE",
"304.667 198.667 OFFCURVE",
"300 188 CURVE SMOOTH",
"250.667 74 OFFCURVE",
"195.667 17 OFFCURVE",
"135 17 CURVE SMOOTH",
"104.333 17 OFFCURVE",
"87 40.667 OFFCURVE",
"87 78 CURVE SMOOTH",
"87 106 OFFCURVE",
"91.667 131.333 OFFCURVE",
"101 154 CURVE",
"129 154 OFFCURVE",
"194.667 175.333 OFFCURVE",
"224 198 CURVE SMOOTH",
"272 234.667 OFFCURVE",
"296 273 OFFCURVE",
"296 313 CURVE SMOOTH",
"296 324.333 OFFCURVE",
"290.333 334.667 OFFCURVE",
"279 344 CURVE SMOOTH",
"267 352 OFFCURVE",
"254 356 OFFCURVE",
"240 356 CURVE SMOOTH",
"226 356 OFFCURVE",
"211.333 352.667 OFFCURVE",
"196 346 CURVE SMOOTH",
"97.252 304.855 OFFCURVE",
"31 189.188 OFFCURVE",
"31 93 CURVE SMOOTH",
"31 33 OFFCURVE",
"73.667 -4 OFFCURVE",
"127 -4 CURVE SMOOTH"
);
},
{
closed = 1;
nodes = (
"125.333 205.667 OFFCURVE",
"145.333 237 OFFCURVE",
"168 265 CURVE SMOOTH",
"206 311 OFFCURVE",
"234.333 334 OFFCURVE",
"253 334 CURVE SMOOTH",
"263.667 334 OFFCURVE",
"269 327.333 OFFCURVE",
"269 314 CURVE SMOOTH",
"269 279.333 OFFCURVE",
"250.667 246.333 OFFCURVE",
"214 215 CURVE SMOOTH",
"182 188.333 OFFCURVE",
"130.667 171 OFFCURVE",
"108 171 CURVE"
);
},
{
closed = 1;
nodes = (
"209.249 411.949 OFFCURVE",
"208.882 411.674 OFFCURVE",
"214.732 416.212 CURVE SMOOTH",
"232.5 430 LINE",
"224.903 424.711 OFFCURVE",
"219.106 420.144 OFFCURVE",
"214.732 416.212 CURVE SMOOTH",
"213.904 415.461 LINE SMOOTH"
);
},
{
closed = 1;
nodes = (
"222.667 394 OFFCURVE",
"387.333 467 OFFCURVE",
"394 483 CURVE SMOOTH",
"403.115 501.229 OFFCURVE",
"391.242 512.897 OFFCURVE",
"362.5 514 CURVE SMOOTH",
"343.237 514 OFFCURVE",
"326.003 496.47 OFFCURVE",
"290 471.5 CURVE SMOOTH",
"257.605 448.445 OFFCURVE",
"224.547 423.49 OFFCURVE",
"213.904 415.461 CURVE SMOOTH",
"195.099 398.192 OFFCURVE",
"204.437 393.603 OFFCURVE",
"208 394 CURVE SMOOTH"
);
}
);
width = 246;
}
);
note = eacute;
unicode = 00E9;
},
{
glyphname = ecircumflex;
lastChange = "2020-12-20 20:29:42 +0000";
layers = (
{
layerId = "1691882E-B915-4755-A5B2-757873D945FF";
paths = (
{
closed = 1;
nodes = (
"177 -4 OFFCURVE",
"219 19.333 OFFCURVE",
"253 66 CURVE SMOOTH",
"268.333 86 OFFCURVE",
"290 126.333 OFFCURVE",
"318 187 CURVE SMOOTH",
"321.333 195 OFFCURVE",
"321 200 OFFCURVE",
"317 202 CURVE",
"310.333 203.333 OFFCURVE",
"304.667 198.667 OFFCURVE",
"300 188 CURVE SMOOTH",
"250.667 74 OFFCURVE",
"195.667 17 OFFCURVE",
"135 17 CURVE SMOOTH",
"104.333 17 OFFCURVE",
"87 40.667 OFFCURVE",
"87 78 CURVE SMOOTH",
"87 106 OFFCURVE",
"91.667 131.333 OFFCURVE",
"101 154 CURVE",
"129 154 OFFCURVE",
"194.667 175.333 OFFCURVE",
"224 198 CURVE SMOOTH",
"272 234.667 OFFCURVE",
"296 273 OFFCURVE",
"296 313 CURVE SMOOTH",
"296 324.333 OFFCURVE",
"290.333 334.667 OFFCURVE",
"279 344 CURVE SMOOTH",
"267 352 OFFCURVE",
"254 356 OFFCURVE",
"240 356 CURVE SMOOTH",
"226 356 OFFCURVE",
"211.333 352.667 OFFCURVE",
"196 346 CURVE SMOOTH",
"97.252 304.855 OFFCURVE",
"31 189.188 OFFCURVE",
"31 93 CURVE SMOOTH",
"31 33 OFFCURVE",
"73.667 -4 OFFCURVE",
"127 -4 CURVE SMOOTH"
);
},
{
closed = 1;
nodes = (
"125.333 205.667 OFFCURVE",
"145.333 237 OFFCURVE",
"168 265 CURVE SMOOTH",
"206 311 OFFCURVE",
"234.333 334 OFFCURVE",
"253 334 CURVE SMOOTH",
"263.667 334 OFFCURVE",
"269 327.333 OFFCURVE",
"269 314 CURVE SMOOTH",
"269 279.333 OFFCURVE",
"250.667 246.333 OFFCURVE",
"214 215 CURVE SMOOTH",
"182 188.333 OFFCURVE",
"130.667 171 OFFCURVE",
"108 171 CURVE"
);
},
{
closed = 1;
nodes = (
"154.272 394.194 OFFCURVE",
"189.482 406.119 OFFCURVE",
"168 410 CURVE",
"300 481 LINE",
"346 410 LINE SMOOTH",
"350.792 402.812 OFFCURVE",
"371.598 400.685 OFFCURVE",
"366 410 CURVE",
"330 516 LINE",
"330 517.333 OFFCURVE",
"326.667 518 OFFCURVE",
"320 518 CURVE SMOOTH",
"313.333 518 OFFCURVE",
"304 517.333 OFFCURVE",
"292 516 CURVE",
"143 410 LINE"
);
}
);
width = 246;
}
);
note = ecircumflex;
unicode = 00EA;
},
{
glyphname = edieresis;
lastChange = "2020-12-20 20:29:43 +0000";
layers = (
{
layerId = "1691882E-B915-4755-A5B2-757873D945FF";
paths = (
{
closed = 1;
nodes = (
"177 -4 OFFCURVE",
"219 19.333 OFFCURVE",
"253 66 CURVE SMOOTH",
"268.333 86 OFFCURVE",
"290 126.333 OFFCURVE",
"318 187 CURVE SMOOTH",
"321.333 195 OFFCURVE",
"321 200 OFFCURVE",
"317 202 CURVE",
"310.333 203.333 OFFCURVE",
"304.667 198.667 OFFCURVE",
"300 188 CURVE SMOOTH",
"250.667 74 OFFCURVE",
"195.667 17 OFFCURVE",
"135 17 CURVE SMOOTH",
"104.333 17 OFFCURVE",
"87 40.667 OFFCURVE",
"87 78 CURVE SMOOTH",
"87 106 OFFCURVE",
"91.667 131.333 OFFCURVE",
"101 154 CURVE",
"129 154 OFFCURVE",
"194.667 175.333 OFFCURVE",
"224 198 CURVE SMOOTH",
"272 234.667 OFFCURVE",
"296 273 OFFCURVE",
"296 313 CURVE SMOOTH",
"296 324.333 OFFCURVE",
"290.333 334.667 OFFCURVE",
"279 344 CURVE SMOOTH",
"267 352 OFFCURVE",
"254 356 OFFCURVE",
"240 356 CURVE SMOOTH",
"226 356 OFFCURVE",
"211.333 352.667 OFFCURVE",
"196 346 CURVE SMOOTH",
"97.252 304.855 OFFCURVE",
"31 189.188 OFFCURVE",
"31 93 CURVE SMOOTH",
"31 33 OFFCURVE",
"73.667 -4 OFFCURVE",
"127 -4 CURVE SMOOTH"
);
},
{
closed = 1;
nodes = (
"125.333 205.667 OFFCURVE",
"145.333 237 OFFCURVE",
"168 265 CURVE SMOOTH",
"206 311 OFFCURVE",
"234.333 334 OFFCURVE",
"253 334 CURVE SMOOTH",
"263.667 334 OFFCURVE",
"269 327.333 OFFCURVE",
"269 314 CURVE SMOOTH",
"269 279.333 OFFCURVE",
"250.667 246.333 OFFCURVE",
"214 215 CURVE SMOOTH",
"182 188.333 OFFCURVE",
"130.667 171 OFFCURVE",
"108 171 CURVE"
);
},
{
closed = 1;
nodes = (
"213.833 407 OFFCURVE",
"227 421.167 OFFCURVE",
"227 440.5 CURVE SMOOTH",
"227 459.833 OFFCURVE",
"212.833 473 OFFCURVE",
"193.5 473 CURVE SMOOTH",
"174.167 473 OFFCURVE",
"161 458.833 OFFCURVE",
"161 439.5 CURVE SMOOTH",
"161 420.167 OFFCURVE",
"175.167 407 OFFCURVE",
"194.5 407 CURVE SMOOTH"
);
},
{
closed = 1;
nodes = (
"342.833 407 OFFCURVE",
"356 421.167 OFFCURVE",
"356 440.5 CURVE SMOOTH",
"356 459.833 OFFCURVE",
"341.833 473 OFFCURVE",
"322.5 473 CURVE SMOOTH",
"303.167 473 OFFCURVE",
"290 458.833 OFFCURVE",
"290 439.5 CURVE SMOOTH",
"290 420.167 OFFCURVE",
"304.167 407 OFFCURVE",
"323.5 407 CURVE SMOOTH"
);
}
);
width = 246;
}
);
note = edieresis;
unicode = 00EB;
},
{
glyphname = egrave;
lastChange = "2020-12-20 20:29:43 +0000";
layers = (
{
layerId = "1691882E-B915-4755-A5B2-757873D945FF";
paths = (
{
closed = 1;
nodes = (
"177 -4 OFFCURVE",
"219 19.333 OFFCURVE",
"253 66 CURVE SMOOTH",
"295.099 120.911 OFFCURVE",
"339.027 196.493 OFFCURVE",
"317 202 CURVE SMOOTH",
"310.333 203.333 OFFCURVE",
"304.667 198.667 OFFCURVE",
"300 188 CURVE SMOOTH",
"250.667 74 OFFCURVE",
"195.667 17 OFFCURVE",
"135 17 CURVE SMOOTH",
"104.333 17 OFFCURVE",
"87 40.667 OFFCURVE",
"87 78 CURVE SMOOTH",
"87 106 OFFCURVE",
"91.667 131.333 OFFCURVE",
"101 154 CURVE",
"129 154 OFFCURVE",
"194.667 175.333 OFFCURVE",
"224 198 CURVE SMOOTH",
"272 234.667 OFFCURVE",
"296 273 OFFCURVE",
"296 313 CURVE SMOOTH",
"296 324.333 OFFCURVE",
"290.333 334.667 OFFCURVE",
"279 344 CURVE SMOOTH",
"267 352 OFFCURVE",
"254 356 OFFCURVE",
"240 356 CURVE SMOOTH",
"226 356 OFFCURVE",
"211.333 352.667 OFFCURVE",
"196 346 CURVE SMOOTH",
"97.252 304.855 OFFCURVE",
"31 189.188 OFFCURVE",
"31 93 CURVE SMOOTH",
"31 33 OFFCURVE",
"73.667 -4 OFFCURVE",
"127 -4 CURVE SMOOTH"
);
},
{
closed = 1;
nodes = (
"125.333 205.667 OFFCURVE",
"145.333 237 OFFCURVE",
"168 265 CURVE SMOOTH",
"206 311 OFFCURVE",
"234.333 334 OFFCURVE",
"253 334 CURVE SMOOTH",
"263.667 334 OFFCURVE",
"269 327.333 OFFCURVE",
"269 314 CURVE SMOOTH",
"269 279.333 OFFCURVE",
"250.667 246.333 OFFCURVE",
"214 215 CURVE SMOOTH",
"182 188.333 OFFCURVE",
"130.667 171 OFFCURVE",
"108 171 CURVE"
);
},
{
closed = 1;
nodes = (
"283.667 388 OFFCURVE",
"287 391 OFFCURVE",
"287 397 CURVE SMOOTH",
"287 405 OFFCURVE",
"139.333 523 OFFCURVE",
"122 523 CURVE SMOOTH",
"109.333 523 OFFCURVE",
"103 515.167 OFFCURVE",
"103 499.5 CURVE SMOOTH",
"103 483.833 OFFCURVE",
"115.333 469.667 OFFCURVE",
"140 457 CURVE SMOOTH",
"208.5 421 LINE SMOOTH",
"250.167 399 OFFCURVE",
"273 388 OFFCURVE",
"277 388 CURVE SMOOTH"
);
}
);
width = 246;
}
);
note = egrave;
unicode = 00E8;
},
{
glyphname = f;
lastChange = "2020-12-20 20:29:43 +0000";
layers = (
{
layerId = "1691882E-B915-4755-A5B2-757873D945FF";
paths = (
{
closed = 1;
nodes = (
"4.333 -348 OFFCURVE",
"67 -258 OFFCURVE",
"91 -162 CURVE SMOOTH",
"112.577 -75.694 OFFCURVE",
"109.852 -30.627 OFFCURVE",
"108 -1 CURVE",
"161.333 -1 OFFCURVE",
"215.667 62 OFFCURVE",
"271 188 CURVE SMOOTH",
"276.703 199.405 OFFCURVE",
"268.19 205.794 OFFCURVE",
"261 201 CURVE SMOOTH",
"240.702 187.468 OFFCURVE",
"186.653 18 OFFCURVE",
"109 18 CURVE SMOOTH",
"106 18 LINE",
"103 31 LINE SMOOTH",
"97 62.333 OFFCURVE",
"86.333 87.333 OFFCURVE",
"71 106 CURVE",
"172.333 334 OFFCURVE",
"301.333 562.333 OFFCURVE",
"364 621 CURVE",
"358.667 620.333 OFFCURVE",
"350.667 621 OFFCURVE",
"340 623 CURVE SMOOTH",
"329.333 625 OFFCURVE",
"322.667 626 OFFCURVE",
"320 626 CURVE SMOOTH",
"281.333 626 OFFCURVE",
"259 604 OFFCURVE",
"235 556 CURVE SMOOTH",
"174.333 442.667 OFFCURVE",
"106 300.333 OFFCURVE",
"30 129 CURVE",
"28 129.667 OFFCURVE",
"23.833 130 OFFCURVE",
"17.5 130 CURVE SMOOTH",
"11.167 130 OFFCURVE",
"3.333 126 OFFCURVE",
"-6 118 CURVE SMOOTH",
"-18.667 108.667 OFFCURVE",
"-25 90 OFFCURVE",
"-25 62 CURVE SMOOTH",
"-25 53.333 OFFCURVE",
"-21 42.333 OFFCURVE",
"-13 29 CURVE",
"-81.667 -133 OFFCURVE",
"-116 -240.333 OFFCURVE",
"-116 -293 CURVE SMOOTH",
"-116 -329.667 OFFCURVE",
"-97.667 -348 OFFCURVE",
"-61 -348 CURVE SMOOTH"
);
},
{
closed = 1;
nodes = (
"-56.667 -322 OFFCURVE",
"-62 -312.333 OFFCURVE",
"-62 -293 CURVE SMOOTH",
"-62 -243.667 OFFCURVE",
"-31.667 -142.333 OFFCURVE",
"29 11 CURVE",
"42.333 0.333 OFFCURVE",
"58.667 -5 OFFCURVE",
"78 -5 CURVE SMOOTH",
"87 -5 LINE",
"87 -15 LINE SMOOTH",
"87 -99 OFFCURVE",
"51.167 -218.167 OFFCURVE",
"6.5 -277.5 CURVE SMOOTH",
"-15.833 -307.167 OFFCURVE",
"-33.333 -322 OFFCURVE",
"-46 -322 CURVE SMOOTH"
);
},
{
closed = 1;
nodes = (
"59 14 OFFCURVE",
"45.667 20.333 OFFCURVE",
"39 33 CURVE",
"61 83 LINE",
"75 65.667 OFFCURVE",
"83 42.667 OFFCURVE",
"85 14 CURVE",
"79 14 LINE SMOOTH"
);
}
);
width = 198;
}
);
note = f;
unicode = 0066;
},
{
glyphname = g;
lastChange = "2020-12-20 20:29:43 +0000";
layers = (
{
layerId = "1691882E-B915-4755-A5B2-757873D945FF";
paths = (
{
closed = 1;
nodes = (
"78.667 -316 OFFCURVE",
"178.833 -236.333 OFFCURVE",
"239.5 -147 CURVE SMOOTH",
"269.833 -102.333 OFFCURVE",
"293 -57.333 OFFCURVE",
"309 -12 CURVE",
"377 20 OFFCURVE",
"404.333 62.667 OFFCURVE",
"463 184 CURVE SMOOTH",
"465 188.667 OFFCURVE",
"466 192.667 OFFCURVE",
"466 196 CURVE SMOOTH",
"466 213.932 OFFCURVE",
"452.451 203.693 OFFCURVE",
"437 168.5 CURVE SMOOTH",
"425 141.167 OFFCURVE",
"411.5 114.667 OFFCURVE",
"385.5 80 CURVE SMOOTH",
"372.5 62.667 OFFCURVE",
"350.667 43 OFFCURVE",
"320 21 CURVE",
"334 72.333 OFFCURVE",
"341 118.167 OFFCURVE",
"341 158.5 CURVE SMOOTH",
"341 198.833 OFFCURVE",
"338.333 234 OFFCURVE",
"333 264 CURVE",
"324.274 257.02 OFFCURVE",
"303.979 260.422 OFFCURVE",
"288.5 251 CURVE SMOOTH",
"280.833 246.333 OFFCURVE",
"274.333 235 OFFCURVE",
"269 217 CURVE SMOOTH",
"230.737 102.815 OFFCURVE",
"96.069 -15.05 OFFCURVE",
"110 30 CURVE",
"105.333 30 OFFCURVE",
"100.667 31 OFFCURVE",
"96 33 CURVE SMOOTH",
"82.667 40.333 OFFCURVE",
"76 54.833 OFFCURVE",
"76 76.5 CURVE SMOOTH",
"76 98.167 OFFCURVE",
"87 129 OFFCURVE",
"109 169 CURVE SMOOTH",
"127 201 OFFCURVE",
"148.333 231 OFFCURVE",
"173 259 CURVE SMOOTH",
"217 308.333 OFFCURVE",
"256.667 333 OFFCURVE",
"292 333 CURVE SMOOTH",
"311.333 333 OFFCURVE",
"325.333 320.667 OFFCURVE",
"334 296 CURVE SMOOTH",
"344.087 265.739 OFFCURVE",
"383.271 293.905 OFFCURVE",
"345 325 CURVE",
"316.333 345 OFFCURVE",
"287 355 OFFCURVE",
"257 355 CURVE SMOOTH",
"245.667 355 OFFCURVE",
"234.333 353.333 OFFCURVE",
"223 350 CURVE SMOOTH",
"181 340 OFFCURVE",
"144.333 316.333 OFFCURVE",
"113 279 CURVE SMOOTH",
"55.667 210.333 OFFCURVE",
"27 147.333 OFFCURVE",
"27 90 CURVE SMOOTH",
"27 47.333 OFFCURVE",
"44.333 18.667 OFFCURVE",
"79 4 CURVE",
"117 -6.667 OFFCURVE",
"155.333 12 OFFCURVE",
"194 60 CURVE SMOOTH",
"226.667 100 OFFCURVE",
"252.333 139 OFFCURVE",
"271 177 CURVE",
"272.333 171 OFFCURVE",
"273 162 OFFCURVE",
"273 150 CURVE SMOOTH",
"273 90 OFFCURVE",
"264.333 34.667 OFFCURVE",
"247 -16 CURVE",
"231 -22.667 OFFCURVE",
"205.333 -31.667 OFFCURVE",
"170 -43 CURVE SMOOTH",
"93.333 -68.333 OFFCURVE",
"30.333 -95.333 OFFCURVE",
"-19 -124 CURVE SMOOTH",
"-77 -158 OFFCURVE",
"-106 -196.333 OFFCURVE",
"-106 -239 CURVE SMOOTH",
"-106 -290.333 OFFCURVE",
"-74.667 -316 OFFCURVE",
"-12 -316 CURVE SMOOTH"
);
},
{
closed = 1;
nodes = (
"-68.667 -296 OFFCURVE",
"-85 -283.333 OFFCURVE",
"-85 -258 CURVE SMOOTH",
"-85 -250.667 OFFCURVE",
"-83.333 -242 OFFCURVE",
"-80 -232 CURVE SMOOTH",
"-70 -200 OFFCURVE",
"-49.333 -173.667 OFFCURVE",
"-18 -153 CURVE SMOOTH",
"24.667 -125 OFFCURVE",
"98 -93 OFFCURVE",
"202 -57 CURVE SMOOTH",
"237 -45 LINE",
"223.667 -77.667 OFFCURVE",
"204.667 -111.333 OFFCURVE",
"180 -146 CURVE SMOOTH",
"147.333 -189.333 OFFCURVE",
"117.333 -222 OFFCURVE",
"90 -244 CURVE SMOOTH",
"58 -268 OFFCURVE",
"2.667 -296 OFFCURVE",
"-36 -296 CURVE SMOOTH"
);
}
);
width = 392;
}
);
note = g;
unicode = 0067;
},
{
glyphname = h;
lastChange = "2020-12-20 20:29:42 +0000";
layers = (
{
layerId = "1691882E-B915-4755-A5B2-757873D945FF";
paths = (
{
closed = 1;
nodes = (
"-35.333 -4.333 OFFCURVE",
"-24 -2.333 OFFCURVE",
"-6 -1 CURVE SMOOTH",
"14 -1 OFFCURVE",
"26.333 4 OFFCURVE",
"31 14 CURVE SMOOTH",
"76.333 102 OFFCURVE",
"123 168 OFFCURVE",
"171 212 CURVE SMOOTH",
"239.896 276.59 OFFCURVE",
"271.451 266.192 OFFCURVE",
"242 218 CURVE SMOOTH",
"192.214 138.343 OFFCURVE",
"177 98.029 OFFCURVE",
"177 59.5 CURVE SMOOTH",
"177 44.5 OFFCURVE",
"180 32.667 OFFCURVE",
"186 24 CURVE SMOOTH",
"199.333 5.333 OFFCURVE",
"217.333 -4 OFFCURVE",
"240 -4 CURVE SMOOTH",
"274.667 -4 OFFCURVE",
"307.333 19.333 OFFCURVE",
"338 66 CURVE SMOOTH",
"367.333 112.667 OFFCURVE",
"379.167 136.167 OFFCURVE",
"394.5 167.5 CURVE SMOOTH",
"402.167 183.167 OFFCURVE",
"406 192.667 OFFCURVE",
"406 196 CURVE SMOOTH",
"406 202.667 OFFCURVE",
"397.333 211.667 OFFCURVE",
"388 193 CURVE SMOOTH",
"330.667 75.667 OFFCURVE",
"286.333 17 OFFCURVE",
"255 17 CURVE SMOOTH",
"241.667 17 OFFCURVE",
"235 26.333 OFFCURVE",
"235 45 CURVE SMOOTH",
"235 89.667 OFFCURVE",
"276 184 OFFCURVE",
"358 328 CURVE",
"354.667 329.333 OFFCURVE",
"351 330 OFFCURVE",
"347 330 CURVE SMOOTH",
"313.667 330 OFFCURVE",
"226.5 282 OFFCURVE",
"176.5 238 CURVE SMOOTH",
"151.5 216 OFFCURVE",
"123.333 185.333 OFFCURVE",
"92 146 CURVE",
"186.667 339.333 OFFCURVE",
"308 561.667 OFFCURVE",
"348 603 CURVE",
"342.667 602.333 OFFCURVE",
"334.667 602.833 OFFCURVE",
"324 604.5 CURVE SMOOTH",
"313.333 606.167 OFFCURVE",
"306.333 607 OFFCURVE",
"303 607 CURVE SMOOTH",
"276.333 607 OFFCURVE",
"260.333 590.667 OFFCURVE",
"235 544 CURVE SMOOTH",
"178.333 440 OFFCURVE",
"86.667 256.333 OFFCURVE",
"-40 -7 CURVE"
);
}
);
width = 332;
}
);
note = h;
unicode = 0068;
},
{
glyphname = i;
lastChange = "2020-12-20 20:29:43 +0000";
layers = (
{
layerId = "1691882E-B915-4755-A5B2-757873D945FF";
paths = (
{
closed = 1;
nodes = (
"61.58 -14.547 OFFCURVE",
"116.362 -8.756 OFFCURVE",
"165 47 CURVE SMOOTH",
"185 69.667 OFFCURVE",
"214.833 122.333 OFFCURVE",
"223.5 141 CURVE SMOOTH",
"238 172.5 LINE SMOOTH",
"243.333 184.167 OFFCURVE",
"246 191.5 OFFCURVE",
"246 194.5 CURVE SMOOTH",
"246 197.5 OFFCURVE",
"245.333 199.667 OFFCURVE",
"244 201 CURVE SMOOTH",
"239.333 205 OFFCURVE",
"234.667 202 OFFCURVE",
"230 192 CURVE SMOOTH",
"192 116 OFFCURVE",
"160.667 65.667 OFFCURVE",
"136 41 CURVE SMOOTH",
"122 28.333 OFFCURVE",
"108.667 22 OFFCURVE",
"96 22 CURVE SMOOTH",
"75.333 22 OFFCURVE",
"65 31.667 OFFCURVE",
"65 51 CURVE SMOOTH",
"65 68.333 OFFCURVE",
"70.667 89.333 OFFCURVE",
"82 114 CURVE SMOOTH",
"162 301 LINE",
"175.333 325 OFFCURVE",
"171.667 336 OFFCURVE",
"141 336 CURVE SMOOTH",
"86 335 LINE",
"94 324.333 OFFCURVE",
"98 315.667 OFFCURVE",
"98 309 CURVE SMOOTH",
"98 302.333 OFFCURVE",
"97.333 297 OFFCURVE",
"96 293 CURVE SMOOTH",
"32 130 LINE SMOOTH",
"14.565 87.083 OFFCURVE",
"13.867 51.058 OFFCURVE",
"35 22 CURVE SMOOTH"
);
},
{
closed = 1;
nodes = (
"221.546 377 OFFCURVE",
"229.542 459 OFFCURVE",
"176 459 CURVE SMOOTH",
"153.333 459 OFFCURVE",
"132 440.667 OFFCURVE",
"128 418 CURVE SMOOTH",
"125.333 395.333 OFFCURVE",
"140.333 377 OFFCURVE",
"163 377 CURVE SMOOTH"
);
}
);
width = 174;
}
);
note = i;
unicode = 0069;
},
{
glyphname = dotlessi;
lastChange = "2020-12-20 20:29:42 +0000";
layers = (
{
layerId = "1691882E-B915-4755-A5B2-757873D945FF";
paths = (
{
closed = 1;
nodes = (
"109.333 0 OFFCURVE",
"139.167 24.5 OFFCURVE",
"158.5 46.5 CURVE SMOOTH",
"177.833 68.5 OFFCURVE",
"208 125 OFFCURVE",
"216 141 CURVE SMOOTH",
"225.549 160.098 OFFCURVE",
"238.394 177.361 OFFCURVE",
"237 201 CURVE",
"233 205 OFFCURVE",
"228.333 202 OFFCURVE",
"223 192 CURVE SMOOTH",
"187 117.333 OFFCURVE",
"155.667 67 OFFCURVE",
"129 41 CURVE",
"90 22 LINE",
"68.667 22 OFFCURVE",
"58 31.333 OFFCURVE",
"58 50 CURVE SMOOTH",
"58 66.667 OFFCURVE",
"64 88 OFFCURVE",
"76 114 CURVE SMOOTH",
"94 160 OFFCURVE",
"128.667 224.667 OFFCURVE",
"180 308 CURVE SMOOTH",
"186 318.667 OFFCURVE",
"195 328 OFFCURVE",
"207 336 CURVE SMOOTH",
"217 344 LINE",
"166 344 LINE SMOOTH",
"135.333 344 OFFCURVE",
"137.333 345.333 OFFCURVE",
"112 296 CURVE SMOOTH",
"25 130 LINE SMOOTH",
"-8.332 70.003 OFFCURVE",
"17.597 0 OFFCURVE",
"72 0 CURVE SMOOTH"
);
}
);
width = 174;
}
);
note = dotlessi;
unicode = 0131;
},
{
glyphname = iacute;
lastChange = "2020-12-20 20:29:42 +0000";
layers = (
{
layerId = "1691882E-B915-4755-A5B2-757873D945FF";
paths = (
{
closed = 1;
nodes = (
"109.333 0 OFFCURVE",
"139.167 24.5 OFFCURVE",
"158.5 46.5 CURVE SMOOTH",
"177.833 68.5 OFFCURVE",
"208 125 OFFCURVE",
"216 141 CURVE SMOOTH",
"242.309 193.617 OFFCURVE",
"244.777 232.831 OFFCURVE",
"223 192 CURVE SMOOTH",
"187 117.333 OFFCURVE",
"155.667 67 OFFCURVE",
"129 41 CURVE",
"90 22 LINE",
"68.667 22 OFFCURVE",
"58 31.333 OFFCURVE",
"58 50 CURVE SMOOTH",
"58 66.667 OFFCURVE",
"64 88 OFFCURVE",
"76 114 CURVE SMOOTH",
"94 160 OFFCURVE",
"128.667 224.667 OFFCURVE",
"180 308 CURVE SMOOTH",
"186 318.667 OFFCURVE",
"195 328 OFFCURVE",
"207 336 CURVE SMOOTH",
"217 344 LINE",
"166 344 LINE SMOOTH",
"135.333 344 OFFCURVE",
"137.333 345.333 OFFCURVE",
"112 296 CURVE SMOOTH",
"25 130 LINE SMOOTH",
"-8.332 70.003 OFFCURVE",
"17.597 0 OFFCURVE",
"72 0 CURVE SMOOTH"
);
},
{
closed = 1;
nodes = (
"193.249 432.949 OFFCURVE",
"192.882 432.674 OFFCURVE",
"198.732 437.212 CURVE SMOOTH",
"216.5 451 LINE",
"208.903 445.711 OFFCURVE",
"203.106 441.144 OFFCURVE",
"198.732 437.212 CURVE SMOOTH",
"197.904 436.461 LINE SMOOTH"
);
},
{
closed = 1;
nodes = (
"206.667 415 OFFCURVE",
"371.333 488 OFFCURVE",
"378 504 CURVE SMOOTH",
"387.115 522.229 OFFCURVE",
"375.242 533.897 OFFCURVE",
"346.5 535 CURVE SMOOTH",
"327.237 535 OFFCURVE",
"310.003 517.47 OFFCURVE",
"274 492.5 CURVE SMOOTH",
"241.605 469.445 OFFCURVE",
"208.547 444.49 OFFCURVE",
"197.904 436.461 CURVE SMOOTH",
"179.099 419.192 OFFCURVE",
"188.437 414.603 OFFCURVE",
"192 415 CURVE SMOOTH"
);
}
);
width = 168;
}
);
note = iacute;
unicode = 00ED;
},
{
glyphname = icircumflex;
lastChange = "2020-12-20 20:29:42 +0000";
layers = (
{
layerId = "1691882E-B915-4755-A5B2-757873D945FF";
paths = (
{
closed = 1;
nodes = (
"109.333 0 OFFCURVE",
"139.167 24.5 OFFCURVE",
"158.5 46.5 CURVE SMOOTH",
"177.833 68.5 OFFCURVE",
"208 125 OFFCURVE",
"216 141 CURVE SMOOTH",
"242.309 193.617 OFFCURVE",
"244.777 232.831 OFFCURVE",
"223 192 CURVE SMOOTH",
"187 117.333 OFFCURVE",
"155.667 67 OFFCURVE",
"129 41 CURVE",
"90 22 LINE",
"68.667 22 OFFCURVE",
"58 31.333 OFFCURVE",
"58 50 CURVE SMOOTH",
"58 66.667 OFFCURVE",
"64 88 OFFCURVE",
"76 114 CURVE SMOOTH",
"94 160 OFFCURVE",
"128.667 224.667 OFFCURVE",
"180 308 CURVE SMOOTH",
"186 318.667 OFFCURVE",
"195 328 OFFCURVE",
"207 336 CURVE SMOOTH",
"217 344 LINE",
"166 344 LINE SMOOTH",
"135.333 344 OFFCURVE",
"137.333 345.333 OFFCURVE",
"112 296 CURVE SMOOTH",
"25 130 LINE SMOOTH",
"-8.332 70.003 OFFCURVE",
"17.597 0 OFFCURVE",
"72 0 CURVE SMOOTH"
);
},
{
closed = 1;
nodes = (
"104.272 390.194 OFFCURVE",
"139.482 402.119 OFFCURVE",
"118 406 CURVE",
"250 477 LINE",
"296 406 LINE SMOOTH",
"300.792 398.812 OFFCURVE",
"321.598 396.685 OFFCURVE",
"316 406 CURVE",
"280 512 LINE",
"280 513.333 OFFCURVE",
"276.667 514 OFFCURVE",
"270 514 CURVE SMOOTH",
"263.333 514 OFFCURVE",
"254 513.333 OFFCURVE",
"242 512 CURVE",
"93 406 LINE"
);
}
);
width = 168;
}
);
note = icircumflex;
unicode = 00EE;
},
{
glyphname = idieresis;
lastChange = "2020-12-20 20:29:43 +0000";
layers = (
{
layerId = "1691882E-B915-4755-A5B2-757873D945FF";
paths = (
{
closed = 1;
nodes = (
"109.333 0 OFFCURVE",
"139.167 24.5 OFFCURVE",
"158.5 46.5 CURVE SMOOTH",
"177.833 68.5 OFFCURVE",
"208 125 OFFCURVE",
"216 141 CURVE SMOOTH",
"242.309 193.617 OFFCURVE",
"244.777 232.831 OFFCURVE",
"223 192 CURVE SMOOTH",
"187 117.333 OFFCURVE",
"155.667 67 OFFCURVE",
"129 41 CURVE",
"90 22 LINE",
"68.667 22 OFFCURVE",
"58 31.333 OFFCURVE",
"58 50 CURVE SMOOTH",
"58 66.667 OFFCURVE",
"64 88 OFFCURVE",
"76 114 CURVE SMOOTH",
"94 160 OFFCURVE",
"128.667 224.667 OFFCURVE",
"180 308 CURVE SMOOTH",
"186 318.667 OFFCURVE",
"195 328 OFFCURVE",
"207 336 CURVE SMOOTH",
"217 344 LINE",
"166 344 LINE SMOOTH",
"135.333 344 OFFCURVE",
"137.333 345.333 OFFCURVE",
"112 296 CURVE SMOOTH",
"25 130 LINE SMOOTH",
"-8.332 70.003 OFFCURVE",
"17.597 0 OFFCURVE",
"72 0 CURVE SMOOTH"
);
},
{
closed = 1;
nodes = (
"159.833 396 OFFCURVE",
"173 410.167 OFFCURVE",
"173 429.5 CURVE SMOOTH",
"173 448.833 OFFCURVE",
"158.833 462 OFFCURVE",
"139.5 462 CURVE SMOOTH",
"120.167 462 OFFCURVE",
"107 447.833 OFFCURVE",
"107 428.5 CURVE SMOOTH",
"107 409.167 OFFCURVE",
"121.167 396 OFFCURVE",
"140.5 396 CURVE SMOOTH"
);
},
{
closed = 1;
nodes = (
"288.833 396 OFFCURVE",
"302 410.167 OFFCURVE",
"302 429.5 CURVE SMOOTH",
"302 448.833 OFFCURVE",
"287.833 462 OFFCURVE",
"268.5 462 CURVE SMOOTH",
"249.167 462 OFFCURVE",
"236 447.833 OFFCURVE",
"236 428.5 CURVE SMOOTH",
"236 409.167 OFFCURVE",
"250.167 396 OFFCURVE",
"269.5 396 CURVE SMOOTH"
);
}
);
width = 168;
}
);
note = idieresis;
unicode = 00EF;
},
{
glyphname = igrave;
lastChange = "2020-12-20 20:29:43 +0000";
layers = (
{
layerId = "1691882E-B915-4755-A5B2-757873D945FF";
paths = (
{
closed = 1;
nodes = (
"109.333 0 OFFCURVE",
"139.167 24.5 OFFCURVE",
"158.5 46.5 CURVE SMOOTH",
"177.833 68.5 OFFCURVE",
"208 125 OFFCURVE",
"216 141 CURVE SMOOTH",
"225.549 160.098 OFFCURVE",
"238.394 177.361 OFFCURVE",
"237 201 CURVE",
"233 205 OFFCURVE",
"228.333 202 OFFCURVE",
"223 192 CURVE SMOOTH",
"187 117.333 OFFCURVE",
"155.667 67 OFFCURVE",
"129 41 CURVE",
"90 22 LINE",
"68.667 22 OFFCURVE",
"58 31.333 OFFCURVE",
"58 50 CURVE SMOOTH",
"58 66.667 OFFCURVE",
"64 88 OFFCURVE",
"76 114 CURVE SMOOTH",
"94 160 OFFCURVE",
"128.667 224.667 OFFCURVE",
"180 308 CURVE SMOOTH",
"186 318.667 OFFCURVE",
"195 328 OFFCURVE",
"207 336 CURVE SMOOTH",
"217 344 LINE",
"166 344 LINE SMOOTH",
"135.333 344 OFFCURVE",
"137.333 345.333 OFFCURVE",
"112 296 CURVE SMOOTH",
"25 130 LINE SMOOTH",
"-8.332 70.003 OFFCURVE",
"17.597 0 OFFCURVE",
"72 0 CURVE SMOOTH"
);
},
{
closed = 1;
nodes = (
"234.667 399 OFFCURVE",
"238 402 OFFCURVE",
"238 408 CURVE SMOOTH",
"238 416 OFFCURVE",
"90.333 534 OFFCURVE",
"73 534 CURVE SMOOTH",
"60.333 534 OFFCURVE",
"54 526 OFFCURVE",
"54 510 CURVE SMOOTH",
"54 494 OFFCURVE",
"66.333 480 OFFCURVE",
"91 468 CURVE SMOOTH",
"159.5 432 LINE SMOOTH",
"201.167 410 OFFCURVE",
"224 399 OFFCURVE",
"228 399 CURVE SMOOTH"
);
}
);
width = 168;
}
);
note = igrave;
unicode = 00EC;
},
{
glyphname = j;
lastChange = "2020-12-20 20:29:43 +0000";
layers = (
{
layerId = "1691882E-B915-4755-A5B2-757873D945FF";
paths = (
{
closed = 1;
nodes = (
"-242.167 -316 OFFCURVE",
"-185 -289.333 OFFCURVE",
"-145 -256 CURVE SMOOTH",
"-92.333 -212 OFFCURVE",
"-40.333 -143.333 OFFCURVE",
"11 -50 CURVE",
"156.287 2.832 OFFCURVE",
"184.992 52.923 OFFCURVE",
"236.5 157.5 CURVE SMOOTH",
"265.142 215.651 OFFCURVE",
"243.459 209.917 OFFCURVE",
"235 193 CURVE SMOOTH",
"205.667 137.667 OFFCURVE",
"184.833 100.833 OFFCURVE",
"172.5 82.5 CURVE SMOOTH",
"160.167 64.167 OFFCURVE",
"145.5 48 OFFCURVE",
"128.5 34 CURVE SMOOTH",
"94.5 6 OFFCURVE",
"80 2 OFFCURVE",
"28 -18 CURVE",
"52.667 30.667 OFFCURVE",
"73.333 74.667 OFFCURVE",
"90 114 CURVE SMOOTH",
"170 301 LINE",
"183.333 325 OFFCURVE",
"179.667 336 OFFCURVE",
"149 336 CURVE SMOOTH",
"94 335 LINE",
"102.667 324.333 OFFCURVE",
"107 315.667 OFFCURVE",
"107 309 CURVE SMOOTH",
"107 302.333 OFFCURVE",
"106 297 OFFCURVE",
"104 293 CURVE SMOOTH",
"51 178 LINE SMOOTH",
"46.333 167.333 OFFCURVE",
"49.333 162 OFFCURVE",
"60 162 CURVE",
"-12.5 12.5 LINE SMOOTH",
"-15.5 6.167 OFFCURVE",
"-25.333 -11.333 OFFCURVE",
"-42 -40 CURVE",
"-58 -44.667 OFFCURVE",
"-94 -53.833 OFFCURVE",
"-150 -67.5 CURVE SMOOTH",
"-206 -81.167 OFFCURVE",
"-251 -96 OFFCURVE",
"-285 -112 CURVE SMOOTH",
"-330.333 -132.667 OFFCURVE",
"-361.667 -160 OFFCURVE",
"-379 -194 CURVE SMOOTH",
"-418.166 -280.165 OFFCURVE",
"-373.107 -316 OFFCURVE",
"-301.5 -316 CURVE SMOOTH"
);
},
{
closed = 1;
nodes = (
"-346.392 -296 OFFCURVE",
"-391.239 -282.956 OFFCURVE",
"-360 -217 CURVE SMOOTH",
"-342 -180.333 OFFCURVE",
"-311.333 -152.667 OFFCURVE",
"-268 -134 CURVE SMOOTH",
"-240.667 -122 OFFCURVE",
"-171.667 -101.333 OFFCURVE",
"-61 -72 CURVE",
"-89.667 -125.333 OFFCURVE",
"-135.333 -180 OFFCURVE",
"-198 -236 CURVE SMOOTH",
"-242.667 -276 OFFCURVE",
"-284.333 -296 OFFCURVE",
"-323 -296 CURVE SMOOTH"
);
},
{
closed = 1;
nodes = (
"213.667 405 OFFCURVE",
"213 419.333 OFFCURVE",
"213 430 CURVE SMOOTH",
"213 440.667 OFFCURVE",
"199.667 459 OFFCURVE",
"177 459 CURVE SMOOTH",
"144.839 459 OFFCURVE",
"129 432.403 OFFCURVE",
"129 407 CURVE",
"133.746 368.51 OFFCURVE",
"191.841 371.747 OFFCURVE",
"195 389 CURVE"
);
}
);
width = 177;
}
);
note = j;
unicode = 006A;
},
